M48
; DRILL file {KiCad (5.99.0-6506-gfdf6547f5f)} date 10/25/20 23:45:22
; FORMAT={-:-/ absolute / inch / decimal}
; #@! TF.CreationDate,2020-10-25T23:45:22+03:00
; #@! TF.GenerationSoftware,Kicad,Pcbnew,(5.99.0-6506-gfdf6547f5f)
; #@! TF.FileFunction,Plated,1,2,PTH
FMAT,2
INCH
T1C0.0079
T2C0.0157
T3C0.0394
T4C0.0433
%
G90
G05
T1
X2.4813Y-3.5968
X2.493Y-3.1445
X2.512Y-3.0912
X2.515Y-3.168
X2.5619Y-3.3105
X2.632Y-3.0044
X2.6912Y-3.0044
X2.711Y-3.6606
X2.847Y-3.671
X2.849Y-3.7105
X2.8506Y-3.214
X2.8675Y-3.691
X2.868Y-3.7305
X2.901Y-3.8484
X2.921Y-3.8366
X2.9408Y-3.8486
X2.9604Y-3.8368
X3.0784Y-3.5189
X3.0982Y-3.5002
X3.2682Y-3.5924
X3.2948Y-3.6122
X3.295Y-3.6516
X3.3323Y-3.4368
X3.4924Y-3.5522
T2
X1.7484Y-3.3177
X1.9216Y-3.6681
X1.9712Y-3.1909
X2.1036Y-3.1479
X2.1945Y-3.0625
X2.6568Y-3.7697
X2.8248Y-4.014
X2.99Y-3.6812
X3.118Y-3.8081
X3.156Y-3.684
X3.156Y-3.8506
X3.2784Y-3.4648
T3
X3.75Y-3.8
X3.75Y-3.9
X3.75Y-4.0
X3.75Y-4.1
X3.75Y-4.2
X3.75Y-3.0
X3.75Y-3.1
X3.75Y-3.2
X3.75Y-3.3
X3.75Y-3.4
X3.75Y-3.5
X3.75Y-3.6
X3.75Y-3.7
X2.95Y-3.0
X3.05Y-3.0
X3.15Y-3.0
X2.9Y-4.2
X3.0Y-4.2
X3.1Y-4.2
X3.2Y-4.2
X3.3Y-4.2
X2.0876Y-3.3649
X2.1876Y-3.3649
X2.2876Y-3.3649
X1.6Y-3.0
X1.7Y-3.0
X1.8Y-3.0
X1.9Y-3.0
X2.4Y-4.2
X2.5Y-4.2
X2.6Y-4.2
X2.7Y-4.2
X2.8Y-4.2
X1.6Y-4.2
X1.7Y-4.2
X1.8Y-4.2
X1.9Y-4.2
X2.0Y-4.2
X2.1Y-4.2
X2.2Y-4.2
X2.3Y-4.2
X3.1375Y-3.3215
X3.2375Y-3.3215
X3.3375Y-3.3215
X3.4375Y-3.3215
X3.4Y-4.2
X3.5Y-4.2
X3.6Y-4.2
X3.3Y-3.0
X3.4Y-3.0
X3.5Y-3.0
X2.0876Y-3.6199
X2.1876Y-3.6199
X2.2876Y-3.6199
T4
X1.9909Y-3.8104
X1.9909Y-3.9876
X2.2468Y-3.8104
X2.2468Y-3.9876
X1.6129Y-3.8104
X1.6129Y-3.9876
X1.8688Y-3.8104
X1.8688Y-3.9876
T0
M30
