G04 #@! TF.GenerationSoftware,KiCad,Pcbnew,(5.99.0-6506-gfdf6547f5f)*
G04 #@! TF.CreationDate,2020-10-25T23:45:09+03:00*
G04 #@! TF.ProjectId,DevBoard,44657642-6f61-4726-942e-6b696361645f,rev?*
G04 #@! TF.SameCoordinates,Original*
G04 #@! TF.FileFunction,Soldermask,Top*
G04 #@! TF.FilePolarity,Negative*
%FSLAX46Y46*%
G04 Gerber Fmt 4.6, Leading zero omitted, Abs format (unit mm)*
G04 Created by KiCad (PCBNEW (5.99.0-6506-gfdf6547f5f)) date 2020-10-25 23:45:09*
%MOMM*%
%LPD*%
G01*
G04 APERTURE LIST*
G04 Aperture macros list*
%AMRoundRect*
0 Rectangle with rounded corners*
0 $1 Rounding radius*
0 $2 $3 $4 $5 $6 $7 $8 $9 X,Y pos of 4 corners*
0 Add a 4 corners polygon primitive as box body*
4,1,4,$2,$3,$4,$5,$6,$7,$8,$9,$2,$3,0*
0 Add four circle primitives for the rounded corners*
1,1,$1+$1,$2,$3,0*
1,1,$1+$1,$4,$5,0*
1,1,$1+$1,$6,$7,0*
1,1,$1+$1,$8,$9,0*
0 Add four rect primitives between the rounded corners*
20,1,$1+$1,$2,$3,$4,$5,0*
20,1,$1+$1,$4,$5,$6,$7,0*
20,1,$1+$1,$6,$7,$8,$9,0*
20,1,$1+$1,$8,$9,$2,$3,0*%
G04 Aperture macros list end*
%ADD10RoundRect,0.147500X0.147500X0.172500X-0.147500X0.172500X-0.147500X-0.172500X0.147500X-0.172500X0*%
%ADD11RoundRect,0.300000X-0.300000X-0.300000X0.300000X-0.300000X0.300000X0.300000X-0.300000X0.300000X0*%
%ADD12R,2.000000X0.500000*%
%ADD13R,1.700000X2.000000*%
%ADD14RoundRect,0.147500X0.172500X-0.147500X0.172500X0.147500X-0.172500X0.147500X-0.172500X-0.147500X0*%
%ADD15RoundRect,0.218750X0.218750X0.256250X-0.218750X0.256250X-0.218750X-0.256250X0.218750X-0.256250X0*%
%ADD16RoundRect,0.500000X0.500000X0.500000X-0.500000X0.500000X-0.500000X-0.500000X0.500000X-0.500000X0*%
%ADD17O,2.000000X2.000000*%
%ADD18R,1.500000X2.000000*%
%ADD19R,3.800000X2.000000*%
%ADD20RoundRect,0.250000X0.925000X-0.787500X0.925000X0.787500X-0.925000X0.787500X-0.925000X-0.787500X0*%
%ADD21RoundRect,0.062500X-0.337500X-0.062500X0.337500X-0.062500X0.337500X0.062500X-0.337500X0.062500X0*%
%ADD22RoundRect,0.062500X-0.062500X-0.337500X0.062500X-0.337500X0.062500X0.337500X-0.062500X0.337500X0*%
%ADD23RoundRect,0.250000X-1.425000X-1.425000X1.425000X-1.425000X1.425000X1.425000X-1.425000X1.425000X0*%
%ADD24R,1.060000X0.650000*%
%ADD25RoundRect,0.375000X-0.375000X-0.895000X0.375000X-0.895000X0.375000X0.895000X-0.375000X0.895000X0*%
%ADD26O,1.500000X2.540000*%
%ADD27RoundRect,0.300000X-0.300000X0.300000X-0.300000X-0.300000X0.300000X-0.300000X0.300000X0.300000X0*%
%ADD28RoundRect,0.147500X-0.172500X0.147500X-0.172500X-0.147500X0.172500X-0.147500X0.172500X0.147500X0*%
%ADD29RoundRect,0.147500X-0.147500X-0.172500X0.147500X-0.172500X0.147500X0.172500X-0.147500X0.172500X0*%
%ADD30RoundRect,0.375000X-0.895000X0.375000X-0.895000X-0.375000X0.895000X-0.375000X0.895000X0.375000X0*%
%ADD31O,2.540000X1.500000*%
%ADD32RoundRect,0.375000X0.895000X-0.375000X0.895000X0.375000X-0.895000X0.375000X-0.895000X-0.375000X0*%
%ADD33C,2.000000*%
%ADD34R,1.000000X0.250000*%
%ADD35R,0.250000X1.000000*%
%ADD36RoundRect,0.500000X-0.700000X0.500000X-0.700000X-0.500000X0.700000X-0.500000X0.700000X0.500000X0*%
G04 APERTURE END LIST*
D10*
X50069100Y-84274900D03*
X49099100Y-84274900D03*
D11*
X40837100Y-81049100D03*
X42837100Y-81049100D03*
D12*
X47153300Y-87119900D03*
X47153300Y-87919900D03*
X47153300Y-88719900D03*
X47153300Y-89519900D03*
X47153300Y-90319900D03*
D13*
X47053300Y-93169900D03*
X41603300Y-84269900D03*
X41603300Y-93169900D03*
X47053300Y-84269900D03*
D14*
X49596800Y-90487600D03*
X49596800Y-89517600D03*
D15*
X52644900Y-87767400D03*
X51069900Y-87767400D03*
D16*
X58105800Y-85468700D03*
D17*
X55565800Y-85468700D03*
X53025800Y-85468700D03*
D16*
X58105800Y-91945700D03*
D17*
X55565800Y-91945700D03*
X53025800Y-91945700D03*
D10*
X47592600Y-81049100D03*
X46622600Y-81049100D03*
D15*
X52644900Y-89672400D03*
X51069900Y-89672400D03*
D18*
X55732200Y-75968700D03*
X53432200Y-75968700D03*
D19*
X53432200Y-82268700D03*
D18*
X51132200Y-75968700D03*
D20*
X59245500Y-80897700D03*
X59245500Y-75972700D03*
D21*
X65406100Y-78471900D03*
X65406100Y-78971900D03*
X65406100Y-79471900D03*
X65406100Y-79971900D03*
X65406100Y-80471900D03*
X65406100Y-80971900D03*
X65406100Y-81471900D03*
D22*
X66356100Y-82421900D03*
X66856100Y-82421900D03*
X67356100Y-82421900D03*
X67856100Y-82421900D03*
X68356100Y-82421900D03*
X68856100Y-82421900D03*
X69356100Y-82421900D03*
D21*
X70306100Y-81471900D03*
X70306100Y-80971900D03*
X70306100Y-80471900D03*
X70306100Y-79971900D03*
X70306100Y-79471900D03*
X70306100Y-78971900D03*
X70306100Y-78471900D03*
D22*
X69356100Y-77521900D03*
X68856100Y-77521900D03*
X68356100Y-77521900D03*
X67856100Y-77521900D03*
X67356100Y-77521900D03*
X66856100Y-77521900D03*
X66356100Y-77521900D03*
D23*
X67856100Y-79971900D03*
D24*
X54415000Y-87769900D03*
X54415000Y-88719900D03*
X54415000Y-89669900D03*
X56615000Y-89669900D03*
X56615000Y-88719900D03*
X56615000Y-87769900D03*
D25*
X40640000Y-76200000D03*
D26*
X43180000Y-76200000D03*
X45720000Y-76200000D03*
X48260000Y-76200000D03*
D10*
X47591840Y-79054960D03*
X46621840Y-79054960D03*
D27*
X72405240Y-76175360D03*
X72405240Y-78175360D03*
D28*
X82550000Y-103350200D03*
X82550000Y-104320200D03*
X83271360Y-89126200D03*
X83271360Y-90096200D03*
X63030100Y-89367500D03*
X63030100Y-90337500D03*
X80010000Y-103350200D03*
X80010000Y-104320200D03*
D29*
X71849120Y-85989160D03*
X72819120Y-85989160D03*
D14*
X63030100Y-93355020D03*
X63030100Y-92385020D03*
D28*
X77470000Y-103350200D03*
X77470000Y-104320200D03*
D14*
X72689720Y-101952920D03*
X72689720Y-100982920D03*
D28*
X74930000Y-103350200D03*
X74930000Y-104320200D03*
D14*
X68590160Y-95750240D03*
X68590160Y-94780240D03*
X68910200Y-89750760D03*
X68910200Y-88780760D03*
D10*
X80784560Y-100553520D03*
X79814560Y-100553520D03*
D14*
X61706760Y-78808440D03*
X61706760Y-77838440D03*
X62788800Y-78805900D03*
X62788800Y-77835900D03*
D11*
X59269120Y-100441760D03*
X61269120Y-100441760D03*
X59269120Y-102148640D03*
X61269120Y-102148640D03*
X59269120Y-103855520D03*
X61269120Y-103855520D03*
D25*
X40640000Y-106680000D03*
D26*
X43180000Y-106680000D03*
X45720000Y-106680000D03*
X48260000Y-106680000D03*
X50800000Y-106680000D03*
X53340000Y-106680000D03*
X55880000Y-106680000D03*
X58420000Y-106680000D03*
D30*
X95250000Y-76200000D03*
D31*
X95250000Y-78740000D03*
X95250000Y-81280000D03*
X95250000Y-83820000D03*
X95250000Y-86360000D03*
X95250000Y-88900000D03*
X95250000Y-91440000D03*
X95250000Y-93980000D03*
D25*
X73660000Y-106680000D03*
D26*
X76200000Y-106680000D03*
X78740000Y-106680000D03*
X81280000Y-106680000D03*
X83820000Y-106680000D03*
D25*
X60960000Y-106680000D03*
D26*
X63500000Y-106680000D03*
X66040000Y-106680000D03*
X68580000Y-106680000D03*
X71120000Y-106680000D03*
D32*
X95250000Y-106680000D03*
D31*
X95250000Y-104140000D03*
X95250000Y-101600000D03*
X95250000Y-99060000D03*
X95250000Y-96520000D03*
D25*
X79692500Y-84366100D03*
D26*
X82232500Y-84366100D03*
X84772500Y-84366100D03*
X87312500Y-84366100D03*
D25*
X74930000Y-76200000D03*
D26*
X77470000Y-76200000D03*
X80010000Y-76200000D03*
D25*
X86360000Y-106680000D03*
D26*
X88900000Y-106680000D03*
X91440000Y-106680000D03*
D25*
X83820000Y-76200000D03*
D26*
X86360000Y-76200000D03*
X88900000Y-76200000D03*
D28*
X73647300Y-103350200D03*
X73647300Y-104320200D03*
X76200000Y-103350200D03*
X76200000Y-104320200D03*
X78740000Y-103350200D03*
X78740000Y-104320200D03*
X81280000Y-103350200D03*
X81280000Y-104320200D03*
D14*
X73964800Y-86225240D03*
X73964800Y-85255240D03*
X72405240Y-80586440D03*
X72405240Y-79616440D03*
D10*
X63985000Y-100439220D03*
X63015000Y-100439220D03*
X63985000Y-102148640D03*
X63015000Y-102148640D03*
X63985000Y-103858060D03*
X63015000Y-103858060D03*
D29*
X66355100Y-84086700D03*
X67325100Y-84086700D03*
D33*
X40967520Y-101285040D03*
X47467520Y-101285040D03*
X40967520Y-96785040D03*
X47467520Y-96785040D03*
X57068720Y-101285040D03*
X50568720Y-101285040D03*
X50568720Y-96785040D03*
X57068720Y-96785040D03*
D34*
X70246000Y-89750000D03*
X70246000Y-90250000D03*
X70246000Y-90750000D03*
X70246000Y-91250000D03*
X70246000Y-91750000D03*
X70246000Y-92250000D03*
X70246000Y-92750000D03*
X70246000Y-93250000D03*
X70246000Y-93750000D03*
X70246000Y-94250000D03*
X70246000Y-94750000D03*
X70246000Y-95250000D03*
X70246000Y-95750000D03*
X70246000Y-96250000D03*
X70246000Y-96750000D03*
X70246000Y-97250000D03*
D35*
X72196000Y-99200000D03*
X72696000Y-99200000D03*
X73196000Y-99200000D03*
X73696000Y-99200000D03*
X74196000Y-99200000D03*
X74696000Y-99200000D03*
X75196000Y-99200000D03*
X75696000Y-99200000D03*
X76196000Y-99200000D03*
X76696000Y-99200000D03*
X77196000Y-99200000D03*
X77696000Y-99200000D03*
X78196000Y-99200000D03*
X78696000Y-99200000D03*
X79196000Y-99200000D03*
X79696000Y-99200000D03*
D34*
X81646000Y-97250000D03*
X81646000Y-96750000D03*
X81646000Y-96250000D03*
X81646000Y-95750000D03*
X81646000Y-95250000D03*
X81646000Y-94750000D03*
X81646000Y-94250000D03*
X81646000Y-93750000D03*
X81646000Y-93250000D03*
X81646000Y-92750000D03*
X81646000Y-92250000D03*
X81646000Y-91750000D03*
X81646000Y-91250000D03*
X81646000Y-90750000D03*
X81646000Y-90250000D03*
X81646000Y-89750000D03*
D35*
X79696000Y-87800000D03*
X79196000Y-87800000D03*
X78696000Y-87800000D03*
X78196000Y-87800000D03*
X77696000Y-87800000D03*
X77196000Y-87800000D03*
X76696000Y-87800000D03*
X76196000Y-87800000D03*
X75696000Y-87800000D03*
X75196000Y-87800000D03*
X74696000Y-87800000D03*
X74196000Y-87800000D03*
X73696000Y-87800000D03*
X73196000Y-87800000D03*
X72696000Y-87800000D03*
X72196000Y-87800000D03*
D36*
X65217040Y-89356180D03*
X65217040Y-93356180D03*
M02*
