G04 #@! TF.GenerationSoftware,KiCad,Pcbnew,(5.99.0-6506-gfdf6547f5f)*
G04 #@! TF.CreationDate,2020-10-25T23:45:09+03:00*
G04 #@! TF.ProjectId,DevBoard,44657642-6f61-4726-942e-6b696361645f,rev?*
G04 #@! TF.SameCoordinates,Original*
G04 #@! TF.FileFunction,Copper,L1,Top*
G04 #@! TF.FilePolarity,Positive*
%FSLAX46Y46*%
G04 Gerber Fmt 4.6, Leading zero omitted, Abs format (unit mm)*
G04 Created by KiCad (PCBNEW (5.99.0-6506-gfdf6547f5f)) date 2020-10-25 23:45:09*
%MOMM*%
%LPD*%
G01*
G04 APERTURE LIST*
G04 Aperture macros list*
%AMRoundRect*
0 Rectangle with rounded corners*
0 $1 Rounding radius*
0 $2 $3 $4 $5 $6 $7 $8 $9 X,Y pos of 4 corners*
0 Add a 4 corners polygon primitive as box body*
4,1,4,$2,$3,$4,$5,$6,$7,$8,$9,$2,$3,0*
0 Add four circle primitives for the rounded corners*
1,1,$1+$1,$2,$3,0*
1,1,$1+$1,$4,$5,0*
1,1,$1+$1,$6,$7,0*
1,1,$1+$1,$8,$9,0*
0 Add four rect primitives between the rounded corners*
20,1,$1+$1,$2,$3,$4,$5,0*
20,1,$1+$1,$4,$5,$6,$7,0*
20,1,$1+$1,$6,$7,$8,$9,0*
20,1,$1+$1,$8,$9,$2,$3,0*%
G04 Aperture macros list end*
G04 #@! TA.AperFunction,SMDPad,CuDef*
%ADD10RoundRect,0.147500X0.147500X0.172500X-0.147500X0.172500X-0.147500X-0.172500X0.147500X-0.172500X0*%
G04 #@! TD*
G04 #@! TA.AperFunction,SMDPad,CuDef*
%ADD11RoundRect,0.300000X-0.300000X-0.300000X0.300000X-0.300000X0.300000X0.300000X-0.300000X0.300000X0*%
G04 #@! TD*
G04 #@! TA.AperFunction,SMDPad,CuDef*
%ADD12R,2.000000X0.500000*%
G04 #@! TD*
G04 #@! TA.AperFunction,SMDPad,CuDef*
%ADD13R,1.700000X2.000000*%
G04 #@! TD*
G04 #@! TA.AperFunction,SMDPad,CuDef*
%ADD14RoundRect,0.147500X0.172500X-0.147500X0.172500X0.147500X-0.172500X0.147500X-0.172500X-0.147500X0*%
G04 #@! TD*
G04 #@! TA.AperFunction,SMDPad,CuDef*
%ADD15RoundRect,0.218750X0.218750X0.256250X-0.218750X0.256250X-0.218750X-0.256250X0.218750X-0.256250X0*%
G04 #@! TD*
G04 #@! TA.AperFunction,ComponentPad*
%ADD16RoundRect,0.500000X0.500000X0.500000X-0.500000X0.500000X-0.500000X-0.500000X0.500000X-0.500000X0*%
G04 #@! TD*
G04 #@! TA.AperFunction,ComponentPad*
%ADD17O,2.000000X2.000000*%
G04 #@! TD*
G04 #@! TA.AperFunction,SMDPad,CuDef*
%ADD18R,1.500000X2.000000*%
G04 #@! TD*
G04 #@! TA.AperFunction,SMDPad,CuDef*
%ADD19R,3.800000X2.000000*%
G04 #@! TD*
G04 #@! TA.AperFunction,SMDPad,CuDef*
%ADD20RoundRect,0.250000X0.925000X-0.787500X0.925000X0.787500X-0.925000X0.787500X-0.925000X-0.787500X0*%
G04 #@! TD*
G04 #@! TA.AperFunction,SMDPad,CuDef*
%ADD21RoundRect,0.062500X-0.337500X-0.062500X0.337500X-0.062500X0.337500X0.062500X-0.337500X0.062500X0*%
G04 #@! TD*
G04 #@! TA.AperFunction,SMDPad,CuDef*
%ADD22RoundRect,0.062500X-0.062500X-0.337500X0.062500X-0.337500X0.062500X0.337500X-0.062500X0.337500X0*%
G04 #@! TD*
G04 #@! TA.AperFunction,SMDPad,CuDef*
%ADD23RoundRect,0.250000X-1.425000X-1.425000X1.425000X-1.425000X1.425000X1.425000X-1.425000X1.425000X0*%
G04 #@! TD*
G04 #@! TA.AperFunction,SMDPad,CuDef*
%ADD24R,1.060000X0.650000*%
G04 #@! TD*
G04 #@! TA.AperFunction,ComponentPad*
%ADD25RoundRect,0.375000X-0.375000X-0.895000X0.375000X-0.895000X0.375000X0.895000X-0.375000X0.895000X0*%
G04 #@! TD*
G04 #@! TA.AperFunction,ComponentPad*
%ADD26O,1.500000X2.540000*%
G04 #@! TD*
G04 #@! TA.AperFunction,SMDPad,CuDef*
%ADD27RoundRect,0.300000X-0.300000X0.300000X-0.300000X-0.300000X0.300000X-0.300000X0.300000X0.300000X0*%
G04 #@! TD*
G04 #@! TA.AperFunction,SMDPad,CuDef*
%ADD28RoundRect,0.147500X-0.172500X0.147500X-0.172500X-0.147500X0.172500X-0.147500X0.172500X0.147500X0*%
G04 #@! TD*
G04 #@! TA.AperFunction,SMDPad,CuDef*
%ADD29RoundRect,0.147500X-0.147500X-0.172500X0.147500X-0.172500X0.147500X0.172500X-0.147500X0.172500X0*%
G04 #@! TD*
G04 #@! TA.AperFunction,ComponentPad*
%ADD30RoundRect,0.375000X-0.895000X0.375000X-0.895000X-0.375000X0.895000X-0.375000X0.895000X0.375000X0*%
G04 #@! TD*
G04 #@! TA.AperFunction,ComponentPad*
%ADD31O,2.540000X1.500000*%
G04 #@! TD*
G04 #@! TA.AperFunction,ComponentPad*
%ADD32RoundRect,0.375000X0.895000X-0.375000X0.895000X0.375000X-0.895000X0.375000X-0.895000X-0.375000X0*%
G04 #@! TD*
G04 #@! TA.AperFunction,ComponentPad*
%ADD33C,2.000000*%
G04 #@! TD*
G04 #@! TA.AperFunction,SMDPad,CuDef*
%ADD34R,1.000000X0.250000*%
G04 #@! TD*
G04 #@! TA.AperFunction,SMDPad,CuDef*
%ADD35R,0.250000X1.000000*%
G04 #@! TD*
G04 #@! TA.AperFunction,SMDPad,CuDef*
%ADD36RoundRect,0.500000X-0.700000X0.500000X-0.700000X-0.500000X0.700000X-0.500000X0.700000X0.500000X0*%
G04 #@! TD*
G04 #@! TA.AperFunction,ViaPad*
%ADD37C,0.800000*%
G04 #@! TD*
G04 #@! TA.AperFunction,ViaPad*
%ADD38C,0.400000*%
G04 #@! TD*
G04 #@! TA.AperFunction,Conductor*
%ADD39C,0.350000*%
G04 #@! TD*
G04 #@! TA.AperFunction,Conductor*
%ADD40C,0.250000*%
G04 #@! TD*
G04 APERTURE END LIST*
D10*
X50069100Y-84274900D03*
X49099100Y-84274900D03*
D11*
X40837100Y-81049100D03*
X42837100Y-81049100D03*
D12*
X47153300Y-87119900D03*
X47153300Y-87919900D03*
X47153300Y-88719900D03*
X47153300Y-89519900D03*
X47153300Y-90319900D03*
D13*
X47053300Y-93169900D03*
X41603300Y-84269900D03*
X41603300Y-93169900D03*
X47053300Y-84269900D03*
D14*
X49596800Y-90487600D03*
X49596800Y-89517600D03*
D15*
X52644900Y-87767400D03*
X51069900Y-87767400D03*
D16*
X58105800Y-85468700D03*
D17*
X55565800Y-85468700D03*
X53025800Y-85468700D03*
D16*
X58105800Y-91945700D03*
D17*
X55565800Y-91945700D03*
X53025800Y-91945700D03*
D10*
X47592600Y-81049100D03*
X46622600Y-81049100D03*
D15*
X52644900Y-89672400D03*
X51069900Y-89672400D03*
D18*
X55732200Y-75968700D03*
X53432200Y-75968700D03*
D19*
X53432200Y-82268700D03*
D18*
X51132200Y-75968700D03*
D20*
X59245500Y-80897700D03*
X59245500Y-75972700D03*
D21*
X65406100Y-78471900D03*
X65406100Y-78971900D03*
X65406100Y-79471900D03*
X65406100Y-79971900D03*
X65406100Y-80471900D03*
X65406100Y-80971900D03*
X65406100Y-81471900D03*
D22*
X66356100Y-82421900D03*
X66856100Y-82421900D03*
X67356100Y-82421900D03*
X67856100Y-82421900D03*
X68356100Y-82421900D03*
X68856100Y-82421900D03*
X69356100Y-82421900D03*
D21*
X70306100Y-81471900D03*
X70306100Y-80971900D03*
X70306100Y-80471900D03*
X70306100Y-79971900D03*
X70306100Y-79471900D03*
X70306100Y-78971900D03*
X70306100Y-78471900D03*
D22*
X69356100Y-77521900D03*
X68856100Y-77521900D03*
X68356100Y-77521900D03*
X67856100Y-77521900D03*
X67356100Y-77521900D03*
X66856100Y-77521900D03*
X66356100Y-77521900D03*
D23*
X67856100Y-79971900D03*
D24*
X54415000Y-87769900D03*
X54415000Y-88719900D03*
X54415000Y-89669900D03*
X56615000Y-89669900D03*
X56615000Y-88719900D03*
X56615000Y-87769900D03*
D25*
X40640000Y-76200000D03*
D26*
X43180000Y-76200000D03*
X45720000Y-76200000D03*
X48260000Y-76200000D03*
D10*
X47591840Y-79054960D03*
X46621840Y-79054960D03*
D27*
X72405240Y-76175360D03*
X72405240Y-78175360D03*
D28*
X82550000Y-103350200D03*
X82550000Y-104320200D03*
X83271360Y-89126200D03*
X83271360Y-90096200D03*
X63030100Y-89367500D03*
X63030100Y-90337500D03*
X80010000Y-103350200D03*
X80010000Y-104320200D03*
D29*
X71849120Y-85989160D03*
X72819120Y-85989160D03*
D14*
X63030100Y-93355020D03*
X63030100Y-92385020D03*
D28*
X77470000Y-103350200D03*
X77470000Y-104320200D03*
D14*
X72689720Y-101952920D03*
X72689720Y-100982920D03*
D28*
X74930000Y-103350200D03*
X74930000Y-104320200D03*
D14*
X68590160Y-95750240D03*
X68590160Y-94780240D03*
X68910200Y-89750760D03*
X68910200Y-88780760D03*
D10*
X80784560Y-100553520D03*
X79814560Y-100553520D03*
D14*
X61706760Y-78808440D03*
X61706760Y-77838440D03*
X62788800Y-78805900D03*
X62788800Y-77835900D03*
D11*
X59269120Y-100441760D03*
X61269120Y-100441760D03*
X59269120Y-102148640D03*
X61269120Y-102148640D03*
X59269120Y-103855520D03*
X61269120Y-103855520D03*
D25*
X40640000Y-106680000D03*
D26*
X43180000Y-106680000D03*
X45720000Y-106680000D03*
X48260000Y-106680000D03*
X50800000Y-106680000D03*
X53340000Y-106680000D03*
X55880000Y-106680000D03*
X58420000Y-106680000D03*
D30*
X95250000Y-76200000D03*
D31*
X95250000Y-78740000D03*
X95250000Y-81280000D03*
X95250000Y-83820000D03*
X95250000Y-86360000D03*
X95250000Y-88900000D03*
X95250000Y-91440000D03*
X95250000Y-93980000D03*
D25*
X73660000Y-106680000D03*
D26*
X76200000Y-106680000D03*
X78740000Y-106680000D03*
X81280000Y-106680000D03*
X83820000Y-106680000D03*
D25*
X60960000Y-106680000D03*
D26*
X63500000Y-106680000D03*
X66040000Y-106680000D03*
X68580000Y-106680000D03*
X71120000Y-106680000D03*
D32*
X95250000Y-106680000D03*
D31*
X95250000Y-104140000D03*
X95250000Y-101600000D03*
X95250000Y-99060000D03*
X95250000Y-96520000D03*
D25*
X79692500Y-84366100D03*
D26*
X82232500Y-84366100D03*
X84772500Y-84366100D03*
X87312500Y-84366100D03*
D25*
X74930000Y-76200000D03*
D26*
X77470000Y-76200000D03*
X80010000Y-76200000D03*
D25*
X86360000Y-106680000D03*
D26*
X88900000Y-106680000D03*
X91440000Y-106680000D03*
D25*
X83820000Y-76200000D03*
D26*
X86360000Y-76200000D03*
X88900000Y-76200000D03*
D28*
X73647300Y-103350200D03*
X73647300Y-104320200D03*
X76200000Y-103350200D03*
X76200000Y-104320200D03*
X78740000Y-103350200D03*
X78740000Y-104320200D03*
X81280000Y-103350200D03*
X81280000Y-104320200D03*
D14*
X73964800Y-86225240D03*
X73964800Y-85255240D03*
X72405240Y-80586440D03*
X72405240Y-79616440D03*
D10*
X63985000Y-100439220D03*
X63015000Y-100439220D03*
X63985000Y-102148640D03*
X63015000Y-102148640D03*
X63985000Y-103858060D03*
X63015000Y-103858060D03*
D29*
X66355100Y-84086700D03*
X67325100Y-84086700D03*
D33*
X40967520Y-101285040D03*
X47467520Y-101285040D03*
X40967520Y-96785040D03*
X47467520Y-96785040D03*
X57068720Y-101285040D03*
X50568720Y-101285040D03*
X50568720Y-96785040D03*
X57068720Y-96785040D03*
D34*
X70246000Y-89750000D03*
X70246000Y-90250000D03*
X70246000Y-90750000D03*
X70246000Y-91250000D03*
X70246000Y-91750000D03*
X70246000Y-92250000D03*
X70246000Y-92750000D03*
X70246000Y-93250000D03*
X70246000Y-93750000D03*
X70246000Y-94250000D03*
X70246000Y-94750000D03*
X70246000Y-95250000D03*
X70246000Y-95750000D03*
X70246000Y-96250000D03*
X70246000Y-96750000D03*
X70246000Y-97250000D03*
D35*
X72196000Y-99200000D03*
X72696000Y-99200000D03*
X73196000Y-99200000D03*
X73696000Y-99200000D03*
X74196000Y-99200000D03*
X74696000Y-99200000D03*
X75196000Y-99200000D03*
X75696000Y-99200000D03*
X76196000Y-99200000D03*
X76696000Y-99200000D03*
X77196000Y-99200000D03*
X77696000Y-99200000D03*
X78196000Y-99200000D03*
X78696000Y-99200000D03*
X79196000Y-99200000D03*
X79696000Y-99200000D03*
D34*
X81646000Y-97250000D03*
X81646000Y-96750000D03*
X81646000Y-96250000D03*
X81646000Y-95750000D03*
X81646000Y-95250000D03*
X81646000Y-94750000D03*
X81646000Y-94250000D03*
X81646000Y-93750000D03*
X81646000Y-93250000D03*
X81646000Y-92750000D03*
X81646000Y-92250000D03*
X81646000Y-91750000D03*
X81646000Y-91250000D03*
X81646000Y-90750000D03*
X81646000Y-90250000D03*
X81646000Y-89750000D03*
D35*
X79696000Y-87800000D03*
X79196000Y-87800000D03*
X78696000Y-87800000D03*
X78196000Y-87800000D03*
X77696000Y-87800000D03*
X77196000Y-87800000D03*
X76696000Y-87800000D03*
X76196000Y-87800000D03*
X75696000Y-87800000D03*
X75196000Y-87800000D03*
X74696000Y-87800000D03*
X74196000Y-87800000D03*
X73696000Y-87800000D03*
X73196000Y-87800000D03*
X72696000Y-87800000D03*
X72196000Y-87800000D03*
D36*
X65217040Y-89356180D03*
X65217040Y-93356180D03*
D37*
X50069100Y-81049100D03*
D38*
X83693000Y-92750640D03*
X65072260Y-84086700D03*
D37*
X44409360Y-84269900D03*
X75946000Y-93502480D03*
X55740300Y-77787500D03*
D38*
X63025024Y-91358720D03*
X88706960Y-90225880D03*
D37*
X79196000Y-96725740D03*
X48809400Y-93169900D03*
X80162400Y-93573600D03*
X67482720Y-95750380D03*
X53432200Y-79956660D03*
X71749920Y-101955600D03*
X83271360Y-88005920D03*
X80162400Y-97805240D03*
D38*
X68859400Y-92979240D03*
X72847200Y-94754700D03*
X72364600Y-94246700D03*
X72834500Y-93751400D03*
X72313800Y-93243400D03*
X75194160Y-97454718D03*
X74696320Y-97754436D03*
X74193400Y-97449640D03*
X73686401Y-97750276D03*
X84640420Y-87294722D03*
X63881000Y-80467200D03*
X83687920Y-91749880D03*
X83012280Y-91246960D03*
X63322200Y-79870300D03*
X68356480Y-76311760D03*
X78694280Y-88905080D03*
X78192381Y-89380090D03*
X66852800Y-76311760D03*
X72405240Y-81635600D03*
X63804800Y-78516480D03*
D39*
X47592600Y-81049100D02*
X50069100Y-81049100D01*
X50069100Y-81049100D02*
X50069100Y-84274900D01*
D40*
X65051669Y-81491114D02*
X64956475Y-81514959D01*
X64282934Y-83054503D02*
X64298736Y-83111604D01*
X55368553Y-86974046D02*
X55332196Y-86941094D01*
D39*
X50013967Y-86332463D02*
X50026761Y-86299296D01*
X48003438Y-78511047D02*
X48051387Y-78415788D01*
D40*
X55522839Y-88119771D02*
X55528916Y-88154796D01*
X55206341Y-86865660D02*
X55160142Y-86849129D01*
X56171400Y-88719900D02*
X56615000Y-88719900D01*
D39*
X49999561Y-86364962D02*
X50013967Y-86332463D01*
D40*
X65072260Y-84086700D02*
X66355100Y-84086700D01*
X55570131Y-88290663D02*
X55584537Y-88323162D01*
X64251575Y-82373882D02*
X64246760Y-82471900D01*
D39*
X48094605Y-78318291D02*
X48132986Y-78218791D01*
X49463968Y-86955498D02*
X49435943Y-86977369D01*
D40*
X55250698Y-86886639D02*
X55206341Y-86865660D01*
X55836083Y-88618182D02*
X55861111Y-88634031D01*
D39*
X49983578Y-86396714D02*
X49999561Y-86364962D01*
D40*
X55744623Y-88543123D02*
X55727132Y-88525632D01*
D39*
X50055182Y-86196596D02*
X50061260Y-86161571D01*
D40*
X64600313Y-83614753D02*
X65072260Y-84086700D01*
X56112241Y-88716993D02*
X56141785Y-88719172D01*
X55515000Y-88013500D02*
X55515000Y-87327600D01*
X56024748Y-88701812D02*
X56053652Y-88708302D01*
X83693000Y-92750640D02*
X81646640Y-92750640D01*
X55766078Y-88563549D02*
X55788509Y-88582899D01*
X64956475Y-81514959D02*
X64864076Y-81548020D01*
D39*
X50065611Y-86126290D02*
X50068226Y-86090837D01*
X50037912Y-86265542D02*
X50047393Y-86231281D01*
X49040037Y-87119026D02*
X49004500Y-87119900D01*
X50026761Y-86299296D02*
X50037912Y-86265542D01*
X50069100Y-86055300D02*
X50069100Y-84274900D01*
D40*
X55476939Y-87136258D02*
X55455960Y-87091901D01*
D39*
X48166439Y-78117528D02*
X48194883Y-78014745D01*
X49004500Y-87119900D02*
X47153300Y-87119900D01*
D40*
X64539653Y-81764793D02*
X64473749Y-81837506D01*
X64322880Y-82089216D02*
X64289819Y-82181615D01*
D39*
X49110771Y-87112060D02*
X49075490Y-87116411D01*
D40*
X55679400Y-88472968D02*
X55702619Y-88499885D01*
D39*
X49214742Y-87088712D02*
X49180481Y-87098193D01*
D40*
X64775363Y-81589978D02*
X64691189Y-81640430D01*
D39*
X49881478Y-86541684D02*
X49904698Y-86514767D01*
X49904698Y-86514767D02*
X49926569Y-86486742D01*
X47592600Y-81049100D02*
X47592600Y-79055720D01*
D40*
X64259824Y-82938319D02*
X64269953Y-82996694D01*
X64450193Y-83431832D02*
X64484308Y-83480272D01*
X55064008Y-86830007D02*
X55015000Y-86827600D01*
X55515000Y-87327600D02*
X55512592Y-87278591D01*
X55505392Y-87230054D02*
X55493470Y-87182457D01*
D39*
X47950872Y-78603838D02*
X48003438Y-78511047D01*
D40*
X55112545Y-86837207D02*
X55064008Y-86830007D01*
X55637060Y-88415879D02*
X55657529Y-88444943D01*
X55528916Y-88154796D02*
X55536705Y-88189481D01*
X64289819Y-82181615D02*
X64265974Y-82276809D01*
X64338644Y-83223139D02*
X64362654Y-83277304D01*
X66356100Y-82421900D02*
X66356100Y-84085700D01*
D39*
X49248497Y-87077561D02*
X49214742Y-87088712D01*
D40*
X55744623Y-88543123D02*
X55766078Y-88563549D01*
D39*
X49926569Y-86486742D02*
X49947038Y-86457678D01*
D40*
X55160142Y-86849129D02*
X55112545Y-86837207D01*
D39*
X48132986Y-78218791D02*
X48166439Y-78117528D01*
D40*
X55536705Y-88189481D02*
X55546186Y-88223742D01*
D39*
X49075490Y-87116411D02*
X49040037Y-87119026D01*
D40*
X55996197Y-88693910D02*
X56024748Y-88701812D01*
D39*
X49145796Y-87105982D02*
X49110771Y-87112060D01*
D40*
X55886886Y-88648632D02*
X55913347Y-88661952D01*
X64520759Y-83526980D02*
X64559458Y-83571843D01*
D39*
X49516632Y-86907767D02*
X49490885Y-86932279D01*
X49376846Y-87016857D02*
X49345915Y-87034378D01*
D40*
X55512592Y-87278591D02*
X55505392Y-87230054D01*
D39*
X49180481Y-87098193D02*
X49145796Y-87105982D01*
D40*
X64415290Y-81916329D02*
X64364838Y-82000503D01*
X55015000Y-86827600D02*
X49596800Y-86827600D01*
D39*
X50068226Y-86090837D02*
X50069100Y-86055300D01*
X45720000Y-76200000D02*
X48260000Y-76200000D01*
D40*
X64269953Y-82996694D02*
X64282934Y-83054503D01*
X56082840Y-88713367D02*
X56112241Y-88716993D01*
X55493470Y-87182457D02*
X55476939Y-87136258D01*
X55546186Y-88223742D02*
X55557337Y-88257497D01*
X55401505Y-87010403D02*
X55368553Y-86974046D01*
X55968068Y-88684618D02*
X55996197Y-88693910D01*
D39*
X49856967Y-86567431D02*
X49516632Y-86907767D01*
D40*
X64691189Y-81640430D02*
X64612366Y-81698889D01*
D39*
X48249536Y-77699770D02*
X48257382Y-77593413D01*
D40*
X64362654Y-83277304D02*
X64389292Y-83330226D01*
D39*
X47697139Y-78945957D02*
X47766797Y-78865204D01*
X48236482Y-77805614D02*
X48249536Y-77699770D01*
D40*
X64364838Y-82000503D02*
X64322880Y-82089216D01*
X55657529Y-88444943D02*
X55679400Y-88472968D01*
X64248213Y-82820429D02*
X64252571Y-82879517D01*
X65246760Y-81471900D02*
X65148742Y-81476715D01*
D39*
X49345915Y-87034378D02*
X49314162Y-87050362D01*
D40*
X64246760Y-82761200D02*
X64248213Y-82820429D01*
D39*
X43180000Y-76200000D02*
X45720000Y-76200000D01*
D40*
X55702619Y-88499885D02*
X55727132Y-88525632D01*
D39*
X49856967Y-86567431D02*
X49881478Y-86541684D01*
D40*
X55455960Y-87091901D02*
X55430734Y-87049814D01*
X64473749Y-81837506D02*
X64415290Y-81916329D01*
D39*
X47766797Y-78865204D02*
X47832409Y-78781130D01*
D40*
X64265974Y-82276809D02*
X64251575Y-82373882D01*
X55518487Y-88084490D02*
X55522839Y-88119771D01*
D39*
X48194883Y-78014745D02*
X48218249Y-77910690D01*
X49490885Y-86932279D02*
X49463968Y-86955498D01*
X49406879Y-86997838D02*
X49376846Y-87016857D01*
X47832409Y-78781130D02*
X47893817Y-78693938D01*
D40*
X64864076Y-81548020D02*
X64775363Y-81589978D01*
D39*
X49314162Y-87050362D02*
X49281663Y-87064767D01*
D40*
X64484308Y-83480272D02*
X64520759Y-83526980D01*
X56053652Y-88708302D02*
X56082840Y-88713367D01*
X55584537Y-88323162D02*
X55600520Y-88354915D01*
X55811863Y-88601124D02*
X55836083Y-88618182D01*
X55600520Y-88354915D02*
X55618042Y-88385846D01*
X64246760Y-82761200D02*
X64246760Y-82471900D01*
X64389292Y-83330226D02*
X64418495Y-83381776D01*
D39*
X50061260Y-86161571D02*
X50065611Y-86126290D01*
X51132200Y-75968700D02*
X48491300Y-75968700D01*
D40*
X55332196Y-86941094D02*
X55292785Y-86911865D01*
X55515872Y-88049037D02*
X55518487Y-88084490D01*
D39*
X49281663Y-87064767D02*
X49248497Y-87077561D01*
D40*
X64252571Y-82879517D02*
X64259824Y-82938319D01*
D39*
X48260000Y-77486800D02*
X48260000Y-76200000D01*
D40*
X49596800Y-86827600D02*
X49304500Y-87119900D01*
D39*
X49435943Y-86977369D02*
X49406879Y-86997838D01*
X48051387Y-78415788D02*
X48094605Y-78318291D01*
D40*
X64559458Y-83571843D02*
X64600313Y-83614753D01*
X56141785Y-88719172D02*
X56171400Y-88719900D01*
X55940429Y-88673957D02*
X55968068Y-88684618D01*
D39*
X40640000Y-76200000D02*
X43180000Y-76200000D01*
D40*
X65148742Y-81476715D02*
X65051669Y-81491114D01*
X55292785Y-86911865D02*
X55250698Y-86886639D01*
D39*
X48218249Y-77910690D02*
X48236482Y-77805614D01*
D40*
X64317321Y-83167862D02*
X64338644Y-83223139D01*
X55861111Y-88634031D02*
X55886886Y-88648632D01*
X55788509Y-88582899D02*
X55811863Y-88601124D01*
X55557337Y-88257497D02*
X55570131Y-88290663D01*
X55515000Y-88013500D02*
X55515872Y-88049037D01*
D39*
X49966056Y-86427645D02*
X49983578Y-86396714D01*
X49947038Y-86457678D02*
X49966056Y-86427645D01*
D40*
X55913347Y-88661952D02*
X55940429Y-88673957D01*
X55618042Y-88385846D02*
X55637060Y-88415879D01*
X64298736Y-83111604D02*
X64317321Y-83167862D01*
X64418495Y-83381776D02*
X64450193Y-83431832D01*
X55430734Y-87049814D02*
X55401505Y-87010403D01*
D39*
X50047393Y-86231281D02*
X50055182Y-86196596D01*
D40*
X64612366Y-81698889D02*
X64539653Y-81764793D01*
D39*
X48257382Y-77593413D02*
X48260000Y-77486800D01*
X47893817Y-78693938D02*
X47950872Y-78603838D01*
X44409360Y-84269900D02*
X47053300Y-84269900D01*
X41603300Y-93169900D02*
X47053300Y-93169900D01*
D40*
X49099100Y-84274900D02*
X47058300Y-84274900D01*
X48644100Y-90319900D02*
X48657000Y-90332800D01*
D39*
X47153300Y-90319900D02*
X48644100Y-90319900D01*
X48657000Y-90332800D02*
X48809400Y-90485200D01*
X49596800Y-90487600D02*
X48811800Y-90487600D01*
D40*
X48811800Y-90487600D02*
X48809400Y-90485200D01*
X40837100Y-81049100D02*
X40837100Y-83503700D01*
X40837100Y-83503700D02*
X41603300Y-84269900D01*
D39*
X41603300Y-93169900D02*
X41603300Y-84269900D01*
D40*
X74933852Y-107787213D02*
X74945371Y-107864872D01*
X64702977Y-79425541D02*
X64724643Y-79435145D01*
D39*
X55880000Y-106680000D02*
X58420000Y-106680000D01*
D40*
X58420000Y-105204640D02*
X58420000Y-106680000D01*
X82762132Y-105102132D02*
X83820000Y-106160000D01*
X75651586Y-108504947D02*
X75730000Y-108508800D01*
X72696000Y-87800000D02*
X72696000Y-90250000D01*
X63554296Y-75448775D02*
X63612104Y-75435793D01*
X82550000Y-104590000D02*
X82550000Y-104320200D01*
X55124615Y-88805420D02*
X55092862Y-88789437D01*
X58511885Y-104742699D02*
X58490562Y-104797977D01*
X64478013Y-79220030D02*
X64490692Y-79240053D01*
X63497195Y-75464577D02*
X63554296Y-75448775D01*
D39*
X71492539Y-89054760D02*
X71537402Y-89093459D01*
D40*
X79496000Y-100553520D02*
X79814560Y-100553520D01*
X71604419Y-75504485D02*
X71658584Y-75528495D01*
X64769257Y-79451108D02*
X64792098Y-79457429D01*
X63765392Y-77851271D02*
X63687733Y-77839752D01*
X80010000Y-104320200D02*
X80010000Y-108508800D01*
X70246000Y-95250000D02*
X72699880Y-95250000D01*
X41723292Y-79391009D02*
X41566119Y-79507577D01*
X69389483Y-95164479D02*
X69421236Y-95180462D01*
X82762132Y-105102132D02*
X82737620Y-105076385D01*
D39*
X71397392Y-88984194D02*
X71445832Y-89018309D01*
D40*
X82169100Y-108508800D02*
X80010000Y-108508800D01*
X83242111Y-108183304D02*
X83319615Y-108128720D01*
D39*
X82814514Y-86698287D02*
X82914625Y-86634892D01*
X71580313Y-89134313D02*
X72696000Y-90250000D01*
X50800000Y-106680000D02*
X55880000Y-106680000D01*
D40*
X75164314Y-108274485D02*
X75222485Y-108327208D01*
X72696000Y-87800000D02*
X72696000Y-86112280D01*
X82635520Y-104931415D02*
X82619537Y-104899662D01*
D39*
X83801541Y-86317549D02*
X83919145Y-86303044D01*
D40*
X55330885Y-90403334D02*
X55370296Y-90374105D01*
D39*
X59245500Y-75972700D02*
X55736200Y-75972700D01*
D40*
X63385659Y-75504485D02*
X63440937Y-75483162D01*
X64423789Y-79089121D02*
X64430110Y-79111961D01*
X58623433Y-104534006D02*
X58591736Y-104584062D01*
X79196000Y-95250000D02*
X79196000Y-90251200D01*
X55541502Y-89322052D02*
X55535012Y-89293148D01*
X50800000Y-106680000D02*
X50800000Y-101516320D01*
X79408914Y-100540602D02*
X79437472Y-100547755D01*
X64409320Y-78971800D02*
X64409900Y-78995491D01*
D39*
X70726760Y-88780760D02*
X70785989Y-88782214D01*
D40*
X72699880Y-95250000D02*
X75946000Y-95250000D01*
X72696000Y-99200000D02*
X72696000Y-100976640D01*
X71658584Y-75528495D02*
X71711505Y-75555133D01*
X71711505Y-75555133D02*
X71763056Y-75584336D01*
X71260797Y-75418412D02*
X71319599Y-75425665D01*
D39*
X83017727Y-86576486D02*
X83123570Y-86523209D01*
D40*
X79283867Y-100465652D02*
X79305682Y-100485423D01*
X55550692Y-90036608D02*
X55553100Y-89987600D01*
X42252272Y-79140820D02*
X42068029Y-79206744D01*
X64466332Y-79199410D02*
X64478013Y-79220030D01*
X75946000Y-95250000D02*
X75946000Y-93502480D01*
X82550872Y-104625537D02*
X82550000Y-104590000D01*
X64603107Y-79362299D02*
X64621790Y-79376879D01*
X55288798Y-90428560D02*
X55330885Y-90403334D01*
X79196000Y-96725740D02*
X79196000Y-95250000D01*
X71319599Y-75425665D02*
X71377974Y-75435794D01*
X71549141Y-75483162D02*
X71604419Y-75504485D01*
X55543492Y-90085145D02*
X55550692Y-90036608D01*
X82819759Y-108395899D02*
X82908203Y-108361782D01*
X73705713Y-85257564D02*
X73729347Y-85255821D01*
X55535012Y-89293148D02*
X55527111Y-89264597D01*
X82737620Y-105076385D02*
X82714400Y-105049467D01*
X69486902Y-95207661D02*
X69520656Y-95218812D01*
X71492884Y-75464577D02*
X71549141Y-75483162D01*
X55406653Y-90341153D02*
X55439605Y-90304796D01*
X71953122Y-75725299D02*
X71996033Y-75766153D01*
X41891134Y-79290408D02*
X41723292Y-79391009D01*
X82571705Y-104765981D02*
X82563916Y-104731296D01*
D39*
X71347336Y-88952496D02*
X71397392Y-88984194D01*
D40*
X41173149Y-79941152D02*
X41072548Y-80108994D01*
X40988884Y-80285889D02*
X40922960Y-80470132D01*
X79218836Y-100368325D02*
X79231423Y-100394939D01*
X55102108Y-90485192D02*
X55150645Y-90477992D01*
X75946000Y-95250000D02*
X79196000Y-95250000D01*
X59269120Y-103855520D02*
X59269120Y-102148640D01*
X71861552Y-75650149D02*
X71908259Y-75686600D01*
X64227728Y-78128385D02*
X64175005Y-78070214D01*
X69589602Y-95236082D02*
X69624628Y-95242160D01*
X64175005Y-78070214D02*
X64116834Y-78017491D01*
D39*
X70785989Y-88782214D02*
X70845077Y-88786572D01*
D40*
X74930000Y-107708800D02*
X74930000Y-104320200D01*
X55060363Y-88775031D02*
X55027197Y-88762237D01*
X55439605Y-90304796D02*
X55468834Y-90265385D01*
X73411618Y-85396661D02*
X73428781Y-85380319D01*
X64504339Y-79259429D02*
X64518919Y-79278112D01*
X63128526Y-75650148D02*
X63176966Y-75616033D01*
X64585162Y-79346819D02*
X64603107Y-79362299D01*
X73504808Y-85323934D02*
X73525429Y-85312253D01*
X62788800Y-77835900D02*
X62788800Y-75972700D01*
X42442089Y-79093274D02*
X42252272Y-79140820D01*
X55027197Y-88762237D02*
X54993442Y-88751086D01*
X55553100Y-89439800D02*
X55553100Y-89987600D01*
X64348423Y-78329753D02*
X64314857Y-78258782D01*
X73635718Y-85269709D02*
X73658841Y-85264517D01*
D39*
X44409360Y-84269900D02*
X41603300Y-84269900D01*
D40*
X82563916Y-104731296D02*
X82557839Y-104696271D01*
X59245500Y-75972700D02*
X62787500Y-75972700D01*
X75285543Y-108373975D02*
X75352882Y-108414337D01*
X82592337Y-104833997D02*
X82581186Y-104800242D01*
X77470000Y-108508800D02*
X80010000Y-108508800D01*
X63986437Y-77930362D02*
X63915466Y-77896796D01*
D39*
X88706960Y-90225880D02*
X84772500Y-86291420D01*
D40*
X73612877Y-85276030D02*
X73635718Y-85269709D01*
X74930000Y-107708800D02*
X74933852Y-107787213D01*
X42831100Y-79054960D02*
X46621840Y-79054960D01*
X58535894Y-104688534D02*
X58511885Y-104742699D01*
X83162022Y-108234020D02*
X83242111Y-108183304D01*
X73682192Y-85260465D02*
X73705713Y-85257564D01*
X64518919Y-79278112D02*
X64534399Y-79296057D01*
X55467231Y-89129511D02*
X55451382Y-89104483D01*
X54993442Y-88751086D02*
X54959181Y-88741605D01*
X82692530Y-105021443D02*
X82672060Y-104992379D01*
X63331494Y-75528494D02*
X63385659Y-75504485D01*
D39*
X71077164Y-88832737D02*
X71133421Y-88851322D01*
D40*
X83394348Y-108070398D02*
X83466128Y-108008479D01*
X82263867Y-108506473D02*
X82358407Y-108499499D01*
X75730000Y-108508800D02*
X77470000Y-108508800D01*
X41289717Y-79783979D02*
X41173149Y-79941152D01*
X58694000Y-104438858D02*
X58657548Y-104485566D01*
X71142480Y-75412600D02*
X71201709Y-75414054D01*
X58562533Y-104635613D02*
X58535894Y-104688534D01*
D39*
X71242864Y-88896655D02*
X71295785Y-88923293D01*
D40*
X73411618Y-85396661D02*
X72819120Y-85989160D01*
D39*
X83231900Y-86475190D02*
X83342455Y-86432544D01*
D40*
X55531570Y-90132742D02*
X55543492Y-90085145D01*
X75064824Y-108153256D02*
X75111591Y-108216314D01*
D39*
X70845077Y-88786572D02*
X70903879Y-88793825D01*
D40*
X73590374Y-85283464D02*
X73612877Y-85276030D01*
X64815221Y-79462621D02*
X64838572Y-79466673D01*
X69218767Y-95037867D02*
X68961140Y-94780240D01*
X69624628Y-95242160D02*
X69659909Y-95246511D01*
D39*
X70726760Y-88780760D02*
X68910200Y-88780760D01*
D40*
X69218767Y-95037867D02*
X69244513Y-95062379D01*
X64567998Y-79330478D02*
X64585162Y-79346819D01*
X55550193Y-89380641D02*
X55546567Y-89351240D01*
X58657548Y-104485566D02*
X58623433Y-104534006D01*
X54889471Y-88727739D02*
X54854190Y-88723387D01*
X63278573Y-75555133D02*
X63331494Y-75528494D01*
X83319615Y-108128720D02*
X83394348Y-108070398D01*
X63915466Y-77896796D02*
X63841547Y-77870347D01*
D39*
X83569173Y-86363770D02*
X83684790Y-86337807D01*
D40*
X64534399Y-79296057D02*
X64550741Y-79313221D01*
D39*
X70903879Y-88793825D02*
X70962254Y-88803954D01*
D40*
X73525429Y-85312253D02*
X73546597Y-85301597D01*
X63609320Y-77835900D02*
X62903100Y-77835900D01*
X79305682Y-100485423D02*
X79329328Y-100502960D01*
X73546597Y-85301597D02*
X73568263Y-85291993D01*
X64724643Y-79435145D02*
X64746754Y-79443674D01*
X58425812Y-105086322D02*
X58421453Y-105145410D01*
X50568720Y-101285040D02*
X57068720Y-101285040D01*
X55495152Y-89181747D02*
X55481833Y-89155286D01*
X58443193Y-104969144D02*
X58433064Y-105027520D01*
X79329328Y-100502960D02*
X79354580Y-100518096D01*
X58433064Y-105027520D02*
X58425812Y-105086322D01*
X64374872Y-78403672D02*
X64348423Y-78329753D01*
X71435782Y-75448775D02*
X71492884Y-75464577D01*
X64909420Y-79471900D02*
X65406100Y-79471900D01*
X75352882Y-108414337D02*
X75423853Y-108447903D01*
X82729747Y-108425635D02*
X82819759Y-108395899D01*
X55155546Y-88822942D02*
X55124615Y-88805420D01*
X55242668Y-88884300D02*
X55214643Y-88862429D01*
X79264096Y-100443837D02*
X79283867Y-100465652D01*
X55451382Y-89104483D02*
X55434325Y-89080263D01*
X69695361Y-95249127D02*
X69730900Y-95250000D01*
X63081818Y-75686600D02*
X63128526Y-75650148D01*
X55468834Y-90265385D02*
X55494060Y-90223298D01*
X47467520Y-101285040D02*
X50568720Y-101285040D01*
D39*
X84037320Y-86294327D02*
X84155780Y-86291420D01*
D40*
X75573927Y-108493428D02*
X75651586Y-108504947D01*
D39*
X71537402Y-89093459D02*
X71580313Y-89134313D01*
D40*
X83534785Y-107943114D02*
X83820000Y-107657900D01*
X58471977Y-104854235D02*
X58456175Y-104911336D01*
X75111591Y-108216314D02*
X75164314Y-108274485D01*
X54959181Y-88741605D02*
X54924496Y-88733816D01*
X63030100Y-90337500D02*
X63030100Y-91353644D01*
X55198242Y-90466070D02*
X55244441Y-90449539D01*
X64792098Y-79457429D02*
X64815221Y-79462621D01*
D39*
X82624218Y-86839420D02*
X82717634Y-86766518D01*
D40*
X73428781Y-85380319D02*
X73446727Y-85364839D01*
X55553100Y-89439800D02*
X55552372Y-89410185D01*
X64414545Y-79042647D02*
X64418596Y-79065997D01*
X63030100Y-91353644D02*
X63025024Y-91358720D01*
X55295332Y-88932032D02*
X55269585Y-88907519D01*
X79197444Y-100282925D02*
X79201764Y-100312047D01*
X64393948Y-78479827D02*
X64374872Y-78403672D01*
X55376323Y-89013023D02*
X55295332Y-88932032D01*
X64437544Y-79134464D02*
X64446073Y-79156575D01*
D39*
X71295785Y-88923293D02*
X71347336Y-88952496D01*
D40*
X64116834Y-78017491D02*
X64053776Y-77970724D01*
X82452490Y-108487895D02*
X82545891Y-108471688D01*
X79196000Y-100253520D02*
X79196000Y-99200000D01*
X79201764Y-100312047D02*
X79208917Y-100340605D01*
D39*
X83454970Y-86395374D02*
X83569173Y-86363770D01*
D40*
X79196000Y-99200000D02*
X79196000Y-96725740D01*
X55517818Y-89236468D02*
X55507157Y-89208829D01*
X55053100Y-90487600D02*
X49596800Y-90487600D01*
X63025024Y-91358720D02*
X63025024Y-92379944D01*
X73658841Y-85264517D02*
X73682192Y-85260465D01*
X73753040Y-85255240D02*
X73964800Y-85255240D01*
X64838572Y-79466673D02*
X64862093Y-79469574D01*
X40967520Y-101285040D02*
X47467520Y-101285040D01*
X55053100Y-90487600D02*
X55102108Y-90485192D01*
X55434325Y-89080263D02*
X55416099Y-89056909D01*
X55416099Y-89056909D02*
X55396750Y-89034477D01*
X79196000Y-90251200D02*
X79197200Y-90250000D01*
D39*
X71133421Y-88851322D02*
X71188699Y-88872645D01*
X48809400Y-90485200D02*
X48809400Y-93169900D01*
D40*
X72696000Y-99200000D02*
X72696000Y-95253880D01*
X64314857Y-78258782D02*
X64274495Y-78191443D01*
X42635653Y-79064561D02*
X42442089Y-79093274D01*
X69328519Y-95127938D02*
X69358553Y-95146957D01*
X64661188Y-79403204D02*
X64681809Y-79414886D01*
X58421453Y-105145410D02*
X58420000Y-105204640D01*
X83079541Y-108280745D02*
X83162022Y-108234020D01*
X82545891Y-108471688D02*
X82638384Y-108450918D01*
X63036955Y-75725299D02*
X63081818Y-75686600D01*
X55185579Y-88841960D02*
X55155546Y-88822942D01*
X55527111Y-89264597D02*
X55517818Y-89236468D01*
X73465410Y-85350259D02*
X73484786Y-85336613D01*
X41566119Y-79507577D02*
X41421129Y-79638989D01*
X69554917Y-95228294D02*
X69589602Y-95236082D01*
X79208917Y-100340605D02*
X79218836Y-100368325D01*
X55552372Y-89410185D02*
X55550193Y-89380641D01*
X73484786Y-85336613D02*
X73504808Y-85323934D01*
X79381194Y-100530683D02*
X79408914Y-100540602D01*
X73729347Y-85255821D02*
X73753040Y-85255240D01*
X79231423Y-100394939D02*
X79246559Y-100420191D01*
D39*
X70962254Y-88803954D02*
X71020062Y-88816935D01*
D40*
X69520656Y-95218812D02*
X69554917Y-95228294D01*
X69730900Y-95250000D02*
X70246000Y-95250000D01*
X64430110Y-79111961D02*
X64437544Y-79134464D01*
D39*
X83684790Y-86337807D02*
X83801541Y-86317549D01*
D40*
X82557839Y-104696271D02*
X82553487Y-104660990D01*
X41421129Y-79638989D02*
X41289717Y-79783979D01*
X69421236Y-95180462D02*
X69453735Y-95194868D01*
X55507157Y-89208829D02*
X55495152Y-89181747D01*
X69453735Y-95194868D02*
X69486902Y-95207661D01*
X58490562Y-104797977D02*
X58471977Y-104854235D01*
D39*
X83123570Y-86523209D02*
X83231900Y-86475190D01*
D40*
X69244513Y-95062379D02*
X69271430Y-95085598D01*
X71813112Y-75616034D02*
X71861552Y-75650149D01*
X61706760Y-77838440D02*
X62786260Y-77838440D01*
X64418596Y-79065997D02*
X64423789Y-79089121D01*
X79354580Y-100518096D02*
X79381194Y-100530683D01*
X64862093Y-79469574D02*
X64885727Y-79471318D01*
X55092862Y-88789437D02*
X55060363Y-88775031D01*
X83466128Y-108008479D02*
X83534785Y-107943114D01*
X74964447Y-107941027D02*
X74990896Y-108014946D01*
X82169100Y-108508800D02*
X82263867Y-108506473D01*
X64405467Y-78557486D02*
X64393948Y-78479827D01*
X58591736Y-104584062D02*
X58562533Y-104635613D01*
X58773553Y-104351086D02*
X59269120Y-103855520D01*
X58773553Y-104351086D02*
X58732699Y-104393995D01*
D39*
X48809400Y-93169900D02*
X47053300Y-93169900D01*
D40*
X64621790Y-79376879D02*
X64641166Y-79390525D01*
X42831100Y-79054960D02*
X42635653Y-79064561D01*
X75222485Y-108327208D02*
X75285543Y-108373975D01*
X63227022Y-75584336D02*
X63278573Y-75555133D01*
X82672060Y-104992379D02*
X82653042Y-104962345D01*
D39*
X71020062Y-88816935D02*
X71077164Y-88832737D01*
D40*
X69299455Y-95107469D02*
X69328519Y-95127938D01*
X63687733Y-77839752D02*
X63609320Y-77835900D01*
X71201709Y-75414054D02*
X71260797Y-75418412D01*
X82605131Y-104867163D02*
X82592337Y-104833997D01*
X58456175Y-104911336D02*
X58443193Y-104969144D01*
X62994046Y-75766153D02*
X63036955Y-75725299D01*
X55546567Y-89351240D02*
X55541502Y-89322052D01*
X72696000Y-95253880D02*
X72699880Y-95250000D01*
X62994046Y-75766153D02*
X62787500Y-75972700D01*
X59269120Y-102148640D02*
X59269120Y-100441760D01*
D39*
X83342455Y-86432544D02*
X83454970Y-86395374D01*
D40*
X71763056Y-75584336D02*
X71813112Y-75616034D01*
X74990896Y-108014946D02*
X75024462Y-108085917D01*
X77470000Y-104320200D02*
X77470000Y-108508800D01*
X79197200Y-90250000D02*
X83117560Y-90250000D01*
X55214643Y-88862429D02*
X55185579Y-88841960D01*
X75423853Y-108447903D02*
X75497772Y-108474352D01*
X82619537Y-104899662D02*
X82605131Y-104867163D01*
X55494060Y-90223298D02*
X55515039Y-90178941D01*
D39*
X84772500Y-86291420D02*
X84772500Y-84366100D01*
D40*
X64409320Y-78635900D02*
X64409320Y-78971800D01*
X82553487Y-104660990D02*
X82550872Y-104625537D01*
X82994867Y-108323367D02*
X83079541Y-108280745D01*
X55481833Y-89155286D02*
X55467231Y-89129511D01*
X64274495Y-78191443D02*
X64227728Y-78128385D01*
X69271430Y-95085598D02*
X69299455Y-95107469D01*
X68961140Y-94780240D02*
X68590160Y-94780240D01*
X79437472Y-100547755D02*
X79466594Y-100552075D01*
X73446727Y-85364839D02*
X73465410Y-85350259D01*
X72696000Y-90250000D02*
X79197200Y-90250000D01*
D39*
X82448673Y-86998526D02*
X79197200Y-90250000D01*
D40*
X79246559Y-100420191D02*
X79264096Y-100443837D01*
X79196000Y-100253520D02*
X79197444Y-100282925D01*
X82358407Y-108499499D02*
X82452490Y-108487895D01*
X55396750Y-89034477D02*
X55376323Y-89013023D01*
X75024462Y-108085917D02*
X75064824Y-108153256D01*
X64490692Y-79240053D02*
X64504339Y-79259429D01*
X55370296Y-90374105D02*
X55406653Y-90341153D01*
X64455677Y-79178241D02*
X64466332Y-79199410D01*
D39*
X82448673Y-86998526D02*
X82534492Y-86916818D01*
X55740300Y-77787500D02*
X55740300Y-75976800D01*
D40*
X63841547Y-77870347D02*
X63765392Y-77851271D01*
X64409900Y-78995491D02*
X64411644Y-79019126D01*
X82638384Y-108450918D02*
X82729747Y-108425635D01*
X63788370Y-75414053D02*
X63847600Y-75412600D01*
X71908259Y-75686600D02*
X71953122Y-75725299D01*
X64681809Y-79414886D02*
X64702977Y-79425541D01*
D39*
X71188699Y-88872645D02*
X71242864Y-88896655D01*
D40*
X64641166Y-79390525D02*
X64661188Y-79403204D01*
X64885727Y-79471318D02*
X64909420Y-79471900D01*
X41072548Y-80108994D02*
X40988884Y-80285889D01*
X55150645Y-90477992D02*
X55198242Y-90466070D01*
X82908203Y-108361782D02*
X82994867Y-108323367D01*
X54924496Y-88733816D02*
X54889471Y-88727739D01*
X64409320Y-78635900D02*
X64405467Y-78557486D01*
X55244441Y-90449539D02*
X55288798Y-90428560D01*
X74945371Y-107864872D02*
X74964447Y-107941027D01*
D39*
X82534492Y-86916818D02*
X82624218Y-86839420D01*
D40*
X63612104Y-75435793D02*
X63670480Y-75425664D01*
X69659909Y-95246511D02*
X69695361Y-95249127D01*
X63729282Y-75418412D02*
X63788370Y-75414053D01*
X64053776Y-77970724D02*
X63986437Y-77930362D01*
D39*
X71445832Y-89018309D02*
X71492539Y-89054760D01*
D40*
X82714400Y-105049467D02*
X82692530Y-105021443D01*
X40922960Y-80470132D02*
X40875414Y-80659949D01*
X64411644Y-79019126D02*
X64414545Y-79042647D01*
D39*
X82914625Y-86634892D02*
X83017727Y-86576486D01*
D40*
X42068029Y-79206744D02*
X41891134Y-79290408D01*
X58732699Y-104393995D02*
X58694000Y-104438858D01*
X71377974Y-75435794D02*
X71435782Y-75448775D01*
X64446073Y-79156575D02*
X64455677Y-79178241D01*
D39*
X82717634Y-86766518D02*
X82814514Y-86698287D01*
D40*
X55515039Y-90178941D02*
X55531570Y-90132742D01*
X54854190Y-88723387D02*
X54818737Y-88720772D01*
X73568263Y-85291993D02*
X73590374Y-85283464D01*
X64746754Y-79443674D02*
X64769257Y-79451108D01*
X79466594Y-100552075D02*
X79496000Y-100553520D01*
X55269585Y-88907519D02*
X55242668Y-88884300D01*
X63670480Y-75425664D02*
X63729282Y-75418412D01*
X69358553Y-95146957D02*
X69389483Y-95164479D01*
X82653042Y-104962345D02*
X82635520Y-104931415D01*
X75497772Y-108474352D02*
X75573927Y-108493428D01*
X63440937Y-75483162D02*
X63497195Y-75464577D01*
D39*
X83919145Y-86303044D02*
X84037320Y-86294327D01*
D40*
X64567998Y-79330478D02*
X64550741Y-79313221D01*
D39*
X84155780Y-86291420D02*
X84772500Y-86291420D01*
D40*
X63176966Y-75616033D02*
X63227022Y-75584336D01*
X71142480Y-75412600D02*
X63847600Y-75412600D01*
X82581186Y-104800242D02*
X82571705Y-104765981D01*
X47467520Y-96785040D02*
X48826420Y-98148140D01*
X48826420Y-98148140D02*
X48973740Y-98275140D01*
X48973740Y-98275140D02*
X49113440Y-98369120D01*
X49113440Y-98369120D02*
X49298860Y-98458020D01*
X49298860Y-98458020D02*
X49476660Y-98513900D01*
X49476660Y-98513900D02*
X49646840Y-98544380D01*
X49646840Y-98544380D02*
X49799240Y-98552000D01*
X69128640Y-96481900D02*
X69237860Y-96393000D01*
X69237860Y-96393000D02*
X69339460Y-96334580D01*
X69339460Y-96334580D02*
X69469000Y-96283780D01*
X69469000Y-96283780D02*
X69565520Y-96260920D01*
X69565520Y-96260920D02*
X69697600Y-96250760D01*
X69697600Y-96250760D02*
X70246000Y-96250000D01*
X68329160Y-97174212D02*
X68600065Y-96962795D01*
X65524409Y-98417473D02*
X65859697Y-98342181D01*
X65185832Y-98476221D02*
X65524409Y-98417473D01*
X40967520Y-96785040D02*
X47467520Y-96785040D01*
X64844779Y-98518286D02*
X65185832Y-98476221D01*
X64158540Y-98552000D02*
X64502073Y-98543566D01*
X69109149Y-96501390D02*
X69128640Y-96481900D01*
X64158540Y-98552000D02*
X49799240Y-98552000D01*
X66837790Y-98019063D02*
X67151946Y-97879807D01*
X68860270Y-96738341D02*
X69109149Y-96501390D01*
X66190886Y-98250529D02*
X66517179Y-98142736D01*
X66517179Y-98142736D02*
X66837790Y-98019063D01*
X67458891Y-97725304D02*
X67757885Y-97555926D01*
X68600065Y-96962795D02*
X68860270Y-96738341D01*
X67151946Y-97879807D02*
X67458891Y-97725304D01*
X68048208Y-97372081D02*
X68329160Y-97174212D01*
X64502073Y-98543566D02*
X64844779Y-98518286D01*
X65859697Y-98342181D02*
X66190886Y-98250529D01*
X67757885Y-97555926D02*
X68048208Y-97372081D01*
X81133553Y-102622746D02*
X81166505Y-102659103D01*
X79457409Y-102434549D02*
X79562484Y-102452782D01*
X78344903Y-101839903D02*
X78422141Y-101913439D01*
X80829008Y-102478707D02*
X80877545Y-102485907D01*
X77196000Y-99791000D02*
X77196000Y-99200000D01*
X81241939Y-102784958D02*
X81258470Y-102831157D01*
X77623589Y-101085330D02*
X77689201Y-101169404D01*
X80780000Y-102476300D02*
X80829008Y-102478707D01*
X80877545Y-102485907D02*
X80925142Y-102497829D01*
X81195734Y-102698514D02*
X81220960Y-102740601D01*
X81015698Y-102535339D02*
X81057785Y-102560565D01*
X81258470Y-102831157D02*
X81270392Y-102878754D01*
X77289559Y-100421728D02*
X77323012Y-100522991D01*
X79562484Y-102452782D02*
X79668328Y-102465836D01*
X81097196Y-102589794D02*
X81133553Y-102622746D01*
X82550000Y-103350200D02*
X81280000Y-103350200D01*
X77452560Y-100815247D02*
X77505126Y-100908038D01*
X77206462Y-100003970D02*
X77219517Y-100109814D01*
X79049807Y-102310905D02*
X79149307Y-102349286D01*
X81057785Y-102560565D02*
X81097196Y-102589794D01*
X80925142Y-102497829D02*
X80971341Y-102514360D01*
X77689201Y-101169404D02*
X77758859Y-101250157D01*
X77505126Y-100908038D02*
X77562181Y-100998138D01*
X79668328Y-102465836D02*
X79774686Y-102473682D01*
X77562181Y-100998138D02*
X77623589Y-101085330D01*
X81277592Y-102927291D02*
X81280000Y-102976300D01*
X79774686Y-102473682D02*
X79881300Y-102476300D01*
X79353354Y-102411183D02*
X79457409Y-102434549D01*
X78952311Y-102267688D02*
X79049807Y-102310905D01*
X77198617Y-99897613D02*
X77206462Y-100003970D01*
X80971341Y-102514360D02*
X81015698Y-102535339D01*
X78344903Y-101839903D02*
X77832396Y-101327396D01*
X78422141Y-101913439D02*
X78502894Y-101983098D01*
X77361393Y-100622491D02*
X77404611Y-100719988D01*
X78857052Y-102219738D02*
X78952311Y-102267688D01*
X77237749Y-100214890D02*
X77261115Y-100318945D01*
X77323012Y-100522991D02*
X77361393Y-100622491D01*
X78502894Y-101983098D02*
X78586968Y-102048710D01*
X77219517Y-100109814D02*
X77237749Y-100214890D01*
X79250571Y-102382739D02*
X79353354Y-102411183D01*
X78586968Y-102048710D02*
X78674160Y-102110117D01*
X77404611Y-100719988D02*
X77452560Y-100815247D01*
X77261115Y-100318945D02*
X77289559Y-100421728D01*
X81166505Y-102659103D02*
X81195734Y-102698514D01*
X79149307Y-102349286D02*
X79250571Y-102382739D01*
X78764260Y-102167173D02*
X78857052Y-102219738D01*
X81270392Y-102878754D02*
X81277592Y-102927291D01*
X78674160Y-102110117D02*
X78764260Y-102167173D01*
X77196000Y-99791000D02*
X77198617Y-99897613D01*
X77758859Y-101250157D02*
X77832396Y-101327396D01*
X79881300Y-102476300D02*
X80780000Y-102476300D01*
X81220960Y-102740601D02*
X81241939Y-102784958D01*
X81280000Y-102976300D02*
X81280000Y-103350200D01*
X73837800Y-101348160D02*
X73837800Y-101452920D01*
D39*
X82018588Y-100389118D02*
X82045506Y-100365899D01*
D40*
X73383620Y-100392745D02*
X73360400Y-100365827D01*
D39*
X80914736Y-98497702D02*
X80882983Y-98481719D01*
X61064634Y-84920980D02*
X61071887Y-84979782D01*
D40*
X80153171Y-99203370D02*
X80221123Y-99213450D01*
D39*
X81487870Y-98570727D02*
X81452417Y-98568112D01*
X82361332Y-99930362D02*
X82370813Y-99896101D01*
X60905962Y-84477522D02*
X60935165Y-84529073D01*
D40*
X71872310Y-86584641D02*
X71865989Y-86561801D01*
X73799739Y-101644261D02*
X73778760Y-101688618D01*
D39*
X61076245Y-85038870D02*
X61077700Y-85098100D01*
X81931466Y-100450477D02*
X81961499Y-100431458D01*
D40*
X71853844Y-86491806D02*
X71852101Y-86468171D01*
X73217705Y-100082341D02*
X73209916Y-100047656D01*
D39*
X59245500Y-80897700D02*
X53553200Y-80897700D01*
D40*
X73767237Y-100941497D02*
X73745914Y-100886219D01*
D39*
X60961804Y-84581994D02*
X60985814Y-84636159D01*
X68040967Y-89348305D02*
X68052889Y-89395902D01*
D40*
X82246000Y-89126200D02*
X82187189Y-89129089D01*
D39*
X82378602Y-99861416D02*
X82384680Y-99826391D01*
D40*
X73525100Y-100537515D02*
X73484246Y-100494606D01*
X73337800Y-101952920D02*
X72689720Y-101952920D01*
X73281520Y-100247775D02*
X73265537Y-100216022D01*
X81782193Y-89345564D02*
X81747118Y-89392857D01*
D39*
X61071887Y-84979782D02*
X61076245Y-85038870D01*
X59599053Y-83119453D02*
X60724146Y-84244546D01*
X61087330Y-93946414D02*
X61116129Y-94140560D01*
D40*
X73435345Y-101943312D02*
X73386808Y-101950512D01*
D39*
X82350181Y-99964116D02*
X82361332Y-99930362D01*
D40*
X71897877Y-86650921D02*
X71888273Y-86629255D01*
X80666588Y-99511100D02*
X80701904Y-99570022D01*
X80414537Y-99282655D02*
X80473459Y-99317971D01*
D39*
X68033767Y-89299768D02*
X68040967Y-89348305D01*
X81868782Y-100483982D02*
X81900535Y-100467999D01*
D40*
X82128945Y-89137728D02*
X82071829Y-89152035D01*
D39*
X81769362Y-100522332D02*
X81803117Y-100511181D01*
X82306999Y-99201463D02*
X82289477Y-99170532D01*
X81903265Y-98754859D02*
X81876348Y-98731640D01*
D40*
X80084560Y-99200000D02*
X79696000Y-99200000D01*
D39*
X82389032Y-99471889D02*
X82384680Y-99436608D01*
X61663486Y-95164593D02*
X61808913Y-95296400D01*
X81803117Y-100511181D02*
X81836283Y-100498388D01*
X81929012Y-98779372D02*
X82180387Y-99030747D01*
X80822019Y-98445179D02*
X80792955Y-98424709D01*
X62687519Y-95711950D02*
X62881665Y-95740749D01*
X82378603Y-99401582D02*
X82370814Y-99366897D01*
X67482860Y-95750240D02*
X67482720Y-95750380D01*
X81848323Y-98709769D02*
X81819259Y-98689300D01*
X68031360Y-89250760D02*
X68031360Y-85989160D01*
X82204899Y-99056492D02*
X82180387Y-99030747D01*
X59316062Y-82672561D02*
X59337385Y-82727839D01*
X83271360Y-88005920D02*
X83271360Y-89126200D01*
D40*
X80784560Y-99900000D02*
X80784560Y-100553520D01*
X73209916Y-100047656D02*
X73203839Y-100012631D01*
X71865989Y-86561801D02*
X71860797Y-86538677D01*
X71851520Y-86444480D02*
X71851520Y-85991560D01*
X80352438Y-99253284D02*
X80414537Y-99282655D01*
D39*
X81665391Y-100545680D02*
X81700416Y-100539603D01*
D40*
X73196872Y-99941897D02*
X73196000Y-99906360D01*
D39*
X59297477Y-82616304D02*
X59316062Y-82672561D01*
X82337388Y-99265715D02*
X82322982Y-99233216D01*
D40*
X73721904Y-100832054D02*
X73695266Y-100779133D01*
X80528635Y-99358892D02*
X80579534Y-99405025D01*
D39*
X71849120Y-85989160D02*
X70068440Y-85989160D01*
D40*
X71860797Y-86538677D02*
X71856745Y-86515327D01*
D39*
X60985814Y-84636159D02*
X61007137Y-84691437D01*
X81836283Y-100498388D02*
X81868782Y-100483982D01*
X59258565Y-82443019D02*
X59268694Y-82501394D01*
X68115625Y-89528545D02*
X68144854Y-89567956D01*
X59245500Y-80897700D02*
X59245500Y-82265900D01*
X63077700Y-95750380D02*
X67482720Y-95750380D01*
D40*
X73265537Y-100216022D02*
X73251131Y-100183523D01*
X73801624Y-101054856D02*
X73785822Y-100997755D01*
X81648889Y-89667389D02*
X81646000Y-89726200D01*
X72138986Y-86961349D02*
X72149641Y-86982517D01*
X71852101Y-86468171D02*
X71851520Y-86444480D01*
D39*
X81990563Y-100410989D02*
X82018588Y-100389118D01*
D40*
X81963161Y-89197047D02*
X81912657Y-89227318D01*
D39*
X61531679Y-95019166D02*
X61663486Y-95164593D01*
X60935165Y-84529073D02*
X60961804Y-84581994D01*
X59245500Y-82265900D02*
X59246954Y-82325129D01*
X42180000Y-106680000D02*
X40640000Y-106680000D01*
X59483049Y-82984972D02*
X59519500Y-83031679D01*
X44720000Y-106680000D02*
X43180000Y-106680000D01*
X61313857Y-94693173D02*
X61414760Y-94861520D01*
D40*
X81671835Y-89552029D02*
X81657528Y-89609145D01*
D39*
X81224400Y-98567240D02*
X81188861Y-98566367D01*
D40*
X71879744Y-86607144D02*
X71872310Y-86584641D01*
D39*
X82270458Y-100122498D02*
X82289476Y-100092465D01*
X80980402Y-98524902D02*
X80947235Y-98512108D01*
D40*
X71908533Y-86672090D02*
X71897877Y-86650921D01*
X80473459Y-99317971D02*
X80528635Y-99358892D01*
D39*
X82204898Y-100206504D02*
X82228118Y-100179587D01*
X82337387Y-99997283D02*
X82350181Y-99964116D01*
D40*
X72100979Y-86901330D02*
X72114625Y-86920706D01*
D39*
X59337385Y-82727839D02*
X59361395Y-82782004D01*
X81452417Y-98568112D02*
X81416880Y-98567240D01*
X81700416Y-100539603D02*
X81735101Y-100531814D01*
X68214163Y-89637265D02*
X68253574Y-89666494D01*
X82228119Y-99083410D02*
X82204899Y-99056492D01*
X61041524Y-84804796D02*
X61054505Y-84862604D01*
D40*
X81912657Y-89227318D02*
X81865364Y-89262393D01*
D39*
X82249989Y-99111435D02*
X82228119Y-99083410D01*
D40*
X72190773Y-87118112D02*
X72193674Y-87141633D01*
D39*
X53432200Y-75968700D02*
X53432200Y-82268700D01*
X68854320Y-85989160D02*
X70068440Y-85989160D01*
D40*
X80731275Y-99632121D02*
X80754418Y-99696800D01*
D39*
X80712267Y-98355107D02*
X80162400Y-97805240D01*
X81594657Y-100552647D02*
X81630110Y-100550032D01*
D40*
X73634365Y-100677526D02*
X73600250Y-100629086D01*
X73529141Y-101914859D02*
X73482942Y-101931390D01*
D39*
X68090399Y-89486458D02*
X68115625Y-89528545D01*
D40*
X81747118Y-89392857D02*
X81716847Y-89443361D01*
D39*
X60764999Y-84287456D02*
X60803698Y-84332319D01*
D40*
X70068440Y-85989160D02*
X68031360Y-85989160D01*
D39*
X81627122Y-98598426D02*
X81592861Y-98588945D01*
X82350182Y-99298882D02*
X82337388Y-99265715D01*
X62134906Y-95514222D02*
X62312333Y-95598139D01*
D40*
X82246000Y-89126200D02*
X83271360Y-89126200D01*
X73573498Y-101893880D02*
X73529141Y-101914859D01*
X73695266Y-100779133D02*
X73666063Y-100727582D01*
X73251131Y-100183523D02*
X73238337Y-100150357D01*
X73753534Y-101730705D02*
X73724305Y-101770116D01*
X73837800Y-101452920D02*
X73835392Y-101501928D01*
D39*
X68295661Y-89691720D02*
X68340018Y-89712699D01*
D40*
X72054578Y-86847538D02*
X72070919Y-86864702D01*
D39*
X82322981Y-100029782D02*
X82337387Y-99997283D01*
D40*
X73837800Y-101348160D02*
X73836345Y-101288930D01*
D39*
X80852052Y-98464197D02*
X80822019Y-98445179D01*
X82384680Y-99436608D02*
X82378603Y-99401582D01*
X81819259Y-98689300D02*
X81789226Y-98670282D01*
D40*
X73691353Y-101806473D02*
X73654996Y-101839425D01*
D39*
X80162400Y-97805240D02*
X80162400Y-93573600D01*
X80764930Y-98402839D02*
X80738012Y-98379619D01*
D40*
X70246000Y-95750000D02*
X68590400Y-95750000D01*
D39*
X59251312Y-82384217D02*
X59258565Y-82443019D01*
X81735101Y-100531814D02*
X81769362Y-100522332D01*
D40*
X80084560Y-99200000D02*
X80153171Y-99203370D01*
D39*
X81558176Y-98581156D02*
X81523151Y-98575079D01*
X60874265Y-84427466D02*
X60905962Y-84477522D01*
D40*
X73408132Y-100418492D02*
X73383620Y-100392745D01*
D39*
X68253574Y-89666494D02*
X68295661Y-89691720D01*
X82391646Y-99755657D02*
X82392520Y-99720120D01*
D40*
X73563799Y-100582378D02*
X73525100Y-100537515D01*
X73666063Y-100727582D02*
X73634365Y-100677526D01*
X80287759Y-99230141D02*
X80352438Y-99253284D01*
X81865364Y-89262393D02*
X81821735Y-89301935D01*
X73724305Y-101770116D02*
X73691353Y-101806473D01*
D39*
X68031360Y-89250760D02*
X68033767Y-89299768D01*
X81660877Y-98609577D02*
X81627122Y-98598426D01*
X80882983Y-98481719D02*
X80852052Y-98464197D01*
D40*
X81657528Y-89609145D02*
X81648889Y-89667389D01*
D39*
X80738012Y-98379619D02*
X80712267Y-98355107D01*
D40*
X73654996Y-101839425D02*
X73615585Y-101868654D01*
D39*
X60840149Y-84379026D02*
X60874265Y-84427466D01*
X45720000Y-106680000D02*
X44720000Y-106680000D01*
X81083102Y-98553323D02*
X81048417Y-98545534D01*
D40*
X72167774Y-87026294D02*
X72175208Y-87048797D01*
X72086399Y-86882647D02*
X72100979Y-86901330D01*
D39*
X81929012Y-98779372D02*
X81903265Y-98754859D01*
X68144854Y-89567956D02*
X68177806Y-89604313D01*
D40*
X73600250Y-100629086D02*
X73563799Y-100582378D01*
X73831987Y-101229842D02*
X73824734Y-101171040D01*
D39*
X48260000Y-106680000D02*
X45720000Y-106680000D01*
X82389031Y-99791110D02*
X82391646Y-99755657D01*
X59388033Y-82834925D02*
X59417236Y-82886476D01*
D40*
X72149641Y-86982517D02*
X72159245Y-87004183D01*
D39*
X61077700Y-93750380D02*
X61087330Y-93946414D01*
X81592861Y-98588945D02*
X81558176Y-98581156D01*
D40*
X73482942Y-101931390D02*
X73435345Y-101943312D01*
X80221123Y-99213450D02*
X80287759Y-99230141D01*
D39*
X81118128Y-98559400D02*
X81083102Y-98553323D01*
X60803698Y-84332319D02*
X60840149Y-84379026D01*
D40*
X73814605Y-101112664D02*
X73801624Y-101054856D01*
X72175208Y-87048797D02*
X72181529Y-87071638D01*
X71976599Y-86768737D02*
X71961119Y-86750791D01*
X82016389Y-89171872D02*
X81963161Y-89197047D01*
X80754418Y-99696800D02*
X80771109Y-99763436D01*
X73824734Y-101171040D02*
X73814605Y-101112664D01*
D39*
X59417236Y-82886476D02*
X59448934Y-82936532D01*
D40*
X53553200Y-80897700D02*
X53432200Y-81018700D01*
D39*
X82392520Y-99542880D02*
X82392520Y-99720120D01*
X81694043Y-98622371D02*
X81660877Y-98609577D01*
D40*
X72186721Y-87094761D02*
X72190773Y-87118112D01*
D39*
X81559120Y-100553520D02*
X80784560Y-100553520D01*
X82322982Y-99233216D02*
X82306999Y-99201463D01*
D40*
X73386808Y-101950512D02*
X73337800Y-101952920D01*
D39*
X59361395Y-82782004D02*
X59388033Y-82834925D01*
D40*
X73196000Y-99906360D02*
X73196000Y-99200000D01*
D39*
X61054505Y-84862604D02*
X61064634Y-84920980D01*
D40*
X73203839Y-100012631D02*
X73199487Y-99977350D01*
D39*
X71749920Y-101955600D02*
X72687040Y-101955600D01*
X82289476Y-100092465D02*
X82306998Y-100061534D01*
X59281675Y-82559202D02*
X59297477Y-82616304D01*
X61025721Y-84747695D02*
X61041524Y-84804796D01*
X82391647Y-99507341D02*
X82389032Y-99471889D01*
D40*
X81716847Y-89443361D02*
X81691672Y-89496589D01*
D39*
X61808913Y-95296400D02*
X61966559Y-95413319D01*
X61163819Y-94330949D02*
X61229940Y-94515746D01*
X68433814Y-89741152D02*
X68482351Y-89748352D01*
X61007137Y-84691437D02*
X61025721Y-84747695D01*
D40*
X82071829Y-89152035D02*
X82016389Y-89171872D01*
X72181529Y-87071638D02*
X72186721Y-87094761D01*
X80579534Y-99405025D02*
X80625667Y-99455924D01*
D39*
X80947235Y-98512108D02*
X80914736Y-98497702D01*
D40*
X72114625Y-86920706D02*
X72127304Y-86940728D01*
D39*
X81630110Y-100550032D02*
X81665391Y-100545680D01*
D40*
X81646000Y-89726200D02*
X81646000Y-89750000D01*
D39*
X82370814Y-99366897D02*
X82361333Y-99332636D01*
D40*
X80625667Y-99455924D02*
X80666588Y-99511100D01*
D39*
X81224400Y-98567240D02*
X81416880Y-98567240D01*
D40*
X72196000Y-87188960D02*
X72196000Y-87800000D01*
X72127304Y-86940728D02*
X72138986Y-86961349D01*
D39*
X82306998Y-100061534D02*
X82322981Y-100029782D01*
D40*
X73745914Y-100886219D02*
X73721904Y-100832054D01*
X80771109Y-99763436D02*
X80781189Y-99831388D01*
D39*
X81559120Y-100553520D02*
X81594657Y-100552647D01*
D40*
X80701904Y-99570022D02*
X80731275Y-99632121D01*
X73408132Y-100418492D02*
X73484246Y-100494606D01*
X71992941Y-86785901D02*
X72054578Y-86847538D01*
X73199487Y-99977350D02*
X73196872Y-99941897D01*
X73318060Y-100308739D02*
X73299042Y-100278705D01*
D39*
X61116129Y-94140560D02*
X61163819Y-94330949D01*
D40*
X73360400Y-100365827D02*
X73338530Y-100337803D01*
D39*
X81876348Y-98731640D02*
X81848323Y-98709769D01*
X61414760Y-94861520D02*
X61531679Y-95019166D01*
D40*
X73615585Y-101868654D02*
X73573498Y-101893880D01*
D39*
X68052889Y-89395902D02*
X68069420Y-89442101D01*
X81726542Y-98636777D02*
X81694043Y-98622371D01*
D40*
X72193674Y-87141633D02*
X72195418Y-87165267D01*
D39*
X81188861Y-98566367D02*
X81153409Y-98563752D01*
X81523151Y-98575079D02*
X81487870Y-98570727D01*
D40*
X73828192Y-101550465D02*
X73816270Y-101598062D01*
X70246000Y-89750000D02*
X68910960Y-89750000D01*
D39*
X82361333Y-99332636D02*
X82350182Y-99298882D01*
X82228118Y-100179587D02*
X82249989Y-100151562D01*
X68386217Y-89729230D02*
X68433814Y-89741152D01*
X59448934Y-82936532D02*
X59483049Y-82984972D01*
X68482351Y-89748352D02*
X68531360Y-89750760D01*
D40*
X73816270Y-101598062D02*
X73799739Y-101644261D01*
D39*
X59246954Y-82325129D02*
X59251312Y-82384217D01*
X59519500Y-83031679D02*
X59558199Y-83076542D01*
X80792955Y-98424709D02*
X80764930Y-98402839D01*
D40*
X71946539Y-86732108D02*
X71932893Y-86712732D01*
D39*
X82249989Y-100151562D02*
X82270458Y-100122498D01*
X82384680Y-99826391D02*
X82389031Y-99791110D01*
X81048417Y-98545534D02*
X81014156Y-98536053D01*
X61229940Y-94515746D02*
X61313857Y-94693173D01*
X60724146Y-84244546D02*
X60764999Y-84287456D01*
X43180000Y-106680000D02*
X42180000Y-106680000D01*
X61077700Y-93750380D02*
X61077700Y-85098100D01*
D40*
X71961119Y-86750791D02*
X71946539Y-86732108D01*
D39*
X82180387Y-100232251D02*
X82204898Y-100206504D01*
D40*
X71992941Y-86785901D02*
X71976599Y-86768737D01*
X81691672Y-89496589D02*
X81671835Y-89552029D01*
D39*
X62312333Y-95598139D02*
X62497130Y-95664260D01*
D40*
X73227186Y-100116602D02*
X73217705Y-100082341D01*
X71888273Y-86629255D02*
X71879744Y-86607144D01*
D39*
X81758295Y-98652760D02*
X81726542Y-98636777D01*
X62881665Y-95740749D02*
X63077700Y-95750380D01*
X62497130Y-95664260D02*
X62687519Y-95711950D01*
X82180387Y-100232251D02*
X82071252Y-100341387D01*
X68531360Y-89750760D02*
X68910200Y-89750760D01*
D40*
X80781189Y-99831388D02*
X80784560Y-99900000D01*
X73338530Y-100337803D02*
X73318060Y-100308739D01*
D39*
X82289477Y-99170532D02*
X82270459Y-99140499D01*
X82392520Y-99542880D02*
X82391647Y-99507341D01*
X68069420Y-89442101D02*
X68090399Y-89486458D01*
X59558199Y-83076542D02*
X59599053Y-83119453D01*
D40*
X73835392Y-101501928D02*
X73828192Y-101550465D01*
D39*
X59268694Y-82501394D02*
X59281675Y-82559202D01*
D40*
X73778760Y-101688618D02*
X73753534Y-101730705D01*
D39*
X81900535Y-100467999D02*
X81931466Y-100450477D01*
D40*
X72159245Y-87004183D02*
X72167774Y-87026294D01*
D39*
X82045506Y-100365899D02*
X82071252Y-100341387D01*
D40*
X82187189Y-89129089D02*
X82128945Y-89137728D01*
X81821735Y-89301935D02*
X81782193Y-89345564D01*
X71932893Y-86712732D02*
X71920214Y-86692710D01*
D39*
X61966559Y-95413319D02*
X62134906Y-95514222D01*
X81789226Y-98670282D02*
X81758295Y-98652760D01*
D40*
X71856745Y-86515327D02*
X71853844Y-86491806D01*
X73836345Y-101288930D02*
X73831987Y-101229842D01*
D39*
X81961499Y-100431458D02*
X81990563Y-100410989D01*
X82270459Y-99140499D02*
X82249989Y-99111435D01*
X82370813Y-99896101D02*
X82378602Y-99861416D01*
X68177806Y-89604313D02*
X68214163Y-89637265D01*
X61077700Y-85989160D02*
X68854320Y-85989160D01*
D40*
X73299042Y-100278705D02*
X73281520Y-100247775D01*
X73238337Y-100150357D02*
X73227186Y-100116602D01*
X73785822Y-100997755D02*
X73767237Y-100941497D01*
D39*
X81153409Y-98563752D02*
X81118128Y-98559400D01*
X68590160Y-95750240D02*
X67482860Y-95750240D01*
X68340018Y-89712699D02*
X68386217Y-89729230D01*
X81014156Y-98536053D02*
X80980402Y-98524902D01*
D40*
X71920214Y-86692710D02*
X71908533Y-86672090D01*
X72195418Y-87165267D02*
X72196000Y-87188960D01*
X72070919Y-86864702D02*
X72086399Y-86882647D01*
X68179847Y-91464932D02*
X68076745Y-91406526D01*
X68963661Y-91723869D02*
X68846910Y-91703611D01*
X69317900Y-91750000D02*
X69199440Y-91747091D01*
X67976634Y-91343131D02*
X67879754Y-91274900D01*
X68846910Y-91703611D02*
X68731293Y-91677649D01*
X63030100Y-89367500D02*
X65935400Y-89367500D01*
X69199440Y-91747091D02*
X69081265Y-91738374D01*
X68504575Y-91608874D02*
X68394020Y-91566228D01*
X68076745Y-91406526D02*
X67976634Y-91343131D01*
X68731293Y-91677649D02*
X68617090Y-91646044D01*
X68394020Y-91566228D02*
X68285690Y-91518209D01*
X69317900Y-91750000D02*
X70246000Y-91750000D01*
X68617090Y-91646044D02*
X68504575Y-91608874D01*
X67879754Y-91274900D02*
X67786338Y-91201998D01*
X69081265Y-91738374D02*
X68963661Y-91723869D01*
X67610793Y-91042893D02*
X65938400Y-89370500D01*
X67696612Y-91124600D02*
X67610793Y-91042893D01*
X67786338Y-91201998D02*
X67696612Y-91124600D01*
X68285690Y-91518209D02*
X68179847Y-91464932D01*
X77306302Y-101818097D02*
X77408648Y-101963417D01*
X76713437Y-100161151D02*
X76735195Y-100337558D01*
X77123600Y-101513278D02*
X77211210Y-101667930D01*
X76735195Y-100337558D02*
X76765582Y-100512684D01*
X76696000Y-99806200D02*
X76696000Y-99200000D01*
X77211210Y-101667930D02*
X77306302Y-101818097D01*
X76907687Y-101026185D02*
X76971656Y-101192019D01*
X76696000Y-99806200D02*
X76700362Y-99983889D01*
X76700362Y-99983889D02*
X76713437Y-100161151D01*
X77408648Y-101963417D02*
X77518001Y-102103541D01*
X76851932Y-100857413D02*
X76907687Y-101026185D01*
X80010000Y-103350200D02*
X78740000Y-103350200D01*
X77518001Y-102103541D02*
X77634098Y-102238129D01*
X76765582Y-100512684D02*
X76804526Y-100686108D01*
X77756660Y-102366860D02*
X78740000Y-103350200D01*
X76804526Y-100686108D02*
X76851932Y-100857413D01*
X76971656Y-101192019D02*
X77043685Y-101354513D01*
X77043685Y-101354513D02*
X77123600Y-101513278D01*
X77634098Y-102238129D02*
X77756660Y-102366860D01*
X66763990Y-92251453D02*
X66704902Y-92255812D01*
X66529916Y-92286175D02*
X66472815Y-92301977D01*
X63030100Y-93355020D02*
X65215880Y-93355020D01*
X66646100Y-92263064D02*
X66587724Y-92273193D01*
X66416557Y-92320562D02*
X66361279Y-92341885D01*
X66823220Y-92250000D02*
X66763990Y-92251453D01*
X66254193Y-92392533D02*
X66202642Y-92421736D01*
X66361279Y-92341885D02*
X66307114Y-92365894D01*
X66152586Y-92453433D02*
X66104146Y-92487548D01*
X66587724Y-92273193D02*
X66529916Y-92286175D01*
X66472815Y-92301977D02*
X66416557Y-92320562D01*
X66704902Y-92255812D02*
X66646100Y-92263064D01*
X66202642Y-92421736D02*
X66152586Y-92453433D01*
X66307114Y-92365894D02*
X66254193Y-92392533D01*
X66823220Y-92250000D02*
X70246000Y-92250000D01*
X66104146Y-92487548D02*
X66057438Y-92524000D01*
X76200000Y-103350200D02*
X77470000Y-103350200D01*
X76196000Y-99200000D02*
X76196000Y-103346200D01*
X68859400Y-92979240D02*
X68958460Y-92897960D01*
X68958460Y-92897960D02*
X69037200Y-92849700D01*
X69037200Y-92849700D02*
X69108320Y-92816680D01*
X69108320Y-92816680D02*
X69199760Y-92783660D01*
X69199760Y-92783660D02*
X69283580Y-92763340D01*
X69283580Y-92763340D02*
X69375020Y-92753180D01*
X69375020Y-92753180D02*
X69428360Y-92750640D01*
X69428360Y-92750640D02*
X70246000Y-92750000D01*
X50568720Y-96785040D02*
X57068720Y-96785040D01*
X75688015Y-101817193D02*
X75696732Y-101699018D01*
X75696000Y-99950000D02*
X75699641Y-99953641D01*
X75595685Y-102281367D02*
X75627289Y-102167164D01*
X75414573Y-102718610D02*
X75467850Y-102612767D01*
X75627289Y-102167164D02*
X75653252Y-102051548D01*
X75292772Y-102921823D02*
X75356167Y-102821712D01*
X75558515Y-102393882D02*
X75595685Y-102281367D01*
X75074241Y-103201844D02*
X75151639Y-103112119D01*
X75699641Y-101580559D02*
X75699641Y-99953641D01*
X75696732Y-101699018D02*
X75699641Y-101580559D01*
X73647300Y-103350200D02*
X74930000Y-103350200D01*
X75653252Y-102051548D02*
X75673510Y-101934797D01*
X75515869Y-102504438D02*
X75558515Y-102393882D01*
X75673510Y-101934797D02*
X75688015Y-101817193D01*
X75356167Y-102821712D02*
X75414573Y-102718610D01*
X75696000Y-99200000D02*
X75696000Y-99950000D01*
X75151639Y-103112119D02*
X75224541Y-103018703D01*
X75224541Y-103018703D02*
X75292772Y-102921823D01*
X75467850Y-102612767D02*
X75515869Y-102504438D01*
X61718383Y-82289554D02*
X61732888Y-82407158D01*
X67183678Y-83526038D02*
X67200019Y-83543202D01*
X67304308Y-83727297D02*
X67310629Y-83750138D01*
X67266060Y-84719018D02*
X67240834Y-84761105D01*
X66951119Y-83286088D02*
X66937473Y-83266712D01*
X61810713Y-82753729D02*
X61847883Y-82866243D01*
X62113626Y-83394185D02*
X62181857Y-83491065D01*
X66892853Y-83183235D02*
X66884324Y-83161124D01*
X67183678Y-83526038D02*
X66997521Y-83339881D01*
X61991825Y-83190972D02*
X62050232Y-83294073D01*
X66865377Y-83092657D02*
X66861325Y-83069307D01*
X66924794Y-83246690D02*
X66913113Y-83226070D01*
X67102885Y-84899054D02*
X67060798Y-84924280D01*
X66913113Y-83226070D02*
X66902457Y-83204901D01*
X63015873Y-84357920D02*
X63105598Y-84435318D01*
X67287039Y-84674661D02*
X67266060Y-84719018D01*
X61753146Y-82523909D02*
X61779109Y-82639525D01*
X62930053Y-84276213D02*
X63015873Y-84357920D01*
X61779109Y-82639525D02*
X61810713Y-82753729D01*
X67315821Y-83773261D02*
X67319873Y-83796612D01*
X67310629Y-83750138D02*
X67315821Y-83773261D01*
X66861325Y-83069307D02*
X66858424Y-83045786D01*
X66874108Y-84980912D02*
X66825100Y-84983320D01*
X67230079Y-83579830D02*
X67243725Y-83599206D01*
X66884324Y-83161124D02*
X66876890Y-83138621D01*
X66937473Y-83266712D02*
X66924794Y-83246690D01*
X64166170Y-84936931D02*
X64282921Y-84957189D01*
X67178653Y-84836873D02*
X67142296Y-84869825D01*
X67296874Y-83704794D02*
X67304308Y-83727297D01*
X66970242Y-84961790D02*
X66922645Y-84973712D01*
X67240834Y-84761105D02*
X67211605Y-84800516D01*
X66870569Y-83115781D02*
X66865377Y-83092657D01*
X61706760Y-78808440D02*
X61706760Y-82052920D01*
X67016441Y-84945259D02*
X66970242Y-84961790D01*
X66981179Y-83322717D02*
X66965699Y-83304771D01*
X67211605Y-84800516D02*
X67178653Y-84836873D01*
X61732888Y-82407158D02*
X61753146Y-82523909D01*
X66825100Y-84983320D02*
X64637160Y-84983320D01*
X62050232Y-83294073D02*
X62113626Y-83394185D01*
X67325100Y-83867460D02*
X67325100Y-84086700D01*
X63105598Y-84435318D02*
X63199014Y-84508220D01*
X67278741Y-83661017D02*
X67288345Y-83682683D01*
X63713280Y-84799548D02*
X63823835Y-84842194D01*
X67243725Y-83599206D02*
X67256404Y-83619228D01*
X66856100Y-82998460D02*
X66856100Y-82421900D01*
X63936350Y-84879364D02*
X64050553Y-84910968D01*
X67268086Y-83639849D02*
X67278741Y-83661017D01*
X63199014Y-84508220D02*
X63295894Y-84576451D01*
X61706760Y-82052920D02*
X61709666Y-82171379D01*
X66997521Y-83339881D02*
X66981179Y-83322717D01*
X62181857Y-83491065D02*
X62254759Y-83584480D01*
X63604950Y-84751529D02*
X63713280Y-84799548D01*
X62413866Y-83760026D02*
X62930053Y-84276213D01*
X63823835Y-84842194D02*
X63936350Y-84879364D01*
X64518700Y-84980411D02*
X64637160Y-84983320D01*
X67060798Y-84924280D02*
X67016441Y-84945259D01*
X67303570Y-84628462D02*
X67287039Y-84674661D01*
X67256404Y-83619228D02*
X67268086Y-83639849D01*
X61890529Y-82976799D02*
X61938548Y-83085129D01*
X63396006Y-84639846D02*
X63499107Y-84698252D01*
X62254759Y-83584480D02*
X62332158Y-83674206D01*
X66922645Y-84973712D02*
X66874108Y-84980912D01*
X64400525Y-84971694D02*
X64518700Y-84980411D01*
X67315492Y-84580865D02*
X67303570Y-84628462D01*
X63499107Y-84698252D02*
X63604950Y-84751529D01*
X66856681Y-83022151D02*
X66856100Y-82998460D01*
X62332158Y-83674206D02*
X62413866Y-83760026D01*
X67325100Y-84483320D02*
X67325100Y-84086700D01*
X61938548Y-83085129D02*
X61991825Y-83190972D01*
X61847883Y-82866243D02*
X61890529Y-82976799D01*
X66876890Y-83138621D02*
X66870569Y-83115781D01*
X67215499Y-83561147D02*
X67230079Y-83579830D01*
X67324518Y-83843767D02*
X67325100Y-83867460D01*
X67319873Y-83796612D02*
X67322774Y-83820133D01*
X67325100Y-84483320D02*
X67322692Y-84532328D01*
X67322774Y-83820133D02*
X67324518Y-83843767D01*
X67142296Y-84869825D02*
X67102885Y-84899054D01*
X63295894Y-84576451D02*
X63396006Y-84639846D01*
X66965699Y-83304771D02*
X66951119Y-83286088D01*
X66902457Y-83204901D02*
X66892853Y-83183235D01*
X64050553Y-84910968D02*
X64166170Y-84936931D01*
X67322692Y-84532328D02*
X67315492Y-84580865D01*
X61709666Y-82171379D02*
X61718383Y-82289554D01*
X66858424Y-83045786D02*
X66856681Y-83022151D01*
X67200019Y-83543202D02*
X67215499Y-83561147D01*
X64282921Y-84957189D02*
X64400525Y-84971694D01*
X67288345Y-83682683D02*
X67296874Y-83704794D01*
X46622600Y-81049100D02*
X42837100Y-81049100D01*
X72405240Y-79616440D02*
X72405240Y-78175360D01*
X61269120Y-100441760D02*
X63012460Y-100441760D01*
X63015000Y-102148640D02*
X61269120Y-102148640D01*
X61269120Y-103855520D02*
X63012460Y-103855520D01*
X90559000Y-95250000D02*
X81646000Y-95250000D01*
X91075104Y-95134104D02*
X91020939Y-95158113D01*
X90618229Y-95248545D02*
X90559000Y-95250000D01*
X92158366Y-94183433D02*
X92208422Y-94151736D01*
X90909404Y-95198021D02*
X90852302Y-95213824D01*
X92312894Y-94095894D02*
X92367059Y-94071885D01*
X91412553Y-94896446D02*
X91369642Y-94937299D01*
X91412553Y-94896446D02*
X91975446Y-94333553D01*
X92208422Y-94151736D02*
X92259973Y-94122533D01*
X92063218Y-94254000D02*
X92109926Y-94217548D01*
X91128025Y-95107465D02*
X91075104Y-95134104D01*
X92367059Y-94071885D02*
X92422337Y-94050562D01*
X90736119Y-95236934D02*
X90677317Y-95244186D01*
X91324779Y-94975998D02*
X91278072Y-95012449D01*
X92829000Y-93980000D02*
X95250000Y-93980000D01*
X91020939Y-95158113D02*
X90965661Y-95179436D01*
X91369642Y-94937299D02*
X91324779Y-94975998D01*
X92769770Y-93981453D02*
X92829000Y-93980000D01*
X92651880Y-93993064D02*
X92710682Y-93985812D01*
X90794494Y-95226805D02*
X90736119Y-95236934D01*
X92259973Y-94122533D02*
X92312894Y-94095894D01*
X90852302Y-95213824D02*
X90794494Y-95226805D01*
X91975446Y-94333553D02*
X92018355Y-94292699D01*
X92535696Y-94016175D02*
X92593504Y-94003193D01*
X91179576Y-95078262D02*
X91128025Y-95107465D01*
X92109926Y-94217548D02*
X92158366Y-94183433D01*
X90965661Y-95179436D02*
X90909404Y-95198021D01*
X92710682Y-93985812D02*
X92769770Y-93981453D01*
X91278072Y-95012449D02*
X91229632Y-95046565D01*
X92478595Y-94031977D02*
X92535696Y-94016175D01*
X91229632Y-95046565D02*
X91179576Y-95078262D01*
X92018355Y-94292699D02*
X92063218Y-94254000D01*
X92593504Y-94003193D02*
X92651880Y-93993064D01*
X90677317Y-95244186D02*
X90618229Y-95248545D01*
X92422337Y-94050562D02*
X92478595Y-94031977D01*
X92940646Y-91793553D02*
X92983555Y-91752699D01*
X93123566Y-91643433D02*
X93173622Y-91611736D01*
X90666727Y-93936262D02*
X90860488Y-93799801D01*
X87984198Y-94750000D02*
X88221117Y-94744183D01*
X93443795Y-91491977D02*
X93500896Y-91476175D01*
X88692675Y-94697739D02*
X88926177Y-94657222D01*
X90466505Y-94063052D02*
X90666727Y-93936262D01*
X93332259Y-91531885D02*
X93387537Y-91510562D01*
X91047319Y-93653996D02*
X91226770Y-93499200D01*
X93794200Y-91440000D02*
X95250000Y-91440000D01*
X93675882Y-91445812D02*
X93734970Y-91441453D01*
X93734970Y-91441453D02*
X93794200Y-91440000D01*
X87984198Y-94750000D02*
X81646000Y-94750000D01*
X88457466Y-94726749D02*
X88692675Y-94697739D01*
X91398411Y-93335786D02*
X92940646Y-91793553D01*
X89610845Y-94467749D02*
X89831956Y-94382457D01*
X93387537Y-91510562D02*
X93443795Y-91491977D01*
X89831956Y-94382457D02*
X90048616Y-94286418D01*
X88221117Y-94744183D02*
X88457466Y-94726749D01*
X93173622Y-91611736D02*
X93225173Y-91582533D01*
X93278094Y-91555894D02*
X93332259Y-91531885D01*
X93558704Y-91463193D02*
X93617080Y-91453064D01*
X91226770Y-93499200D02*
X91398411Y-93335786D01*
X93617080Y-91453064D02*
X93675882Y-91445812D01*
X93075126Y-91677548D02*
X93123566Y-91643433D01*
X92983555Y-91752699D02*
X93028418Y-91714000D01*
X93028418Y-91714000D02*
X93075126Y-91677548D01*
X90260302Y-94179864D02*
X90466505Y-94063052D01*
X90860488Y-93799801D02*
X91047319Y-93653996D01*
X88926177Y-94657222D02*
X89157409Y-94605297D01*
X89385816Y-94542089D02*
X89610845Y-94467749D01*
X93225173Y-91582533D02*
X93278094Y-91555894D01*
X90048616Y-94286418D02*
X90260302Y-94179864D01*
X89157409Y-94605297D02*
X89385816Y-94542089D01*
X93500896Y-91476175D02*
X93558704Y-91463193D01*
X87944437Y-93698686D02*
X88269426Y-93554628D01*
X93506694Y-89015894D02*
X93560859Y-88991885D01*
X86585768Y-94110834D02*
X86932617Y-94032946D01*
X85172799Y-94250000D02*
X85528178Y-94241275D01*
X93352166Y-89103433D02*
X93402222Y-89071736D01*
X89196594Y-93029394D02*
X89487234Y-92824702D01*
X93169246Y-89253553D02*
X93212155Y-89212699D01*
X93453773Y-89042533D02*
X93506694Y-89015894D01*
X93212155Y-89212699D02*
X93257018Y-89174000D01*
X90036658Y-92373801D02*
X90294119Y-92128679D01*
X88269426Y-93554628D02*
X88586955Y-93394797D01*
X94022800Y-88900000D02*
X95250000Y-88900000D01*
X93560859Y-88991885D02*
X93616137Y-88970562D01*
X85882701Y-94215124D02*
X86235515Y-94171608D01*
X93303726Y-89137548D02*
X93352166Y-89103433D01*
X93729496Y-88936175D02*
X93787304Y-88923193D01*
X93787304Y-88923193D02*
X93845680Y-88913064D01*
X93672395Y-88951977D02*
X93729496Y-88936175D01*
X93257018Y-89174000D02*
X93303726Y-89137548D01*
X89487234Y-92824702D02*
X89767481Y-92605995D01*
X87275226Y-93938133D02*
X87612771Y-93826624D01*
X85528178Y-94241275D02*
X85882701Y-94215124D01*
X85172799Y-94250000D02*
X81646000Y-94250000D01*
X88586955Y-93394797D02*
X88896260Y-93219578D01*
X86235515Y-94171608D02*
X86585768Y-94110834D01*
X93402222Y-89071736D02*
X93453773Y-89042533D01*
X93616137Y-88970562D02*
X93672395Y-88951977D01*
X89767481Y-92605995D02*
X90036658Y-92373801D01*
X93963570Y-88901453D02*
X94022800Y-88900000D01*
X86932617Y-94032946D02*
X87275226Y-93938133D01*
X87612771Y-93826624D02*
X87944437Y-93698686D01*
X88896260Y-93219578D02*
X89196594Y-93029394D01*
X90294119Y-92128679D02*
X93169246Y-89253553D01*
X93904482Y-88905812D02*
X93963570Y-88901453D01*
X93845680Y-88913064D02*
X93904482Y-88905812D01*
X88266820Y-91628679D02*
X88009359Y-91873801D01*
X83855402Y-93715124D02*
X83500879Y-93741275D01*
X87459935Y-92324702D02*
X87169295Y-92529394D01*
X93224855Y-86672699D02*
X93181946Y-86713553D01*
X84208216Y-93671608D02*
X83855402Y-93715124D01*
X88009359Y-91873801D02*
X87740182Y-92105995D01*
X83500879Y-93741275D02*
X83145500Y-93750000D01*
X85917138Y-93198686D02*
X85585472Y-93326624D01*
X93976270Y-86361453D02*
X93917182Y-86365812D01*
X87169295Y-92529394D02*
X86868961Y-92719578D01*
X94035500Y-86360000D02*
X95250000Y-86360000D01*
X93800004Y-86383193D02*
X93742196Y-86396175D01*
X93364866Y-86563433D02*
X93316426Y-86597548D01*
X84558469Y-93610834D02*
X84208216Y-93671608D01*
X93858380Y-86373064D02*
X93800004Y-86383193D01*
X86559656Y-92894797D02*
X86242127Y-93054628D01*
X93269718Y-86634000D02*
X93224855Y-86672699D01*
X93316426Y-86597548D02*
X93269718Y-86634000D01*
X85585472Y-93326624D02*
X85247927Y-93438133D01*
X94035500Y-86360000D02*
X93976270Y-86361453D01*
X86242127Y-93054628D02*
X85917138Y-93198686D01*
X85247927Y-93438133D02*
X84905318Y-93532946D01*
X93685095Y-86411977D02*
X93628837Y-86430562D01*
X93628837Y-86430562D02*
X93573559Y-86451885D01*
X83145500Y-93750000D02*
X81646000Y-93750000D01*
X87740182Y-92105995D02*
X87459935Y-92324702D01*
X93466473Y-86502533D02*
X93414922Y-86531736D01*
X86868961Y-92719578D02*
X86559656Y-92894797D01*
X93519394Y-86475894D02*
X93466473Y-86502533D01*
X93573559Y-86451885D02*
X93519394Y-86475894D01*
X88266820Y-91628679D02*
X93181946Y-86713553D01*
X84905318Y-93532946D02*
X84558469Y-93610834D01*
X93917182Y-86365812D02*
X93858380Y-86373064D01*
X93414922Y-86531736D02*
X93364866Y-86563433D01*
X93742196Y-86396175D02*
X93685095Y-86411977D01*
X70246000Y-94750000D02*
X72842500Y-94750000D01*
X72842500Y-94750000D02*
X72847200Y-94754700D01*
X72361300Y-94250000D02*
X72364600Y-94246700D01*
X70246000Y-94250000D02*
X72361300Y-94250000D01*
X72833100Y-93750000D02*
X72834500Y-93751400D01*
X70246000Y-93750000D02*
X72833100Y-93750000D01*
X70246000Y-93250000D02*
X72307200Y-93250000D01*
X72307200Y-93250000D02*
X72313800Y-93243400D01*
X73660000Y-106680000D02*
X73660000Y-104332900D01*
X76200000Y-106680000D02*
X76200000Y-104320200D01*
X78740000Y-106680000D02*
X78740000Y-104320200D01*
X81280000Y-106680000D02*
X81280000Y-104320200D01*
D39*
X47153300Y-87919900D02*
X50917400Y-87919900D01*
D40*
X50288032Y-88923334D02*
X50336472Y-88957449D01*
X49676629Y-88721354D02*
X49735717Y-88725712D01*
X50237976Y-88891636D02*
X50288032Y-88923334D01*
X50133504Y-88835795D02*
X50186425Y-88862433D01*
X50024061Y-88790462D02*
X50079339Y-88811785D01*
X50079339Y-88811785D02*
X50133504Y-88835795D01*
X50383179Y-88993900D02*
X50428042Y-89032599D01*
X49910702Y-88756075D02*
X49967804Y-88771877D01*
X50186425Y-88862433D02*
X50237976Y-88891636D01*
X49967804Y-88771877D02*
X50024061Y-88790462D01*
X49852894Y-88743094D02*
X49910702Y-88756075D01*
X49735717Y-88725712D02*
X49794519Y-88732965D01*
X50336472Y-88957449D02*
X50383179Y-88993900D01*
X49617400Y-88719900D02*
X49676629Y-88721354D01*
X49617400Y-88719900D02*
X47153300Y-88719900D01*
X50428042Y-89032599D02*
X50470953Y-89073453D01*
X49794519Y-88732965D02*
X49852894Y-88743094D01*
X50470953Y-89073453D02*
X51069900Y-89672400D01*
D39*
X47153300Y-89519900D02*
X49594500Y-89519900D01*
D40*
X75196000Y-97456558D02*
X75194160Y-97454718D01*
X75196000Y-99200000D02*
X75196000Y-97456558D01*
X74696000Y-97754756D02*
X74696320Y-97754436D01*
X74696000Y-99200000D02*
X74696000Y-97754756D01*
X74193400Y-98447400D02*
X74193400Y-97449640D01*
X74196000Y-98450000D02*
X74193400Y-98447400D01*
X74196000Y-99200000D02*
X74196000Y-98450000D01*
X73696000Y-99200000D02*
X73696000Y-97759875D01*
X73696000Y-97759875D02*
X73686401Y-97750276D01*
X89219159Y-97626197D02*
X89476620Y-97871320D01*
X90964490Y-98956044D02*
X91078693Y-98987648D01*
X88078761Y-96780420D02*
X88379095Y-96970604D01*
X90851975Y-98918874D02*
X90964490Y-98956044D01*
X90424146Y-98716526D02*
X90527247Y-98774932D01*
X87769456Y-96605201D02*
X88078761Y-96780420D01*
X90324034Y-98653131D02*
X90424146Y-98716526D01*
X90741420Y-98876228D02*
X90851975Y-98918874D01*
X90527247Y-98774932D02*
X90633090Y-98828209D01*
X90044013Y-98434600D02*
X90133738Y-98511998D01*
X88949982Y-97394003D02*
X89219159Y-97626197D01*
X87451927Y-96445370D02*
X87769456Y-96605201D01*
X88669735Y-97175297D02*
X88949982Y-97394003D01*
X85768268Y-95889165D02*
X86115117Y-95967052D01*
X90227154Y-98584900D02*
X90324034Y-98653131D01*
X86115117Y-95967052D02*
X86457727Y-96061865D01*
X89958193Y-98352893D02*
X90044013Y-98434600D01*
X88379095Y-96970604D02*
X88669735Y-97175297D01*
X90133738Y-98511998D02*
X90227154Y-98584900D01*
X91428665Y-99048374D02*
X91546840Y-99057091D01*
X86457727Y-96061865D02*
X86795271Y-96173375D01*
X91546840Y-99057091D02*
X91665300Y-99060000D01*
X91311061Y-99033869D02*
X91428665Y-99048374D01*
X87126938Y-96301313D02*
X87451927Y-96445370D01*
X85418016Y-95828390D02*
X85768268Y-95889165D01*
X91078693Y-98987648D02*
X91194310Y-99013611D01*
X86795271Y-96173375D02*
X87126938Y-96301313D01*
X84710679Y-95758724D02*
X85065202Y-95784875D01*
X84355300Y-95750000D02*
X81646000Y-95750000D01*
X89958193Y-98352893D02*
X89476620Y-97871320D01*
X84355300Y-95750000D02*
X84710679Y-95758724D01*
X91194310Y-99013611D02*
X91311061Y-99033869D01*
X91665300Y-99060000D02*
X95250000Y-99060000D01*
X90633090Y-98828209D02*
X90741420Y-98876228D01*
X85065202Y-95784875D02*
X85418016Y-95828390D01*
X91733747Y-101314932D02*
X91839590Y-101368209D01*
X84613385Y-96279062D02*
X84907396Y-96315325D01*
X91164693Y-100892893D02*
X88289566Y-98017766D01*
X92635165Y-101588374D02*
X92753340Y-101597091D01*
X92285193Y-101527648D02*
X92400810Y-101553611D01*
X87124683Y-97108683D02*
X87374961Y-97267170D01*
X92058475Y-101458874D02*
X92170990Y-101496044D01*
X92753340Y-101597091D02*
X92871800Y-101600000D01*
X84317949Y-96257270D02*
X84613385Y-96279062D01*
X87374961Y-97267170D02*
X87617162Y-97437747D01*
X84021800Y-96250000D02*
X84317949Y-96257270D01*
X92517561Y-101573869D02*
X92635165Y-101588374D01*
X87850700Y-97620002D02*
X88075015Y-97813497D01*
X84021800Y-96250000D02*
X81646000Y-96250000D01*
X91630646Y-101256526D02*
X91733747Y-101314932D01*
X85488314Y-96430877D02*
X85773822Y-96509887D01*
X85199273Y-96365971D02*
X85488314Y-96430877D01*
X85773822Y-96509887D02*
X86055109Y-96602812D01*
X91164693Y-100892893D02*
X91250513Y-100974600D01*
X92871800Y-101600000D02*
X95250000Y-101600000D01*
X92400810Y-101553611D02*
X92517561Y-101573869D01*
X91433654Y-101124900D02*
X91530534Y-101193131D01*
X87617162Y-97437747D02*
X87850700Y-97620002D01*
X86602322Y-96829475D02*
X86866930Y-96962667D01*
X86866930Y-96962667D02*
X87124683Y-97108683D01*
X84907396Y-96315325D02*
X85199273Y-96365971D01*
X86331498Y-96709427D02*
X86602322Y-96829475D01*
X91530534Y-101193131D02*
X91630646Y-101256526D01*
X91947920Y-101416228D02*
X92058475Y-101458874D01*
X86055109Y-96602812D02*
X86331498Y-96709427D01*
X91839590Y-101368209D02*
X91947920Y-101416228D01*
X92170990Y-101496044D02*
X92285193Y-101527648D01*
X91250513Y-100974600D02*
X91340238Y-101051998D01*
X91340238Y-101051998D02*
X91433654Y-101124900D01*
X88075015Y-97813497D02*
X88289566Y-98017766D01*
X84282477Y-96802260D02*
X84515979Y-96842776D01*
X92622734Y-103733131D02*
X92722846Y-103796526D01*
X86816572Y-98000798D02*
X86988213Y-98164213D01*
X86256529Y-97563736D02*
X86450290Y-97700197D01*
X92256893Y-103432893D02*
X92342713Y-103514600D01*
X83574000Y-96750000D02*
X81646000Y-96750000D01*
X85421758Y-97117542D02*
X85638418Y-97213580D01*
X83574000Y-96750000D02*
X83810919Y-96755816D01*
X92722846Y-103796526D02*
X92825947Y-103854932D01*
X84047268Y-96773250D02*
X84282477Y-96802260D01*
X92256893Y-103432893D02*
X86988213Y-98164213D01*
X83810919Y-96755816D02*
X84047268Y-96773250D01*
X92525854Y-103664900D02*
X92622734Y-103733131D01*
X93263190Y-104036044D02*
X93377393Y-104067648D01*
X93040120Y-103956228D02*
X93150675Y-103998874D01*
X84975618Y-96957910D02*
X85200647Y-97032250D01*
X93727365Y-104128374D02*
X93845540Y-104137091D01*
X86056307Y-97436946D02*
X86256529Y-97563736D01*
X92931790Y-103908209D02*
X93040120Y-103956228D01*
X86450290Y-97700197D02*
X86637121Y-97846002D01*
X92825947Y-103854932D02*
X92931790Y-103908209D01*
X84747211Y-96894701D02*
X84975618Y-96957910D01*
X84515979Y-96842776D02*
X84747211Y-96894701D01*
X93609761Y-104113869D02*
X93727365Y-104128374D01*
X86637121Y-97846002D02*
X86816572Y-98000798D01*
X92432438Y-103591998D02*
X92525854Y-103664900D01*
X92342713Y-103514600D02*
X92432438Y-103591998D01*
X93150675Y-103998874D02*
X93263190Y-104036044D01*
X93493010Y-104093611D02*
X93609761Y-104113869D01*
X85638418Y-97213580D02*
X85850104Y-97320134D01*
X93964000Y-104140000D02*
X94730000Y-104140000D01*
X93377393Y-104067648D02*
X93493010Y-104093611D01*
X85850104Y-97320134D02*
X86056307Y-97436946D01*
X85200647Y-97032250D02*
X85421758Y-97117542D01*
X93845540Y-104137091D02*
X93964000Y-104140000D01*
X92778360Y-105349728D02*
X92782711Y-105385009D01*
X92700679Y-105114583D02*
X92716662Y-105146336D01*
X84766019Y-97525656D02*
X84600185Y-97461687D01*
X93616902Y-106637661D02*
X93650656Y-106648812D01*
X85940860Y-98310660D02*
X85812129Y-98188098D01*
X92743861Y-105212002D02*
X92755012Y-105245756D01*
X84928513Y-97597685D02*
X84766019Y-97525656D01*
X83380200Y-97250000D02*
X81646000Y-97250000D01*
X83911558Y-97289195D02*
X83735151Y-97267437D01*
X84260109Y-97358526D02*
X84086684Y-97319582D01*
X93519483Y-106594479D02*
X93551236Y-106610462D01*
X83735151Y-97267437D02*
X83557889Y-97254361D01*
X92731068Y-105178835D02*
X92743861Y-105212002D01*
X92764494Y-105280017D02*
X92772282Y-105314702D01*
X92871720Y-105946715D02*
X92889242Y-105977646D01*
X92908260Y-106007679D02*
X92928729Y-106036743D01*
X92785327Y-105420461D02*
X92786200Y-105456000D01*
X84431413Y-97405932D02*
X84260109Y-97358526D01*
X93348767Y-106467867D02*
X92998332Y-106117432D01*
X92841331Y-105882463D02*
X92855737Y-105914962D01*
X92789687Y-105676290D02*
X92794039Y-105711571D01*
X92755012Y-105245756D02*
X92764494Y-105280017D01*
X93348767Y-106467867D02*
X93374513Y-106492379D01*
X92574067Y-104943867D02*
X92598579Y-104969613D01*
X85392097Y-97860302D02*
X85241930Y-97765210D01*
X93458519Y-106557938D02*
X93488553Y-106576957D01*
X93789909Y-106676511D02*
X93825361Y-106679127D01*
X92787072Y-105640837D02*
X92789687Y-105676290D01*
X84600185Y-97461687D02*
X84431413Y-97405932D01*
X93754628Y-106672160D02*
X93789909Y-106676511D01*
X85677541Y-98072001D02*
X85537417Y-97962648D01*
X92817386Y-105815542D02*
X92828537Y-105849297D01*
X92794039Y-105711571D02*
X92800116Y-105746596D01*
X92621798Y-104996530D02*
X92643669Y-105024555D01*
X92574067Y-104943867D02*
X85940860Y-98310660D01*
X93551236Y-106610462D02*
X93583735Y-106624868D01*
X92800116Y-105746596D02*
X92807905Y-105781281D01*
X83557889Y-97254361D02*
X83380200Y-97250000D01*
X93583735Y-106624868D02*
X93616902Y-106637661D01*
X84086684Y-97319582D02*
X83911558Y-97289195D01*
X92772282Y-105314702D02*
X92778360Y-105349728D01*
X85812129Y-98188098D02*
X85677541Y-98072001D01*
X92889242Y-105977646D02*
X92908260Y-106007679D01*
X92950600Y-106064768D02*
X92973819Y-106091685D01*
X92598579Y-104969613D02*
X92621798Y-104996530D01*
X93719602Y-106666082D02*
X93754628Y-106672160D01*
X93429455Y-106537469D02*
X93458519Y-106557938D01*
X92828537Y-105849297D02*
X92841331Y-105882463D01*
X92807905Y-105781281D02*
X92817386Y-105815542D01*
X92716662Y-105146336D02*
X92731068Y-105178835D01*
X92664138Y-105053619D02*
X92683157Y-105083653D01*
X92786200Y-105605300D02*
X92787072Y-105640837D01*
X85537417Y-97962648D02*
X85392097Y-97860302D01*
X92928729Y-106036743D02*
X92950600Y-106064768D01*
X92643669Y-105024555D02*
X92664138Y-105053619D01*
X92973819Y-106091685D02*
X92998332Y-106117432D01*
X93684917Y-106658294D02*
X93719602Y-106666082D01*
X85087278Y-97677600D02*
X84928513Y-97597685D01*
X93825361Y-106679127D02*
X93860900Y-106680000D01*
X93401430Y-106515598D02*
X93429455Y-106537469D01*
X93374513Y-106492379D02*
X93401430Y-106515598D01*
X93860900Y-106680000D02*
X95250000Y-106680000D01*
X92683157Y-105083653D02*
X92700679Y-105114583D01*
X92786200Y-105605300D02*
X92786200Y-105456000D01*
X85241930Y-97765210D02*
X85087278Y-97677600D01*
X92782711Y-105385009D02*
X92785327Y-105420461D01*
X93488553Y-106576957D02*
X93519483Y-106594479D01*
X93650656Y-106648812D02*
X93684917Y-106658294D01*
X92855737Y-105914962D02*
X92871720Y-105946715D01*
X83840420Y-90750000D02*
X81646000Y-90750000D01*
X84605972Y-90182227D02*
X84625048Y-90106072D01*
X84217537Y-90655537D02*
X84284876Y-90615175D01*
X84625048Y-90106072D02*
X84636567Y-90028413D01*
X84579523Y-90256146D02*
X84605972Y-90182227D01*
X83918833Y-90746147D02*
X83996492Y-90734628D01*
X84636567Y-90028413D02*
X84640420Y-89950000D01*
X83840420Y-90750000D02*
X83918833Y-90746147D01*
X84458828Y-90457514D02*
X84505595Y-90394456D01*
X84072647Y-90715552D02*
X84146566Y-90689103D01*
X84640420Y-89950000D02*
X84640420Y-87294722D01*
X84146566Y-90689103D02*
X84217537Y-90655537D01*
X84545957Y-90327117D02*
X84579523Y-90256146D01*
X84284876Y-90615175D02*
X84347934Y-90568408D01*
X84347934Y-90568408D02*
X84406105Y-90515685D01*
X83996492Y-90734628D02*
X84072647Y-90715552D01*
X84505595Y-90394456D02*
X84545957Y-90327117D01*
X84406105Y-90515685D02*
X84458828Y-90457514D01*
X79696000Y-87800000D02*
X79696000Y-84369600D01*
X74696000Y-87800000D02*
X74696000Y-76434000D01*
X75242387Y-82965409D02*
X75222129Y-83082161D01*
X75299954Y-82735590D02*
X75268350Y-82849793D01*
X75671097Y-81998253D02*
X75602867Y-82095133D01*
X77458374Y-79399034D02*
X77467091Y-79280859D01*
X77443869Y-79516638D02*
X77458374Y-79399034D01*
X77184932Y-80300451D02*
X77238209Y-80194608D01*
X75207624Y-83199765D02*
X75198907Y-83317940D01*
X77397648Y-79749005D02*
X77423611Y-79633389D01*
X77467091Y-79280859D02*
X77470000Y-79162400D01*
X77126526Y-80403553D02*
X77184932Y-80300451D01*
X77063131Y-80503664D02*
X77126526Y-80403553D01*
X75427789Y-82404189D02*
X75379770Y-82512519D01*
X77470000Y-79162400D02*
X77470000Y-76200000D01*
X75821398Y-81815111D02*
X75744000Y-81904837D01*
X75539472Y-82195245D02*
X75481066Y-82298346D01*
X75602867Y-82095133D02*
X75539472Y-82195245D01*
X76762893Y-80869506D02*
X76844600Y-80783685D01*
X76844600Y-80783685D02*
X76921998Y-80693960D01*
X76921998Y-80693960D02*
X76994900Y-80600544D01*
X75744000Y-81904837D02*
X75671097Y-81998253D01*
X75196000Y-83436400D02*
X75196000Y-87800000D01*
X75198907Y-83317940D02*
X75196000Y-83436400D01*
X75903106Y-81729292D02*
X75821398Y-81815111D01*
X77366044Y-79863208D02*
X77397648Y-79749005D01*
X75903106Y-81729292D02*
X76762893Y-80869506D01*
X76994900Y-80600544D02*
X77063131Y-80503664D01*
X77423611Y-79633389D02*
X77443869Y-79516638D01*
X75379770Y-82512519D02*
X75337124Y-82623075D01*
X75268350Y-82849793D02*
X75242387Y-82965409D01*
X75481066Y-82298346D02*
X75427789Y-82404189D01*
X77238209Y-80194608D02*
X77286228Y-80086279D01*
X77328874Y-79975723D02*
X77366044Y-79863208D01*
X75337124Y-82623075D02*
X75299954Y-82735590D01*
X75222129Y-83082161D02*
X75207624Y-83199765D01*
X77286228Y-80086279D02*
X77328874Y-79975723D01*
X82904234Y-102030725D02*
X83021838Y-102045230D01*
X78196000Y-100526900D02*
X78196000Y-99200000D01*
X83368408Y-102123055D02*
X83480923Y-102160225D01*
X78834646Y-101665546D02*
X78877556Y-101706399D01*
X78287885Y-100988839D02*
X78266562Y-100933561D01*
X83805651Y-102304167D02*
X83908753Y-102362573D01*
X83591478Y-102202870D02*
X83699808Y-102250890D01*
X83699808Y-102250890D02*
X83805651Y-102304167D01*
X79394896Y-101982924D02*
X79452704Y-101995905D01*
X86074931Y-104573447D02*
X86128208Y-104679290D01*
X86348373Y-105474865D02*
X86357090Y-105593040D01*
X78969126Y-101781549D02*
X79017566Y-101815665D01*
X83480923Y-102160225D02*
X83591478Y-102202870D01*
X85884900Y-104273354D02*
X85953130Y-104370235D01*
X78209064Y-100704019D02*
X78201812Y-100645217D01*
X78232175Y-100820202D02*
X78219193Y-100762394D01*
X79017566Y-101815665D02*
X79067622Y-101847362D01*
X79172094Y-101903204D02*
X79226259Y-101927214D01*
X82786059Y-102022008D02*
X82904234Y-102030725D01*
X86016525Y-104470346D02*
X86074931Y-104573447D01*
X86218873Y-104898176D02*
X86256043Y-105010690D01*
X78508699Y-101337542D02*
X78470000Y-101292680D01*
X78247977Y-100877304D02*
X78232175Y-100820202D01*
X78399433Y-101197532D02*
X78367736Y-101147476D01*
X79119173Y-101876565D02*
X79172094Y-101903204D01*
X78470000Y-101292680D02*
X78433549Y-101245972D01*
X84008864Y-102425968D02*
X84105744Y-102494198D01*
X79452704Y-101995905D02*
X79511080Y-102006034D01*
X82667600Y-102019100D02*
X82786059Y-102022008D01*
X84288885Y-102644498D02*
X84374706Y-102726206D01*
X83908753Y-102362573D02*
X84008864Y-102425968D01*
X83138589Y-102065488D02*
X83254205Y-102091450D01*
X85811997Y-104179939D02*
X85884900Y-104273354D01*
X78433549Y-101245972D02*
X78399433Y-101197532D01*
X86256043Y-105010690D02*
X86287647Y-105124894D01*
X79628970Y-102017645D02*
X79688200Y-102019100D01*
X84199159Y-102567100D02*
X84288885Y-102644498D01*
X85652893Y-104004393D02*
X85734599Y-104090213D01*
X79067622Y-101847362D02*
X79119173Y-101876565D01*
X79337795Y-101967121D02*
X79394896Y-101982924D01*
X79569882Y-102013287D02*
X79628970Y-102017645D01*
X78197453Y-100586129D02*
X78196000Y-100526900D01*
X86128208Y-104679290D02*
X86176227Y-104787620D01*
X79511080Y-102006034D02*
X79569882Y-102013287D01*
X85953130Y-104370235D02*
X86016525Y-104470346D01*
X83021838Y-102045230D02*
X83138589Y-102065488D01*
X78922419Y-101745098D02*
X78969126Y-101781549D01*
X85734599Y-104090213D02*
X85811997Y-104179939D01*
X78367736Y-101147476D02*
X78338533Y-101095925D01*
X83254205Y-102091450D02*
X83368408Y-102123055D01*
X78219193Y-100762394D02*
X78209064Y-100704019D01*
X86333868Y-105357261D02*
X86348373Y-105474865D01*
X86313610Y-105240510D02*
X86333868Y-105357261D01*
X79281537Y-101948537D02*
X79337795Y-101967121D01*
X78834646Y-101665546D02*
X78549553Y-101380453D01*
X78549553Y-101380453D02*
X78508699Y-101337542D01*
X78338533Y-101095925D02*
X78311894Y-101043004D01*
X78311894Y-101043004D02*
X78287885Y-100988839D01*
X86176227Y-104787620D02*
X86218873Y-104898176D01*
X82667600Y-102019100D02*
X79688200Y-102019100D01*
X84105744Y-102494198D02*
X84199159Y-102567100D01*
X86287647Y-105124894D02*
X86313610Y-105240510D01*
X78201812Y-100645217D02*
X78197453Y-100586129D01*
X78266562Y-100933561D02*
X78247977Y-100877304D01*
X79226259Y-101927214D02*
X79281537Y-101948537D01*
X78877556Y-101706399D02*
X78922419Y-101745098D01*
X85652893Y-104004393D02*
X84374706Y-102726206D01*
X79670445Y-101544549D02*
X79717715Y-101548036D01*
X78970000Y-101145880D02*
X79008699Y-101190743D01*
X79439769Y-101492750D02*
X79484775Y-101507617D01*
X87029306Y-102256306D02*
X87833200Y-103060200D01*
X88274600Y-103506013D02*
X88351998Y-103595738D01*
X88873869Y-104773061D02*
X88888374Y-104890665D01*
X85793189Y-101595588D02*
X85908805Y-101621550D01*
X79228592Y-101386452D02*
X79268636Y-101411810D01*
X78696000Y-99200000D02*
X78696000Y-100380101D01*
X85908805Y-101621550D02*
X86023008Y-101653155D01*
X78787885Y-100842040D02*
X78811895Y-100896205D01*
X86023008Y-101653155D02*
X86135523Y-101690325D01*
X88351998Y-103595738D02*
X88424900Y-103689154D01*
X88827648Y-104540693D02*
X88853611Y-104656310D01*
X88888374Y-104890665D02*
X88897091Y-105008840D01*
X79082256Y-101266357D02*
X79116583Y-101299040D01*
X86460251Y-101834267D02*
X86563353Y-101892673D01*
X79395546Y-101475691D02*
X79439769Y-101492750D01*
X78709065Y-100557220D02*
X78719194Y-100615595D01*
X78732175Y-100673403D02*
X78747977Y-100730505D01*
X79082256Y-101266357D02*
X79049553Y-101233654D01*
X79309877Y-101435173D02*
X79352214Y-101456484D01*
X88796044Y-104426490D02*
X88827648Y-104540693D01*
X88900000Y-105127300D02*
X88900000Y-106680000D01*
X86760344Y-102024298D02*
X86853759Y-102097200D01*
X79116583Y-101299040D02*
X79152473Y-101329999D01*
X78697454Y-100439330D02*
X78701812Y-100498418D01*
X79623403Y-101538747D02*
X79670445Y-101544549D01*
X79268636Y-101411810D02*
X79309877Y-101435173D01*
X78867736Y-101000677D02*
X78899434Y-101050733D01*
X88897091Y-105008840D02*
X88900000Y-105127300D01*
X78701812Y-100498418D02*
X78709065Y-100557220D01*
X88853611Y-104656310D02*
X88873869Y-104773061D01*
X78766562Y-100786762D02*
X78787885Y-100842040D01*
X86943485Y-102174598D02*
X87029306Y-102256306D01*
X87833200Y-103060200D02*
X87833200Y-103060500D01*
X88424900Y-103689154D02*
X88493131Y-103786034D01*
X88556526Y-103886146D02*
X88614932Y-103989247D01*
X88716228Y-104203420D02*
X88758874Y-104313975D01*
X85440659Y-101552108D02*
X85558834Y-101560825D01*
X78811895Y-100896205D02*
X78838533Y-100949126D01*
X85558834Y-101560825D02*
X85676438Y-101575330D01*
X88192893Y-103420193D02*
X87833200Y-103060500D01*
X88493131Y-103786034D02*
X88556526Y-103886146D01*
X78747977Y-100730505D02*
X78766562Y-100786762D01*
X86853759Y-102097200D02*
X86943485Y-102174598D01*
X78838533Y-100949126D02*
X78867736Y-101000677D01*
X79152473Y-101329999D02*
X79189840Y-101359160D01*
X88668209Y-104095090D02*
X88716228Y-104203420D01*
X79484775Y-101507617D02*
X79530456Y-101520259D01*
X79189840Y-101359160D02*
X79228592Y-101386452D01*
X79008699Y-101190743D02*
X79049553Y-101233654D01*
X86135523Y-101690325D02*
X86246078Y-101732970D01*
X78696000Y-100380101D02*
X78697454Y-100439330D01*
X86354408Y-101780990D02*
X86460251Y-101834267D01*
X86663464Y-101956068D02*
X86760344Y-102024298D01*
X86563353Y-101892673D02*
X86663464Y-101956068D01*
X79576702Y-101530644D02*
X79623403Y-101538747D01*
X79765099Y-101549200D02*
X85322200Y-101549200D01*
X85676438Y-101575330D02*
X85793189Y-101595588D01*
X88758874Y-104313975D02*
X88796044Y-104426490D01*
X78899434Y-101050733D02*
X78933549Y-101099173D01*
X78719194Y-100615595D02*
X78732175Y-100673403D01*
X79352214Y-101456484D02*
X79395546Y-101475691D01*
X88614932Y-103989247D02*
X88668209Y-104095090D01*
X79717715Y-101548036D02*
X79765099Y-101549200D01*
X88192893Y-103420193D02*
X88274600Y-103506013D01*
X78933549Y-101099173D02*
X78970000Y-101145880D01*
X85322200Y-101549200D02*
X85440659Y-101552108D01*
X79530456Y-101520259D02*
X79576702Y-101530644D01*
X86246078Y-101732970D02*
X86354408Y-101780990D01*
X77744000Y-82297517D02*
X77671097Y-82390933D01*
X82129643Y-81042353D02*
X82017128Y-81079523D01*
X81902925Y-81111128D02*
X81787309Y-81137090D01*
X78809390Y-81415269D02*
X78703547Y-81468546D01*
X83808374Y-78916434D02*
X83817091Y-78798259D01*
X82657584Y-80776610D02*
X82557473Y-80840005D01*
X77903106Y-82121972D02*
X77821398Y-82207791D01*
X81434779Y-81180571D02*
X81316320Y-81183480D01*
X82454371Y-80898411D02*
X82348528Y-80951688D01*
X78220313Y-81808878D02*
X78134493Y-81890586D01*
X77539472Y-82587925D02*
X77481066Y-82691026D01*
X77379770Y-82905199D02*
X77337124Y-83015755D01*
X77207624Y-83592445D02*
X77198907Y-83710620D01*
X83747648Y-79266405D02*
X83773611Y-79150789D01*
X77198907Y-83710620D02*
X77196000Y-83829080D01*
X82754464Y-80708379D02*
X82657584Y-80776610D01*
X83716044Y-79380608D02*
X83747648Y-79266405D01*
X78600446Y-81526952D02*
X78500334Y-81590347D01*
X83793869Y-79034038D02*
X83808374Y-78916434D01*
X77427789Y-82796869D02*
X77379770Y-82905199D01*
X83023426Y-80476372D02*
X82937605Y-80558079D01*
X79254993Y-81255830D02*
X79140790Y-81287434D01*
X83023426Y-80476372D02*
X83112893Y-80386906D01*
X83636228Y-79603679D02*
X83678874Y-79493123D01*
X79841600Y-81183480D02*
X81316320Y-81183480D01*
X77242387Y-83358089D02*
X77222129Y-83474841D01*
X77196000Y-83829080D02*
X77196000Y-87800000D01*
X83194600Y-80301085D02*
X83271998Y-80211360D01*
X83678874Y-79493123D02*
X83716044Y-79380608D01*
X79370610Y-81229867D02*
X79254993Y-81255830D01*
X77299954Y-83128270D02*
X77268350Y-83242473D01*
X82557473Y-80840005D02*
X82454371Y-80898411D01*
X81787309Y-81137090D02*
X81670558Y-81157348D01*
X78310038Y-81731480D02*
X78220313Y-81808878D01*
X83588209Y-79712008D02*
X83636228Y-79603679D01*
X83534932Y-79817851D02*
X83588209Y-79712008D01*
X83773611Y-79150789D02*
X83793869Y-79034038D01*
X78703547Y-81468546D02*
X78600446Y-81526952D01*
X78917720Y-81367250D02*
X78809390Y-81415269D01*
X79487361Y-81209609D02*
X79370610Y-81229867D01*
X78403454Y-81658578D02*
X78310038Y-81731480D01*
X77602867Y-82487813D02*
X77539472Y-82587925D01*
X83413131Y-80021064D02*
X83476526Y-79920953D01*
X79723140Y-81186387D02*
X79604965Y-81195104D01*
X83112893Y-80386906D02*
X83194600Y-80301085D01*
X83344900Y-80117944D02*
X83413131Y-80021064D01*
X82937605Y-80558079D02*
X82847879Y-80635477D01*
X77481066Y-82691026D02*
X77427789Y-82796869D01*
X82240199Y-80999707D02*
X82129643Y-81042353D01*
X77903106Y-82121972D02*
X78134493Y-81890586D01*
X79140790Y-81287434D02*
X79028275Y-81324604D01*
X81670558Y-81157348D02*
X81552954Y-81171853D01*
X77821398Y-82207791D02*
X77744000Y-82297517D01*
X79604965Y-81195104D02*
X79487361Y-81209609D01*
X78500334Y-81590347D02*
X78403454Y-81658578D01*
X82348528Y-80951688D02*
X82240199Y-80999707D01*
X79841600Y-81183480D02*
X79723140Y-81186387D01*
X79028275Y-81324604D02*
X78917720Y-81367250D01*
X83817091Y-78798259D02*
X83820000Y-78679800D01*
X83271998Y-80211360D02*
X83344900Y-80117944D01*
X83820000Y-78679800D02*
X83820000Y-76200000D01*
X82017128Y-81079523D02*
X81902925Y-81111128D01*
X77268350Y-83242473D02*
X77242387Y-83358089D01*
X83476526Y-79920953D02*
X83534932Y-79817851D01*
X77222129Y-83474841D02*
X77207624Y-83592445D01*
X77671097Y-82390933D02*
X77602867Y-82487813D01*
X77337124Y-83015755D02*
X77299954Y-83128270D01*
X81552954Y-81171853D02*
X81434779Y-81180571D01*
X82847879Y-80635477D02*
X82754464Y-80708379D01*
X78499713Y-82367678D02*
X78413893Y-82449386D01*
X83616179Y-81739371D02*
X83497720Y-81742280D01*
X78589438Y-82290280D02*
X78499713Y-82367678D01*
X79088790Y-81974069D02*
X78982947Y-82027346D01*
X78403106Y-82460172D02*
X78321397Y-82545991D01*
X77981065Y-83029226D02*
X77927789Y-83135069D01*
X86218874Y-79693323D02*
X86256044Y-79580808D01*
X79534393Y-81814630D02*
X79420190Y-81846234D01*
X78779734Y-82149147D02*
X78682854Y-82217378D01*
X77768349Y-83580673D02*
X77742387Y-83696289D01*
X84198528Y-81638323D02*
X84084325Y-81669928D01*
X86074932Y-80018051D02*
X86128209Y-79912208D01*
X77837124Y-83353955D02*
X77799954Y-83466470D01*
X84635771Y-81457211D02*
X84529928Y-81510488D01*
X79884365Y-81753904D02*
X79766761Y-81768409D01*
X84935864Y-81267179D02*
X84838984Y-81335410D01*
X78403106Y-82460172D02*
X78413893Y-82449386D01*
X80002540Y-81745187D02*
X79884365Y-81753904D01*
X86287648Y-79466605D02*
X86313611Y-79350989D01*
X86348374Y-79116634D02*
X86357091Y-78998459D01*
X80121000Y-81742280D02*
X83497720Y-81742280D01*
X85811998Y-80411560D02*
X85884900Y-80318144D01*
X83851958Y-81716148D02*
X83734354Y-81730653D01*
X77696000Y-84167280D02*
X77696000Y-87800000D01*
X85204826Y-81035172D02*
X85119005Y-81116879D01*
X84084325Y-81669928D02*
X83968709Y-81695890D01*
X77927789Y-83135069D02*
X77879769Y-83243399D01*
X86256044Y-79580808D02*
X86287648Y-79466605D01*
X86313611Y-79350989D02*
X86333869Y-79234238D01*
X78039472Y-82926124D02*
X77981065Y-83029226D01*
X84738873Y-81398805D02*
X84635771Y-81457211D01*
X78243999Y-82635717D02*
X78171097Y-82729133D01*
X78982947Y-82027346D02*
X78879846Y-82085752D01*
X86128209Y-79912208D02*
X86176228Y-79803879D01*
X77742387Y-83696289D02*
X77722129Y-83813041D01*
X77707624Y-83930645D02*
X77698907Y-84048820D01*
X85652893Y-80587106D02*
X85734600Y-80501285D01*
X83968709Y-81695890D02*
X83851958Y-81716148D01*
X79420190Y-81846234D02*
X79307675Y-81883404D01*
X84529928Y-81510488D02*
X84421599Y-81558507D01*
X86357091Y-78998459D02*
X86360000Y-78880000D01*
X77799954Y-83466470D02*
X77768349Y-83580673D01*
X78102866Y-82826013D02*
X78039472Y-82926124D01*
X79307675Y-81883404D02*
X79197120Y-81926050D01*
X85119005Y-81116879D02*
X85029279Y-81194277D01*
X78879846Y-82085752D02*
X78779734Y-82149147D01*
X83734354Y-81730653D02*
X83616179Y-81739371D01*
X85029279Y-81194277D02*
X84935864Y-81267179D01*
X80121000Y-81742280D02*
X80002540Y-81745187D01*
X86333869Y-79234238D02*
X86348374Y-79116634D01*
X86360000Y-78880000D02*
X86360000Y-76200000D01*
X84421599Y-81558507D02*
X84311043Y-81601153D01*
X84838984Y-81335410D02*
X84738873Y-81398805D01*
X78321397Y-82545991D02*
X78243999Y-82635717D01*
X86176228Y-79803879D02*
X86218874Y-79693323D01*
X85734600Y-80501285D02*
X85811998Y-80411560D01*
X84311043Y-81601153D02*
X84198528Y-81638323D01*
X85884900Y-80318144D02*
X85953131Y-80221264D01*
X78171097Y-82729133D02*
X78102866Y-82826013D01*
X85204826Y-81035172D02*
X85652893Y-80587106D01*
X77879769Y-83243399D02*
X77837124Y-83353955D01*
X77698907Y-84048820D02*
X77696000Y-84167280D01*
X78682854Y-82217378D02*
X78589438Y-82290280D01*
X86016526Y-80121153D02*
X86074932Y-80018051D01*
X79197120Y-81926050D02*
X79088790Y-81974069D01*
X85953131Y-80221264D02*
X86016526Y-80121153D01*
X79766761Y-81768409D02*
X79650010Y-81788667D01*
X77722129Y-83813041D02*
X77707624Y-83930645D01*
X79650010Y-81788667D02*
X79534393Y-81814630D01*
X63885700Y-80471900D02*
X65406100Y-80471900D01*
X63881000Y-80467200D02*
X63885700Y-80471900D01*
X56615000Y-87017900D02*
X56613544Y-86958670D01*
X56591804Y-86782405D02*
X56578823Y-86724596D01*
X56578823Y-86724596D02*
X56563021Y-86667495D01*
X56472465Y-86448873D02*
X56443262Y-86397322D01*
X56499103Y-86501795D02*
X56472465Y-86448873D01*
X56544436Y-86611237D02*
X56523113Y-86555960D01*
X56411564Y-86347267D02*
X56377449Y-86298827D01*
X56563021Y-86667495D02*
X56544436Y-86611237D01*
X56613544Y-86958670D02*
X56609186Y-86899582D01*
X56443262Y-86397322D02*
X56411564Y-86347267D01*
X56377449Y-86298827D02*
X56340998Y-86252119D01*
X56609186Y-86899582D02*
X56601933Y-86840780D01*
X56302299Y-86207256D02*
X56261446Y-86164346D01*
X56601933Y-86840780D02*
X56591804Y-86782405D01*
X56615000Y-87017900D02*
X56615000Y-87769900D01*
X56261446Y-86164346D02*
X55565800Y-85468700D01*
X56340998Y-86252119D02*
X56302299Y-86207256D01*
X56523113Y-86555960D02*
X56499103Y-86501795D01*
X83687800Y-91750000D02*
X83687920Y-91749880D01*
X81646000Y-91750000D02*
X83687800Y-91750000D01*
X81649040Y-91246960D02*
X81646000Y-91250000D01*
X83012280Y-91246960D02*
X81649040Y-91246960D01*
X56591805Y-90631994D02*
X56578824Y-90689802D01*
X56499104Y-90912604D02*
X56472465Y-90965525D01*
X56613545Y-90455729D02*
X56609187Y-90514817D01*
X56615000Y-90396500D02*
X56613545Y-90455729D01*
X56523113Y-90858439D02*
X56499104Y-90912604D01*
X56411565Y-91067132D02*
X56377449Y-91115572D01*
X56601934Y-90573619D02*
X56591805Y-90631994D01*
X56615000Y-90396500D02*
X56615000Y-89669900D01*
X56443262Y-91017076D02*
X56411565Y-91067132D01*
X56340998Y-91162279D02*
X56302299Y-91207142D01*
X56377449Y-91115572D02*
X56340998Y-91162279D01*
X56544436Y-90803161D02*
X56523113Y-90858439D01*
X56302299Y-91207142D02*
X56261446Y-91250053D01*
X56609187Y-90514817D02*
X56601934Y-90573619D01*
X56578824Y-90689802D02*
X56563021Y-90746904D01*
X56563021Y-90746904D02*
X56544436Y-90803161D01*
X56472465Y-90965525D02*
X56443262Y-91017076D01*
X56261446Y-91250053D02*
X55565800Y-91945700D01*
X65406100Y-79971900D02*
X64274700Y-79971900D01*
X64274700Y-79971900D02*
X64173100Y-79870300D01*
X63322200Y-79870300D02*
X64173100Y-79870300D01*
X74196000Y-86456440D02*
X73964800Y-86225240D01*
X74196000Y-87800000D02*
X74196000Y-86456440D01*
X65574795Y-100203449D02*
X65829978Y-100119147D01*
X69566597Y-97271704D02*
X69601282Y-97263915D01*
X67458939Y-99196352D02*
X67662438Y-99020813D01*
X69465415Y-97305130D02*
X69498582Y-97292336D01*
X65053564Y-100334010D02*
X65315782Y-100275127D01*
X69498582Y-97292336D02*
X69532336Y-97281185D01*
X67247073Y-99361694D02*
X67458939Y-99196352D01*
X67027349Y-99516441D02*
X67247073Y-99361694D01*
X69707041Y-97250871D02*
X69742580Y-97250000D01*
X69601282Y-97263915D02*
X69636308Y-97257838D01*
X66326410Y-99913518D02*
X66566462Y-99792686D01*
X65829978Y-100119147D02*
X66080718Y-100022426D01*
X66080718Y-100022426D02*
X66326410Y-99913518D01*
X66566462Y-99792686D02*
X66800296Y-99660221D01*
X69256192Y-97437618D02*
X69283110Y-97414399D01*
X69532336Y-97281185D02*
X69566597Y-97271704D01*
X69230447Y-97462131D02*
X69256192Y-97437618D01*
X69742580Y-97250000D02*
X70246000Y-97250000D01*
X63985360Y-100439220D02*
X64254026Y-100432624D01*
X66800296Y-99660221D02*
X67027349Y-99516441D01*
X69283110Y-97414399D02*
X69311135Y-97392528D01*
X64522046Y-100412853D02*
X64788773Y-100379956D01*
X64788773Y-100379956D02*
X65053564Y-100334010D01*
X64254026Y-100432624D02*
X64522046Y-100412853D01*
X69311135Y-97392528D02*
X69340199Y-97372059D01*
X69401163Y-97335519D02*
X69432916Y-97319536D01*
X69432916Y-97319536D02*
X69465415Y-97305130D01*
X69230447Y-97462131D02*
X67857078Y-98835501D01*
X67662438Y-99020813D02*
X67857078Y-98835501D01*
X69340199Y-97372059D02*
X69370233Y-97353040D01*
X65315782Y-100275127D02*
X65574795Y-100203449D01*
X69671589Y-97253486D02*
X69707041Y-97250871D01*
X69370233Y-97353040D02*
X69401163Y-97335519D01*
X69636308Y-97257838D02*
X69671589Y-97253486D01*
X71516240Y-98028760D02*
X71594980Y-97937320D01*
X71594980Y-97937320D02*
X71658480Y-97833180D01*
X71658480Y-97833180D02*
X71706740Y-97711260D01*
X71706740Y-97711260D02*
X71734680Y-97556320D01*
X71734680Y-97556320D02*
X71727060Y-97373440D01*
X71727060Y-97373440D02*
X71686420Y-97226120D01*
X71686420Y-97226120D02*
X71602600Y-97068640D01*
X71602600Y-97068640D02*
X71475600Y-96928940D01*
X71475600Y-96928940D02*
X71328280Y-96829880D01*
X71328280Y-96829880D02*
X71208900Y-96781620D01*
X71208900Y-96781620D02*
X71099680Y-96756220D01*
X71099680Y-96756220D02*
X71026020Y-96748600D01*
X71026020Y-96748600D02*
X70246000Y-96750000D01*
X66375820Y-101794048D02*
X66759608Y-101667261D01*
X69515568Y-100015402D02*
X69808301Y-99736698D01*
X68560415Y-100760811D02*
X68890873Y-100528076D01*
X65193668Y-102059509D02*
X65591905Y-101990408D01*
X67867256Y-101176274D02*
X68218935Y-100977051D01*
X64389426Y-102138720D02*
X64792519Y-102108986D01*
X66759608Y-101667261D02*
X67136713Y-101521796D01*
X65986273Y-101901850D02*
X66375820Y-101794048D01*
X67506225Y-101358002D02*
X67867256Y-101176274D01*
X65591905Y-101990408D02*
X65986273Y-101901850D01*
X68890873Y-100528076D02*
X69209513Y-100279406D01*
X63985360Y-102148640D02*
X64389426Y-102138720D01*
X69209513Y-100279406D02*
X69515568Y-100015402D01*
X64792519Y-102108986D02*
X65193668Y-102059509D01*
X68218935Y-100977051D02*
X68560415Y-100760811D01*
X69808301Y-99736698D02*
X71516240Y-98028760D01*
X67136713Y-101521796D02*
X67506225Y-101358002D01*
X65979490Y-103661650D02*
X66469010Y-103551725D01*
X72092956Y-99953725D02*
X72110478Y-99922794D01*
X72174293Y-99757361D02*
X72182082Y-99722676D01*
X70469948Y-101537821D02*
X70849847Y-101210118D01*
X71983867Y-100093511D02*
X71213210Y-100864169D01*
X72031598Y-100040847D02*
X72053469Y-100012822D01*
X64486878Y-103845747D02*
X64987229Y-103808838D01*
X69664236Y-102135378D02*
X70074427Y-101846489D01*
X66469010Y-103551725D02*
X66952546Y-103417913D01*
X69240365Y-102403792D02*
X69664236Y-102135378D01*
X72196000Y-99581380D02*
X72196000Y-99200000D01*
X66952546Y-103417913D02*
X67428934Y-103260535D01*
X72073938Y-99983758D02*
X72092956Y-99953725D01*
X64987229Y-103808838D02*
X65485166Y-103747424D01*
X68803833Y-102651084D02*
X69240365Y-102403792D01*
X72140867Y-99858543D02*
X72153661Y-99825376D01*
X67897025Y-103079972D02*
X68355694Y-102876659D01*
X72182082Y-99722676D02*
X72188160Y-99687651D01*
X72008378Y-100067764D02*
X72031598Y-100040847D01*
X72164812Y-99791622D02*
X72174293Y-99757361D01*
X72053469Y-100012822D02*
X72073938Y-99983758D01*
X70074427Y-101846489D02*
X70469948Y-101537821D01*
X70849847Y-101210118D02*
X71213210Y-100864169D01*
X71983867Y-100093511D02*
X72008378Y-100067764D01*
X72188160Y-99687651D02*
X72192511Y-99652370D01*
X72110478Y-99922794D02*
X72126461Y-99891042D01*
X65485166Y-103747424D02*
X65979490Y-103661650D01*
X72126461Y-99891042D02*
X72140867Y-99858543D01*
X68355694Y-102876659D02*
X68803833Y-102651084D01*
X67428934Y-103260535D02*
X67897025Y-103079972D01*
X72192511Y-99652370D02*
X72195126Y-99616917D01*
X72195126Y-99616917D02*
X72196000Y-99581380D01*
X72153661Y-99825376D02*
X72164812Y-99791622D01*
X63985320Y-103858060D02*
X64486878Y-103845747D01*
X54415000Y-89669900D02*
X52647400Y-89669900D01*
X54415000Y-87769900D02*
X52647400Y-87769900D01*
X67902041Y-76831169D02*
X67891380Y-76858808D01*
X78696000Y-88903360D02*
X78694280Y-88905080D01*
X67874186Y-76915488D02*
X67867696Y-76944392D01*
X68012448Y-76656817D02*
X67993099Y-76679248D01*
X67859005Y-77002981D02*
X67856826Y-77032525D01*
X67856826Y-77032525D02*
X67856100Y-77062140D01*
X67914046Y-76804087D02*
X67902041Y-76831169D01*
X67957815Y-76726823D02*
X67941967Y-76751850D01*
X67891380Y-76858808D02*
X67882087Y-76886937D01*
X67867696Y-76944392D02*
X67862631Y-76973580D01*
X67993099Y-76679248D02*
X67974873Y-76702602D01*
X68032876Y-76635363D02*
X68356480Y-76311760D01*
X67862631Y-76973580D02*
X67859005Y-77002981D01*
X67927365Y-76777626D02*
X67914046Y-76804087D01*
X68032876Y-76635363D02*
X68012448Y-76656817D01*
X67882087Y-76886937D02*
X67874186Y-76915488D01*
X78696000Y-87800000D02*
X78696000Y-88903360D01*
X67974873Y-76702602D02*
X67957815Y-76726823D01*
X67856100Y-77062140D02*
X67856100Y-77521900D01*
X67941967Y-76751850D02*
X67927365Y-76777626D01*
X67356100Y-77065060D02*
X67356100Y-77521900D01*
X67338012Y-76918408D02*
X67330111Y-76889857D01*
X78196000Y-87800000D02*
X78196000Y-89376471D01*
X67349567Y-76976500D02*
X67344502Y-76947312D01*
X78196000Y-89376471D02*
X78192381Y-89380090D01*
X67284833Y-76780546D02*
X67270231Y-76754771D01*
X67270231Y-76754771D02*
X67254382Y-76729743D01*
X67355372Y-77035445D02*
X67353193Y-77005901D01*
X67179323Y-76638283D02*
X66852800Y-76311760D01*
X67310157Y-76834089D02*
X67298152Y-76807007D01*
X67320818Y-76861728D02*
X67310157Y-76834089D01*
X67254382Y-76729743D02*
X67237325Y-76705523D01*
X67353193Y-77005901D02*
X67349567Y-76976500D01*
X67298152Y-76807007D02*
X67284833Y-76780546D01*
X67199750Y-76659737D02*
X67179323Y-76638283D01*
X67356100Y-77065060D02*
X67355372Y-77035445D01*
X67344502Y-76947312D02*
X67338012Y-76918408D01*
X67237325Y-76705523D02*
X67219099Y-76682169D01*
X67219099Y-76682169D02*
X67199750Y-76659737D01*
X67330111Y-76889857D02*
X67320818Y-76861728D01*
X63670700Y-78649549D02*
X63692156Y-78629123D01*
X63593709Y-80952685D02*
X63690782Y-80967084D01*
X72405240Y-81635600D02*
X72405240Y-80586440D01*
X63600695Y-78704182D02*
X63624915Y-78687124D01*
X63015789Y-80606293D02*
X63081693Y-80679006D01*
X62808014Y-80166990D02*
X62831859Y-80262184D01*
X62831859Y-80262184D02*
X62864920Y-80354583D01*
X63383127Y-78794302D02*
X63412031Y-78787811D01*
X63575667Y-78720031D02*
X63600695Y-78704182D01*
X63353939Y-78799367D02*
X63383127Y-78794302D01*
X63788800Y-80971900D02*
X65406100Y-80971900D01*
X63648269Y-78668899D02*
X63670700Y-78649549D01*
X63324538Y-78802993D02*
X63353939Y-78799367D01*
X63692156Y-78629123D02*
X63804800Y-78516480D01*
X63317403Y-80853821D02*
X63406116Y-80895779D01*
X62864920Y-80354583D02*
X62906878Y-80443296D01*
X63549892Y-78734632D02*
X63575667Y-78720031D01*
X63081693Y-80679006D02*
X63154406Y-80744910D01*
X63154406Y-80744910D02*
X63233229Y-80803369D01*
X62788800Y-79971900D02*
X62793615Y-80069917D01*
X62906878Y-80443296D02*
X62957330Y-80527470D01*
X63233229Y-80803369D02*
X63317403Y-80853821D01*
X63294994Y-78805172D02*
X63324538Y-78802993D01*
X63265380Y-78805900D02*
X63294994Y-78805172D01*
X63265380Y-78805900D02*
X62788800Y-78805900D01*
X62957330Y-80527470D02*
X63015789Y-80606293D01*
X62793615Y-80069917D02*
X62808014Y-80166990D01*
X63412031Y-78787811D02*
X63440581Y-78779910D01*
X63690782Y-80967084D02*
X63788800Y-80971900D01*
X63496349Y-78759956D02*
X63523431Y-78747951D01*
X63624915Y-78687124D02*
X63648269Y-78668899D01*
X62788800Y-79971900D02*
X62788800Y-78805900D01*
X63523431Y-78747951D02*
X63549892Y-78734632D01*
X63440581Y-78779910D02*
X63468710Y-78770618D01*
X63406116Y-80895779D02*
X63498515Y-80928840D01*
X63468710Y-78770618D02*
X63496349Y-78759956D01*
X63498515Y-80928840D02*
X63593709Y-80952685D01*
G04 #@! TA.AperFunction,Conductor*
G36*
X77762622Y-88920002D02*
G01*
X77809115Y-88973658D01*
X77820501Y-89026000D01*
X77820501Y-89086611D01*
X77798154Y-89158248D01*
X77783329Y-89179698D01*
X77742489Y-89308834D01*
X77741425Y-89444271D01*
X77744124Y-89453296D01*
X77777533Y-89565009D01*
X77777534Y-89565012D01*
X77780232Y-89574032D01*
X77785463Y-89581860D01*
X77785464Y-89581863D01*
X77850246Y-89678816D01*
X77855479Y-89686647D01*
X77960513Y-89772158D01*
X78086047Y-89823004D01*
X78095434Y-89823817D01*
X78211602Y-89833879D01*
X78211605Y-89833879D01*
X78220982Y-89834691D01*
X78230183Y-89832710D01*
X78230185Y-89832710D01*
X78302935Y-89817047D01*
X78353389Y-89806185D01*
X78471560Y-89740006D01*
X78565048Y-89642005D01*
X78573498Y-89625095D01*
X78599012Y-89574032D01*
X78625587Y-89520847D01*
X78635734Y-89459885D01*
X78666649Y-89395972D01*
X78733505Y-89357394D01*
X78798549Y-89343390D01*
X78855288Y-89331175D01*
X78973459Y-89264996D01*
X79066947Y-89166995D01*
X79087474Y-89125915D01*
X79123278Y-89054258D01*
X79127486Y-89045837D01*
X79134231Y-89005312D01*
X79165146Y-88941401D01*
X79258521Y-88900000D01*
X79703810Y-88900000D01*
X79792905Y-88936905D01*
X80481095Y-89625095D01*
X80518000Y-89714190D01*
X80518000Y-92827528D01*
X80497998Y-92895649D01*
X80444342Y-92942142D01*
X80365636Y-92946644D01*
X80364961Y-92950182D01*
X80211345Y-92920878D01*
X80211343Y-92920878D01*
X80203559Y-92919393D01*
X80121566Y-92924552D01*
X80047483Y-92929213D01*
X80047481Y-92929213D01*
X80039572Y-92929711D01*
X80032036Y-92932160D01*
X80032034Y-92932160D01*
X79890844Y-92978035D01*
X79890841Y-92978037D01*
X79883302Y-92980486D01*
X79744569Y-93068529D01*
X79739142Y-93074308D01*
X79739141Y-93074309D01*
X79691652Y-93124879D01*
X79632089Y-93188307D01*
X79552932Y-93332294D01*
X79512069Y-93491444D01*
X79512069Y-93655756D01*
X79552932Y-93814906D01*
X79632089Y-93958893D01*
X79689593Y-94020127D01*
X79702750Y-94034138D01*
X79736901Y-94120392D01*
X79736900Y-97258448D01*
X79702750Y-97344701D01*
X79632089Y-97419947D01*
X79552932Y-97563934D01*
X79512069Y-97723084D01*
X79512069Y-97887396D01*
X79514041Y-97895078D01*
X79514942Y-97902205D01*
X79503637Y-97972296D01*
X79456233Y-98025148D01*
X79389936Y-98044000D01*
X75697500Y-98044000D01*
X75629379Y-98023998D01*
X75582886Y-97970342D01*
X75571500Y-97918000D01*
X75571500Y-97737008D01*
X75584787Y-97680689D01*
X75585621Y-97679020D01*
X75627366Y-97595475D01*
X75631338Y-97571615D01*
X75648791Y-97466755D01*
X75649604Y-97461873D01*
X75649660Y-97454718D01*
X75634610Y-97354614D01*
X75630924Y-97330094D01*
X75630924Y-97330093D01*
X75629524Y-97320783D01*
X75570895Y-97198689D01*
X75478958Y-97099232D01*
X75361841Y-97031205D01*
X75277161Y-97011577D01*
X75239075Y-97002749D01*
X75239074Y-97002749D01*
X75229898Y-97000622D01*
X75220503Y-97001287D01*
X75220500Y-97001287D01*
X75145682Y-97006585D01*
X75094796Y-97010188D01*
X75086017Y-97013584D01*
X75086014Y-97013585D01*
X74977259Y-97055659D01*
X74977257Y-97055660D01*
X74968479Y-97059056D01*
X74862115Y-97142907D01*
X74821204Y-97202100D01*
X74798801Y-97234514D01*
X74743616Y-97279180D01*
X74673042Y-97286921D01*
X74609488Y-97255277D01*
X74581567Y-97217417D01*
X74570135Y-97193611D01*
X74478198Y-97094154D01*
X74361081Y-97026127D01*
X74270408Y-97005110D01*
X74238315Y-96997671D01*
X74238314Y-96997671D01*
X74229138Y-96995544D01*
X74219743Y-96996209D01*
X74219740Y-96996209D01*
X74142659Y-97001667D01*
X74094036Y-97005110D01*
X74085257Y-97008506D01*
X74085254Y-97008507D01*
X73976499Y-97050581D01*
X73976497Y-97050582D01*
X73967719Y-97053978D01*
X73861355Y-97137829D01*
X73819292Y-97198689D01*
X73787843Y-97244191D01*
X73732658Y-97288857D01*
X73693091Y-97298237D01*
X73587037Y-97305746D01*
X73578258Y-97309142D01*
X73578255Y-97309143D01*
X73469500Y-97351217D01*
X73469498Y-97351218D01*
X73460720Y-97354614D01*
X73354356Y-97438465D01*
X73277349Y-97549884D01*
X73236509Y-97679020D01*
X73235445Y-97814457D01*
X73238144Y-97823481D01*
X73238144Y-97823483D01*
X73255614Y-97881898D01*
X73255969Y-97952894D01*
X73217884Y-98012811D01*
X73134897Y-98044000D01*
X72188190Y-98044000D01*
X72099095Y-98007095D01*
X72084777Y-97992777D01*
X72050751Y-97930465D01*
X72057356Y-97855723D01*
X72060098Y-97849061D01*
X72064014Y-97842160D01*
X72066034Y-97834710D01*
X72075653Y-97781370D01*
X72076462Y-97777274D01*
X72086818Y-97729153D01*
X72086214Y-97724049D01*
X72086591Y-97720717D01*
X72099223Y-97650664D01*
X72102705Y-97636261D01*
X72109599Y-97613662D01*
X72109600Y-97613659D01*
X72111912Y-97606078D01*
X72112257Y-97598367D01*
X72111750Y-97586188D01*
X72110306Y-97551532D01*
X72110208Y-97544592D01*
X72110683Y-97509323D01*
X72110683Y-97509322D01*
X72110823Y-97498911D01*
X72108210Y-97490928D01*
X72107457Y-97483157D01*
X72103323Y-97383960D01*
X72103510Y-97370082D01*
X72105251Y-97344735D01*
X72105251Y-97344733D01*
X72105794Y-97336824D01*
X72104391Y-97329234D01*
X72092513Y-97286176D01*
X72090655Y-97278513D01*
X72083737Y-97245502D01*
X72081601Y-97235310D01*
X72076757Y-97227164D01*
X72073646Y-97217786D01*
X72072926Y-97215173D01*
X72055890Y-97153418D01*
X72052798Y-97138937D01*
X72048040Y-97107753D01*
X72045015Y-97100652D01*
X72022964Y-97059225D01*
X72019887Y-97053037D01*
X72005048Y-97021028D01*
X72005046Y-97021025D01*
X72000666Y-97011577D01*
X71994865Y-97005522D01*
X71990839Y-96998867D01*
X71943701Y-96910306D01*
X71938878Y-96900182D01*
X71923960Y-96864906D01*
X71919280Y-96858768D01*
X71893269Y-96830156D01*
X71886504Y-96822058D01*
X71868801Y-96798966D01*
X71862466Y-96790702D01*
X71853795Y-96784935D01*
X71846636Y-96778242D01*
X71839457Y-96770962D01*
X71768634Y-96693057D01*
X71760884Y-96683657D01*
X71743784Y-96660743D01*
X71739044Y-96654391D01*
X71733034Y-96649547D01*
X71699166Y-96626774D01*
X71691422Y-96621127D01*
X71685290Y-96616289D01*
X71659059Y-96595590D01*
X71649234Y-96592135D01*
X71645426Y-96590039D01*
X71635869Y-96584212D01*
X71563831Y-96535772D01*
X71550881Y-96525785D01*
X71535367Y-96512127D01*
X71535362Y-96512124D01*
X71529414Y-96506887D01*
X71522534Y-96503387D01*
X71489968Y-96490222D01*
X71475426Y-96484343D01*
X71470467Y-96482213D01*
X71447817Y-96471907D01*
X71394097Y-96425489D01*
X71374000Y-96357221D01*
X71374000Y-95251500D01*
X71394002Y-95183379D01*
X71447658Y-95136886D01*
X71500000Y-95125500D01*
X72547651Y-95125500D01*
X72610239Y-95142622D01*
X72615332Y-95146768D01*
X72624063Y-95150304D01*
X72624064Y-95150305D01*
X72678099Y-95172191D01*
X72740866Y-95197614D01*
X72750253Y-95198427D01*
X72866421Y-95208489D01*
X72866424Y-95208489D01*
X72875801Y-95209301D01*
X72885002Y-95207320D01*
X72885004Y-95207320D01*
X72957754Y-95191657D01*
X73008208Y-95180795D01*
X73126379Y-95114616D01*
X73219867Y-95016615D01*
X73280406Y-94895457D01*
X73302644Y-94761855D01*
X73302700Y-94754700D01*
X73282564Y-94620765D01*
X73223935Y-94498671D01*
X73131998Y-94399214D01*
X73061673Y-94358366D01*
X73012814Y-94306855D01*
X72999560Y-94237107D01*
X73026120Y-94171265D01*
X73063388Y-94139480D01*
X73113679Y-94111316D01*
X73207167Y-94013315D01*
X73267706Y-93892157D01*
X73289944Y-93758555D01*
X73290000Y-93751400D01*
X73269864Y-93617465D01*
X73211235Y-93495371D01*
X73119298Y-93395914D01*
X73002181Y-93327887D01*
X72936209Y-93312595D01*
X72879415Y-93299431D01*
X72879414Y-93299431D01*
X72870238Y-93297304D01*
X72870332Y-93296900D01*
X72809995Y-93273906D01*
X72761619Y-93192309D01*
X72750564Y-93118776D01*
X72750564Y-93118775D01*
X72749164Y-93109465D01*
X72690535Y-92987371D01*
X72598598Y-92887914D01*
X72481481Y-92819887D01*
X72390808Y-92798870D01*
X72358715Y-92791431D01*
X72358714Y-92791431D01*
X72349538Y-92789304D01*
X72340143Y-92789969D01*
X72340140Y-92789969D01*
X72263059Y-92795427D01*
X72214436Y-92798870D01*
X72205657Y-92802266D01*
X72205654Y-92802267D01*
X72096899Y-92844341D01*
X72096897Y-92844342D01*
X72088119Y-92847738D01*
X72080723Y-92853568D01*
X72073051Y-92857945D01*
X72010620Y-92874500D01*
X71500000Y-92874500D01*
X71431879Y-92854498D01*
X71385386Y-92800842D01*
X71374000Y-92748500D01*
X71374000Y-89714190D01*
X71410905Y-89625095D01*
X72099095Y-88936905D01*
X72188190Y-88900000D01*
X77694501Y-88900000D01*
X77762622Y-88920002D01*
G37*
G04 #@! TD.AperFunction*
M02*
