G04 #@! TF.GenerationSoftware,KiCad,Pcbnew,(5.99.0-6506-gfdf6547f5f)*
G04 #@! TF.CreationDate,2020-10-25T23:45:09+03:00*
G04 #@! TF.ProjectId,DevBoard,44657642-6f61-4726-942e-6b696361645f,rev?*
G04 #@! TF.SameCoordinates,Original*
G04 #@! TF.FileFunction,Soldermask,Bot*
G04 #@! TF.FilePolarity,Negative*
%FSLAX46Y46*%
G04 Gerber Fmt 4.6, Leading zero omitted, Abs format (unit mm)*
G04 Created by KiCad (PCBNEW (5.99.0-6506-gfdf6547f5f)) date 2020-10-25 23:45:09*
%MOMM*%
%LPD*%
G01*
G04 APERTURE LIST*
G04 Aperture macros list*
%AMRoundRect*
0 Rectangle with rounded corners*
0 $1 Rounding radius*
0 $2 $3 $4 $5 $6 $7 $8 $9 X,Y pos of 4 corners*
0 Add a 4 corners polygon primitive as box body*
4,1,4,$2,$3,$4,$5,$6,$7,$8,$9,$2,$3,0*
0 Add four circle primitives for the rounded corners*
1,1,$1+$1,$2,$3,0*
1,1,$1+$1,$4,$5,0*
1,1,$1+$1,$6,$7,0*
1,1,$1+$1,$8,$9,0*
0 Add four rect primitives between the rounded corners*
20,1,$1+$1,$2,$3,$4,$5,0*
20,1,$1+$1,$4,$5,$6,$7,0*
20,1,$1+$1,$6,$7,$8,$9,0*
20,1,$1+$1,$8,$9,$2,$3,0*%
G04 Aperture macros list end*
%ADD10RoundRect,0.500000X0.500000X0.500000X-0.500000X0.500000X-0.500000X-0.500000X0.500000X-0.500000X0*%
%ADD11O,2.000000X2.000000*%
%ADD12RoundRect,0.375000X-0.375000X-0.895000X0.375000X-0.895000X0.375000X0.895000X-0.375000X0.895000X0*%
%ADD13O,1.500000X2.540000*%
%ADD14RoundRect,0.375000X-0.895000X0.375000X-0.895000X-0.375000X0.895000X-0.375000X0.895000X0.375000X0*%
%ADD15O,2.540000X1.500000*%
%ADD16RoundRect,0.375000X0.895000X-0.375000X0.895000X0.375000X-0.895000X0.375000X-0.895000X-0.375000X0*%
%ADD17C,2.000000*%
%ADD18RoundRect,0.147500X-0.172500X0.147500X-0.172500X-0.147500X0.172500X-0.147500X0.172500X0.147500X0*%
%ADD19RoundRect,0.147500X-0.147500X-0.172500X0.147500X-0.172500X0.147500X0.172500X-0.147500X0.172500X0*%
%ADD20RoundRect,0.147500X0.172500X-0.147500X0.172500X0.147500X-0.172500X0.147500X-0.172500X-0.147500X0*%
G04 APERTURE END LIST*
D10*
X58105800Y-85468700D03*
D11*
X55565800Y-85468700D03*
X53025800Y-85468700D03*
D10*
X58105800Y-91945700D03*
D11*
X55565800Y-91945700D03*
X53025800Y-91945700D03*
D12*
X40640000Y-76200000D03*
D13*
X43180000Y-76200000D03*
X45720000Y-76200000D03*
X48260000Y-76200000D03*
D12*
X40640000Y-106680000D03*
D13*
X43180000Y-106680000D03*
X45720000Y-106680000D03*
X48260000Y-106680000D03*
X50800000Y-106680000D03*
X53340000Y-106680000D03*
X55880000Y-106680000D03*
X58420000Y-106680000D03*
D14*
X95250000Y-76200000D03*
D15*
X95250000Y-78740000D03*
X95250000Y-81280000D03*
X95250000Y-83820000D03*
X95250000Y-86360000D03*
X95250000Y-88900000D03*
X95250000Y-91440000D03*
X95250000Y-93980000D03*
D12*
X73660000Y-106680000D03*
D13*
X76200000Y-106680000D03*
X78740000Y-106680000D03*
X81280000Y-106680000D03*
X83820000Y-106680000D03*
D12*
X60960000Y-106680000D03*
D13*
X63500000Y-106680000D03*
X66040000Y-106680000D03*
X68580000Y-106680000D03*
X71120000Y-106680000D03*
D16*
X95250000Y-106680000D03*
D15*
X95250000Y-104140000D03*
X95250000Y-101600000D03*
X95250000Y-99060000D03*
X95250000Y-96520000D03*
D12*
X79692500Y-84366100D03*
D13*
X82232500Y-84366100D03*
X84772500Y-84366100D03*
X87312500Y-84366100D03*
D12*
X74930000Y-76200000D03*
D13*
X77470000Y-76200000D03*
X80010000Y-76200000D03*
D12*
X86360000Y-106680000D03*
D13*
X88900000Y-106680000D03*
X91440000Y-106680000D03*
D12*
X83820000Y-76200000D03*
D13*
X86360000Y-76200000D03*
X88900000Y-76200000D03*
D17*
X40967520Y-101285040D03*
X47467520Y-101285040D03*
X40967520Y-96785040D03*
X47467520Y-96785040D03*
X57068720Y-101285040D03*
X50568720Y-101285040D03*
X50568720Y-96785040D03*
X57068720Y-96785040D03*
D18*
X43169840Y-96781760D03*
X43169840Y-97751760D03*
X52821840Y-96786840D03*
X52821840Y-97756840D03*
D19*
X49050080Y-104246680D03*
X50020080Y-104246680D03*
D20*
X44312840Y-97751760D03*
X44312840Y-96781760D03*
X54223920Y-97756840D03*
X54223920Y-96786840D03*
M02*
