G04 #@! TF.GenerationSoftware,KiCad,Pcbnew,(5.99.0-6506-gfdf6547f5f)*
G04 #@! TF.CreationDate,2020-10-25T23:45:09+03:00*
G04 #@! TF.ProjectId,DevBoard,44657642-6f61-4726-942e-6b696361645f,rev?*
G04 #@! TF.SameCoordinates,Original*
G04 #@! TF.FileFunction,Legend,Top*
G04 #@! TF.FilePolarity,Positive*
%FSLAX46Y46*%
G04 Gerber Fmt 4.6, Leading zero omitted, Abs format (unit mm)*
G04 Created by KiCad (PCBNEW (5.99.0-6506-gfdf6547f5f)) date 2020-10-25 23:45:09*
%MOMM*%
%LPD*%
G01*
G04 APERTURE LIST*
%ADD10C,0.150000*%
%ADD11C,0.100000*%
%ADD12C,0.050000*%
%ADD13C,0.120000*%
%ADD14C,0.070000*%
G04 APERTURE END LIST*
D10*
X55118095Y-103398700D02*
X55022857Y-103351080D01*
X54880000Y-103351080D01*
X54737142Y-103398700D01*
X54641904Y-103493938D01*
X54594285Y-103589176D01*
X54546666Y-103779652D01*
X54546666Y-103922509D01*
X54594285Y-104112985D01*
X54641904Y-104208223D01*
X54737142Y-104303461D01*
X54880000Y-104351080D01*
X54975238Y-104351080D01*
X55118095Y-104303461D01*
X55165714Y-104255842D01*
X55165714Y-103922509D01*
X54975238Y-103922509D01*
X55594285Y-104351080D02*
X55594285Y-103351080D01*
X56165714Y-104351080D01*
X56165714Y-103351080D01*
X56641904Y-104351080D02*
X56641904Y-103351080D01*
X56880000Y-103351080D01*
X57022857Y-103398700D01*
X57118095Y-103493938D01*
X57165714Y-103589176D01*
X57213333Y-103779652D01*
X57213333Y-103922509D01*
X57165714Y-104112985D01*
X57118095Y-104208223D01*
X57022857Y-104303461D01*
X56880000Y-104351080D01*
X56641904Y-104351080D01*
X41230800Y-103970128D02*
X41992704Y-103970128D01*
X41611752Y-104351080D02*
X41611752Y-103589176D01*
X42373657Y-103351080D02*
X42992704Y-103351080D01*
X42659371Y-103732033D01*
X42802228Y-103732033D01*
X42897466Y-103779652D01*
X42945085Y-103827271D01*
X42992704Y-103922509D01*
X42992704Y-104160604D01*
X42945085Y-104255842D01*
X42897466Y-104303461D01*
X42802228Y-104351080D01*
X42516514Y-104351080D01*
X42421276Y-104303461D01*
X42373657Y-104255842D01*
X43421276Y-104255842D02*
X43468895Y-104303461D01*
X43421276Y-104351080D01*
X43373657Y-104303461D01*
X43421276Y-104255842D01*
X43421276Y-104351080D01*
X43802228Y-103351080D02*
X44421276Y-103351080D01*
X44087942Y-103732033D01*
X44230800Y-103732033D01*
X44326038Y-103779652D01*
X44373657Y-103827271D01*
X44421276Y-103922509D01*
X44421276Y-104160604D01*
X44373657Y-104255842D01*
X44326038Y-104303461D01*
X44230800Y-104351080D01*
X43945085Y-104351080D01*
X43849847Y-104303461D01*
X43802228Y-104255842D01*
X44706990Y-103351080D02*
X45040323Y-104351080D01*
X45373657Y-103351080D01*
D11*
X92710000Y-108458000D02*
X97028000Y-108458000D01*
X72390000Y-104902000D02*
X72390000Y-108458000D01*
X85090000Y-104902000D02*
X85090000Y-108458000D01*
X82550000Y-77978000D02*
X82550000Y-74422000D01*
X92710000Y-104902000D02*
X93472000Y-104902000D01*
X39370000Y-108458000D02*
X39370000Y-104902000D01*
X90170000Y-77978000D02*
X90170000Y-74422000D01*
X49784000Y-77978000D02*
X49784000Y-74422000D01*
X39116000Y-77978000D02*
X39116000Y-74422000D01*
X81280000Y-77978000D02*
X81280000Y-74422000D01*
X73660000Y-77978000D02*
X73660000Y-74422000D01*
X93472000Y-74930000D02*
X97028000Y-74930000D01*
X59690000Y-104902000D02*
X59690000Y-108458000D01*
X93472000Y-95250000D02*
X97028000Y-95250000D01*
D10*
X54753095Y-85272280D02*
X54753095Y-86081804D01*
X54800714Y-86177042D01*
X54848333Y-86224661D01*
X54943571Y-86272280D01*
X55134047Y-86272280D01*
X55229285Y-86224661D01*
X55276904Y-86177042D01*
X55324523Y-86081804D01*
X55324523Y-85272280D01*
X55705476Y-85272280D02*
X56324523Y-85272280D01*
X55991190Y-85653233D01*
X56134047Y-85653233D01*
X56229285Y-85700852D01*
X56276904Y-85748471D01*
X56324523Y-85843709D01*
X56324523Y-86081804D01*
X56276904Y-86177042D01*
X56229285Y-86224661D01*
X56134047Y-86272280D01*
X55848333Y-86272280D01*
X55753095Y-86224661D01*
X55705476Y-86177042D01*
X42897585Y-79230528D02*
X43659490Y-79230528D01*
X43278538Y-79611480D02*
X43278538Y-78849576D01*
X44611871Y-78611480D02*
X44135680Y-78611480D01*
X44088061Y-79087671D01*
X44135680Y-79040052D01*
X44230919Y-78992433D01*
X44469014Y-78992433D01*
X44564252Y-79040052D01*
X44611871Y-79087671D01*
X44659490Y-79182909D01*
X44659490Y-79421004D01*
X44611871Y-79516242D01*
X44564252Y-79563861D01*
X44469014Y-79611480D01*
X44230919Y-79611480D01*
X44135680Y-79563861D01*
X44088061Y-79516242D01*
X44945204Y-78611480D02*
X45278538Y-79611480D01*
X45611871Y-78611480D01*
X47221069Y-104462840D02*
X47221069Y-103462840D01*
X47602021Y-103462840D01*
X47697260Y-103510460D01*
X47744879Y-103558079D01*
X47792498Y-103653317D01*
X47792498Y-103796174D01*
X47744879Y-103891412D01*
X47697260Y-103939031D01*
X47602021Y-103986650D01*
X47221069Y-103986650D01*
X48363926Y-104462840D02*
X48268688Y-104415221D01*
X48221069Y-104367602D01*
X48173450Y-104272364D01*
X48173450Y-103986650D01*
X48221069Y-103891412D01*
X48268688Y-103843793D01*
X48363926Y-103796174D01*
X48506783Y-103796174D01*
X48602021Y-103843793D01*
X48649640Y-103891412D01*
X48697260Y-103986650D01*
X48697260Y-104272364D01*
X48649640Y-104367602D01*
X48602021Y-104415221D01*
X48506783Y-104462840D01*
X48363926Y-104462840D01*
X49030593Y-103796174D02*
X49221069Y-104462840D01*
X49411545Y-103986650D01*
X49602021Y-104462840D01*
X49792498Y-103796174D01*
X50554402Y-104415221D02*
X50459164Y-104462840D01*
X50268688Y-104462840D01*
X50173450Y-104415221D01*
X50125831Y-104319983D01*
X50125831Y-103939031D01*
X50173450Y-103843793D01*
X50268688Y-103796174D01*
X50459164Y-103796174D01*
X50554402Y-103843793D01*
X50602021Y-103939031D01*
X50602021Y-104034269D01*
X50125831Y-104129507D01*
X51030593Y-104462840D02*
X51030593Y-103796174D01*
X51030593Y-103986650D02*
X51078212Y-103891412D01*
X51125831Y-103843793D01*
X51221069Y-103796174D01*
X51316307Y-103796174D01*
X93103320Y-81539840D02*
X93150939Y-81444601D01*
X93150939Y-81301744D01*
X93103320Y-81158887D01*
X93008081Y-81063649D01*
X92912843Y-81016030D01*
X92722367Y-80968411D01*
X92579510Y-80968411D01*
X92389034Y-81016030D01*
X92293796Y-81063649D01*
X92198558Y-81158887D01*
X92150939Y-81301744D01*
X92150939Y-81396982D01*
X92198558Y-81539840D01*
X92246177Y-81587459D01*
X92579510Y-81587459D01*
X92579510Y-81396982D01*
X92150939Y-82016030D02*
X93150939Y-82016030D01*
X93150939Y-82396982D01*
X93103320Y-82492220D01*
X93055700Y-82539840D01*
X92960462Y-82587459D01*
X92817605Y-82587459D01*
X92722367Y-82539840D01*
X92674748Y-82492220D01*
X92627129Y-82396982D01*
X92627129Y-82016030D01*
X92150939Y-83016030D02*
X93150939Y-83016030D01*
X93150939Y-83682697D02*
X93150939Y-83873173D01*
X93103320Y-83968411D01*
X93008081Y-84063649D01*
X92817605Y-84111268D01*
X92484272Y-84111268D01*
X92293796Y-84063649D01*
X92198558Y-83968411D01*
X92150939Y-83873173D01*
X92150939Y-83682697D01*
X92198558Y-83587459D01*
X92293796Y-83492220D01*
X92484272Y-83444601D01*
X92817605Y-83444601D01*
X93008081Y-83492220D01*
X93103320Y-83587459D01*
X93150939Y-83682697D01*
X77501904Y-102020666D02*
X77978095Y-102020666D01*
X77406666Y-102306380D02*
X77740000Y-101306380D01*
X78073333Y-102306380D01*
X78406666Y-102306380D02*
X78406666Y-101306380D01*
X78644761Y-101306380D01*
X78787619Y-101354000D01*
X78882857Y-101449238D01*
X78930476Y-101544476D01*
X78978095Y-101734952D01*
X78978095Y-101877809D01*
X78930476Y-102068285D01*
X78882857Y-102163523D01*
X78787619Y-102258761D01*
X78644761Y-102306380D01*
X78406666Y-102306380D01*
X79978095Y-102211142D02*
X79930476Y-102258761D01*
X79787619Y-102306380D01*
X79692380Y-102306380D01*
X79549523Y-102258761D01*
X79454285Y-102163523D01*
X79406666Y-102068285D01*
X79359047Y-101877809D01*
X79359047Y-101734952D01*
X79406666Y-101544476D01*
X79454285Y-101449238D01*
X79549523Y-101354000D01*
X79692380Y-101306380D01*
X79787619Y-101306380D01*
X79930476Y-101354000D01*
X79978095Y-101401619D01*
X64906639Y-104339021D02*
X65049496Y-104386640D01*
X65287591Y-104386640D01*
X65382829Y-104339021D01*
X65430448Y-104291402D01*
X65478067Y-104196164D01*
X65478067Y-104100926D01*
X65430448Y-104005688D01*
X65382829Y-103958069D01*
X65287591Y-103910450D01*
X65097115Y-103862831D01*
X65001877Y-103815212D01*
X64954258Y-103767593D01*
X64906639Y-103672355D01*
X64906639Y-103577117D01*
X64954258Y-103481879D01*
X65001877Y-103434260D01*
X65097115Y-103386640D01*
X65335210Y-103386640D01*
X65478067Y-103434260D01*
X65906639Y-104386640D02*
X65906639Y-103386640D01*
X66287591Y-103386640D01*
X66382829Y-103434260D01*
X66430448Y-103481879D01*
X66478067Y-103577117D01*
X66478067Y-103719974D01*
X66430448Y-103815212D01*
X66382829Y-103862831D01*
X66287591Y-103910450D01*
X65906639Y-103910450D01*
X66906639Y-104386640D02*
X66906639Y-103386640D01*
X67906639Y-104386640D02*
X67335210Y-104386640D01*
X67620924Y-104386640D02*
X67620924Y-103386640D01*
X67525686Y-103529498D01*
X67430448Y-103624736D01*
X67335210Y-103672355D01*
X69049496Y-103339021D02*
X68192353Y-104624736D01*
X69382829Y-104386640D02*
X69382829Y-103386640D01*
X69620924Y-103386640D01*
X69763781Y-103434260D01*
X69859020Y-103529498D01*
X69906639Y-103624736D01*
X69954258Y-103815212D01*
X69954258Y-103958069D01*
X69906639Y-104148545D01*
X69859020Y-104243783D01*
X69763781Y-104339021D01*
X69620924Y-104386640D01*
X69382829Y-104386640D01*
X70335210Y-104100926D02*
X70811400Y-104100926D01*
X70239972Y-104386640D02*
X70573305Y-103386640D01*
X70906639Y-104386640D01*
X71811400Y-104291402D02*
X71763781Y-104339021D01*
X71620924Y-104386640D01*
X71525686Y-104386640D01*
X71382829Y-104339021D01*
X71287591Y-104243783D01*
X71239972Y-104148545D01*
X71192353Y-103958069D01*
X71192353Y-103815212D01*
X71239972Y-103624736D01*
X71287591Y-103529498D01*
X71382829Y-103434260D01*
X71525686Y-103386640D01*
X71620924Y-103386640D01*
X71763781Y-103434260D01*
X71811400Y-103481879D01*
X92855681Y-98439100D02*
X92903300Y-98296242D01*
X92903300Y-98058147D01*
X92855681Y-97962909D01*
X92808062Y-97915290D01*
X92712824Y-97867671D01*
X92617586Y-97867671D01*
X92522348Y-97915290D01*
X92474729Y-97962909D01*
X92427110Y-98058147D01*
X92379491Y-98248623D01*
X92331872Y-98343861D01*
X92284253Y-98391480D01*
X92189015Y-98439100D01*
X92093777Y-98439100D01*
X91998539Y-98391480D01*
X91950920Y-98343861D01*
X91903300Y-98248623D01*
X91903300Y-98010528D01*
X91950920Y-97867671D01*
X92903300Y-97439100D02*
X91903300Y-97439100D01*
X91903300Y-97058147D01*
X91950920Y-96962909D01*
X91998539Y-96915290D01*
X92093777Y-96867671D01*
X92236634Y-96867671D01*
X92331872Y-96915290D01*
X92379491Y-96962909D01*
X92427110Y-97058147D01*
X92427110Y-97439100D01*
X92903300Y-96439100D02*
X91903300Y-96439100D01*
X91998539Y-96010528D02*
X91950920Y-95962909D01*
X91903300Y-95867671D01*
X91903300Y-95629576D01*
X91950920Y-95534338D01*
X91998539Y-95486719D01*
X92093777Y-95439100D01*
X92189015Y-95439100D01*
X92331872Y-95486719D01*
X92903300Y-96058147D01*
X92903300Y-95439100D01*
X85874077Y-87402301D02*
X86016934Y-87449920D01*
X86255029Y-87449920D01*
X86350267Y-87402301D01*
X86397886Y-87354682D01*
X86445505Y-87259444D01*
X86445505Y-87164206D01*
X86397886Y-87068968D01*
X86350267Y-87021349D01*
X86255029Y-86973730D01*
X86064553Y-86926111D01*
X85969315Y-86878492D01*
X85921696Y-86830873D01*
X85874077Y-86735635D01*
X85874077Y-86640397D01*
X85921696Y-86545159D01*
X85969315Y-86497540D01*
X86064553Y-86449920D01*
X86302648Y-86449920D01*
X86445505Y-86497540D01*
X86778839Y-86449920D02*
X87016934Y-87449920D01*
X87207410Y-86735635D01*
X87397886Y-87449920D01*
X87635981Y-86449920D01*
X88016934Y-87449920D02*
X88016934Y-86449920D01*
X88255029Y-86449920D01*
X88397886Y-86497540D01*
X88493124Y-86592778D01*
X88540743Y-86688016D01*
X88588362Y-86878492D01*
X88588362Y-87021349D01*
X88540743Y-87211825D01*
X88493124Y-87307063D01*
X88397886Y-87402301D01*
X88255029Y-87449920D01*
X88016934Y-87449920D01*
X76271619Y-79446380D02*
X76271619Y-78446380D01*
X76700190Y-78541619D02*
X76747809Y-78494000D01*
X76843047Y-78446380D01*
X77081142Y-78446380D01*
X77176380Y-78494000D01*
X77224000Y-78541619D01*
X77271619Y-78636857D01*
X77271619Y-78732095D01*
X77224000Y-78874952D01*
X76652571Y-79446380D01*
X77271619Y-79446380D01*
X78271619Y-79351142D02*
X78224000Y-79398761D01*
X78081142Y-79446380D01*
X77985904Y-79446380D01*
X77843047Y-79398761D01*
X77747809Y-79303523D01*
X77700190Y-79208285D01*
X77652571Y-79017809D01*
X77652571Y-78874952D01*
X77700190Y-78684476D01*
X77747809Y-78589238D01*
X77843047Y-78494000D01*
X77985904Y-78446380D01*
X78081142Y-78446380D01*
X78224000Y-78494000D01*
X78271619Y-78541619D01*
X79224000Y-79446380D02*
X78652571Y-79446380D01*
X78938285Y-79446380D02*
X78938285Y-78446380D01*
X78843047Y-78589238D01*
X78747809Y-78684476D01*
X78652571Y-78732095D01*
X83658035Y-103409500D02*
X83658035Y-104219024D01*
X83705654Y-104314262D01*
X83753273Y-104361881D01*
X83848511Y-104409500D01*
X84038987Y-104409500D01*
X84134225Y-104361881D01*
X84181844Y-104314262D01*
X84229463Y-104219024D01*
X84229463Y-103409500D01*
X84658035Y-104361881D02*
X84800892Y-104409500D01*
X85038987Y-104409500D01*
X85134225Y-104361881D01*
X85181844Y-104314262D01*
X85229463Y-104219024D01*
X85229463Y-104123786D01*
X85181844Y-104028548D01*
X85134225Y-103980929D01*
X85038987Y-103933310D01*
X84848511Y-103885691D01*
X84753273Y-103838072D01*
X84705654Y-103790453D01*
X84658035Y-103695215D01*
X84658035Y-103599977D01*
X84705654Y-103504739D01*
X84753273Y-103457120D01*
X84848511Y-103409500D01*
X85086606Y-103409500D01*
X85229463Y-103457120D01*
X85610416Y-104123786D02*
X86086606Y-104123786D01*
X85515178Y-104409500D02*
X85848511Y-103409500D01*
X86181844Y-104409500D01*
X87086606Y-104409500D02*
X86753273Y-103933310D01*
X86515178Y-104409500D02*
X86515178Y-103409500D01*
X86896130Y-103409500D01*
X86991368Y-103457120D01*
X87038987Y-103504739D01*
X87086606Y-103599977D01*
X87086606Y-103742834D01*
X87038987Y-103838072D01*
X86991368Y-103885691D01*
X86896130Y-103933310D01*
X86515178Y-103933310D01*
X87372320Y-103409500D02*
X87943749Y-103409500D01*
X87658035Y-104409500D02*
X87658035Y-103409500D01*
X88181844Y-103409500D02*
X88800892Y-103409500D01*
X88467559Y-103790453D01*
X88610416Y-103790453D01*
X88705654Y-103838072D01*
X88753273Y-103885691D01*
X88800892Y-103980929D01*
X88800892Y-104219024D01*
X88753273Y-104314262D01*
X88705654Y-104361881D01*
X88610416Y-104409500D01*
X88324701Y-104409500D01*
X88229463Y-104361881D01*
X88181844Y-104314262D01*
X89943749Y-103361881D02*
X89086606Y-104647596D01*
X90277082Y-104409500D02*
X90277082Y-103409500D01*
X90705654Y-103504739D02*
X90753273Y-103457120D01*
X90848511Y-103409500D01*
X91086606Y-103409500D01*
X91181844Y-103457120D01*
X91229463Y-103504739D01*
X91277082Y-103599977D01*
X91277082Y-103695215D01*
X91229463Y-103838072D01*
X90658035Y-104409500D01*
X91277082Y-104409500D01*
X92277082Y-104314262D02*
X92229463Y-104361881D01*
X92086606Y-104409500D01*
X91991368Y-104409500D01*
X91848511Y-104361881D01*
X91753273Y-104266643D01*
X91705654Y-104171405D01*
X91658035Y-103980929D01*
X91658035Y-103838072D01*
X91705654Y-103647596D01*
X91753273Y-103552358D01*
X91848511Y-103457120D01*
X91991368Y-103409500D01*
X92086606Y-103409500D01*
X92229463Y-103457120D01*
X92277082Y-103504739D01*
X92658035Y-103504739D02*
X92705654Y-103457120D01*
X92800892Y-103409500D01*
X93038987Y-103409500D01*
X93134225Y-103457120D01*
X93181844Y-103504739D01*
X93229463Y-103599977D01*
X93229463Y-103695215D01*
X93181844Y-103838072D01*
X92610416Y-104409500D01*
X93229463Y-104409500D01*
X84542571Y-78446380D02*
X84542571Y-79255904D01*
X84590190Y-79351142D01*
X84637809Y-79398761D01*
X84733047Y-79446380D01*
X84923523Y-79446380D01*
X85018761Y-79398761D01*
X85066380Y-79351142D01*
X85114000Y-79255904D01*
X85114000Y-78446380D01*
X85542571Y-79160666D02*
X86018761Y-79160666D01*
X85447333Y-79446380D02*
X85780666Y-78446380D01*
X86114000Y-79446380D01*
X87018761Y-79446380D02*
X86685428Y-78970190D01*
X86447333Y-79446380D02*
X86447333Y-78446380D01*
X86828285Y-78446380D01*
X86923523Y-78494000D01*
X86971142Y-78541619D01*
X87018761Y-78636857D01*
X87018761Y-78779714D01*
X86971142Y-78874952D01*
X86923523Y-78922571D01*
X86828285Y-78970190D01*
X86447333Y-78970190D01*
X87304476Y-78446380D02*
X87875904Y-78446380D01*
X87590190Y-79446380D02*
X87590190Y-78446380D01*
X88685428Y-78446380D02*
X88209238Y-78446380D01*
X88161619Y-78922571D01*
X88209238Y-78874952D01*
X88304476Y-78827333D01*
X88542571Y-78827333D01*
X88637809Y-78874952D01*
X88685428Y-78922571D01*
X88733047Y-79017809D01*
X88733047Y-79255904D01*
X88685428Y-79351142D01*
X88637809Y-79398761D01*
X88542571Y-79446380D01*
X88304476Y-79446380D01*
X88209238Y-79398761D01*
X88161619Y-79351142D01*
X42271559Y-94522040D02*
X42509654Y-95522040D01*
X42700130Y-94807755D01*
X42890606Y-95522040D01*
X43128701Y-94522040D01*
X43509654Y-95522040D02*
X43509654Y-94522040D01*
X44081082Y-95522040D02*
X43652511Y-94950612D01*
X44081082Y-94522040D02*
X43509654Y-95093469D01*
X44509654Y-94522040D02*
X44509654Y-95331564D01*
X44557273Y-95426802D01*
X44604892Y-95474421D01*
X44700130Y-95522040D01*
X44890606Y-95522040D01*
X44985844Y-95474421D01*
X45033463Y-95426802D01*
X45081082Y-95331564D01*
X45081082Y-94522040D01*
X45557273Y-95522040D02*
X45557273Y-94522040D01*
X45938225Y-94522040D01*
X46033463Y-94569660D01*
X46081082Y-94617279D01*
X46128701Y-94712517D01*
X46128701Y-94855374D01*
X46081082Y-94950612D01*
X46033463Y-94998231D01*
X45938225Y-95045850D01*
X45557273Y-95045850D01*
X52645464Y-95496640D02*
X52312131Y-95020450D01*
X52074036Y-95496640D02*
X52074036Y-94496640D01*
X52454988Y-94496640D01*
X52550226Y-94544260D01*
X52597845Y-94591879D01*
X52645464Y-94687117D01*
X52645464Y-94829974D01*
X52597845Y-94925212D01*
X52550226Y-94972831D01*
X52454988Y-95020450D01*
X52074036Y-95020450D01*
X53454988Y-95449021D02*
X53359750Y-95496640D01*
X53169274Y-95496640D01*
X53074036Y-95449021D01*
X53026417Y-95353783D01*
X53026417Y-94972831D01*
X53074036Y-94877593D01*
X53169274Y-94829974D01*
X53359750Y-94829974D01*
X53454988Y-94877593D01*
X53502607Y-94972831D01*
X53502607Y-95068069D01*
X53026417Y-95163307D01*
X53883560Y-95449021D02*
X53978798Y-95496640D01*
X54169274Y-95496640D01*
X54264512Y-95449021D01*
X54312131Y-95353783D01*
X54312131Y-95306164D01*
X54264512Y-95210926D01*
X54169274Y-95163307D01*
X54026417Y-95163307D01*
X53931179Y-95115688D01*
X53883560Y-95020450D01*
X53883560Y-94972831D01*
X53931179Y-94877593D01*
X54026417Y-94829974D01*
X54169274Y-94829974D01*
X54264512Y-94877593D01*
X55121655Y-95449021D02*
X55026417Y-95496640D01*
X54835940Y-95496640D01*
X54740702Y-95449021D01*
X54693083Y-95353783D01*
X54693083Y-94972831D01*
X54740702Y-94877593D01*
X54835940Y-94829974D01*
X55026417Y-94829974D01*
X55121655Y-94877593D01*
X55169274Y-94972831D01*
X55169274Y-95068069D01*
X54693083Y-95163307D01*
X55454988Y-94829974D02*
X55835940Y-94829974D01*
X55597845Y-94496640D02*
X55597845Y-95353783D01*
X55645464Y-95449021D01*
X55740702Y-95496640D01*
X55835940Y-95496640D01*
X61678487Y-89377449D02*
X61726106Y-89282211D01*
X61773725Y-89234592D01*
X61868963Y-89186973D01*
X61916582Y-89186973D01*
X62011820Y-89234592D01*
X62059440Y-89282211D01*
X62107059Y-89377449D01*
X62107059Y-89567925D01*
X62059440Y-89663163D01*
X62011820Y-89710782D01*
X61916582Y-89758401D01*
X61868963Y-89758401D01*
X61773725Y-89710782D01*
X61726106Y-89663163D01*
X61678487Y-89567925D01*
X61678487Y-89377449D01*
X61630868Y-89282211D01*
X61583249Y-89234592D01*
X61488011Y-89186973D01*
X61297535Y-89186973D01*
X61202297Y-89234592D01*
X61154678Y-89282211D01*
X61107059Y-89377449D01*
X61107059Y-89567925D01*
X61154678Y-89663163D01*
X61202297Y-89710782D01*
X61297535Y-89758401D01*
X61488011Y-89758401D01*
X61583249Y-89710782D01*
X61630868Y-89663163D01*
X61678487Y-89567925D01*
X61107059Y-90948878D02*
X62107059Y-90948878D01*
X61392773Y-91282211D01*
X62107059Y-91615544D01*
X61107059Y-91615544D01*
X61107059Y-92091735D02*
X62107059Y-92091735D01*
X61630868Y-92091735D02*
X61630868Y-92663163D01*
X61107059Y-92663163D02*
X62107059Y-92663163D01*
X61773725Y-93044116D02*
X61773725Y-93567925D01*
X61107059Y-93044116D01*
X61107059Y-93567925D01*
D12*
X50514100Y-83804900D02*
X50514100Y-84744900D01*
X48654100Y-83804900D02*
X50514100Y-83804900D01*
X48654100Y-84744900D02*
X48654100Y-83804900D01*
X50514100Y-84744900D02*
X48654100Y-84744900D01*
D11*
X41583100Y-80731600D02*
X41583100Y-81366600D01*
X41710100Y-81049100D02*
X42091100Y-80731600D01*
D12*
X40237100Y-81849100D02*
X40237100Y-80249100D01*
D11*
X42091100Y-80731600D02*
X42091100Y-81366600D01*
X42091100Y-81366600D02*
X41710100Y-81049100D01*
D12*
X40237100Y-80249100D02*
X43437100Y-80249100D01*
X43437100Y-81849100D02*
X40237100Y-81849100D01*
X43437100Y-80249100D02*
X43437100Y-81849100D01*
D13*
X42713300Y-84809900D02*
X45943300Y-84809900D01*
X42713300Y-92629900D02*
X45943300Y-92629900D01*
X47863300Y-90829900D02*
X47863300Y-91909900D01*
X47863300Y-86609900D02*
X48293300Y-86609900D01*
X47863300Y-85529900D02*
X47863300Y-86609900D01*
D14*
X49152300Y-89113600D02*
X50041300Y-89113600D01*
X50041300Y-90891600D02*
X49152300Y-90891600D01*
X50041300Y-89113600D02*
X50041300Y-90891600D01*
X49152300Y-90891600D02*
X49152300Y-89113600D01*
D12*
X50377400Y-87037400D02*
X53337400Y-87037400D01*
X50377400Y-88497400D02*
X50377400Y-87037400D01*
X53337400Y-87037400D02*
X53337400Y-88497400D01*
X53337400Y-88497400D02*
X50377400Y-88497400D01*
D11*
X51755800Y-86738700D02*
X51755800Y-84198700D01*
X51755800Y-84198700D02*
X59375800Y-84198700D01*
X59375800Y-84198700D02*
X59375800Y-86738700D01*
X59375800Y-86738700D02*
X51755800Y-86738700D01*
X51755800Y-90675700D02*
X59375800Y-90675700D01*
X59375800Y-90675700D02*
X59375800Y-93215700D01*
X59375800Y-93215700D02*
X51755800Y-93215700D01*
X51755800Y-93215700D02*
X51755800Y-90675700D01*
D14*
X47996600Y-81493600D02*
X46218600Y-81493600D01*
X47996600Y-80604600D02*
X47996600Y-81493600D01*
X46218600Y-81493600D02*
X46218600Y-80604600D01*
X46218600Y-80604600D02*
X47996600Y-80604600D01*
D12*
X53337400Y-90402400D02*
X50377400Y-90402400D01*
X50377400Y-88942400D02*
X53337400Y-88942400D01*
X53337400Y-88942400D02*
X53337400Y-90402400D01*
X50377400Y-90402400D02*
X50377400Y-88942400D01*
D13*
X56842200Y-75018700D02*
X56842200Y-81028700D01*
X56842200Y-81028700D02*
X55582200Y-81028700D01*
X50022200Y-81028700D02*
X51282200Y-81028700D01*
X50022200Y-77268700D02*
X50022200Y-81028700D01*
X60955500Y-82195200D02*
X60955500Y-75435200D01*
X57535500Y-82195200D02*
X60955500Y-82195200D01*
X57535500Y-75435200D02*
X57535500Y-82195200D01*
X65246100Y-82581900D02*
X65246100Y-81856900D01*
X69741100Y-82581900D02*
X70466100Y-82581900D01*
X69741100Y-77361900D02*
X70466100Y-77361900D01*
X65971100Y-77361900D02*
X65246100Y-77361900D01*
X65971100Y-82581900D02*
X65246100Y-82581900D01*
X70466100Y-82581900D02*
X70466100Y-81856900D01*
X70466100Y-77361900D02*
X70466100Y-78086900D01*
X54615000Y-90329900D02*
X56415000Y-90329900D01*
X56415000Y-87109900D02*
X53965000Y-87109900D01*
D11*
X49784000Y-77978000D02*
X39116000Y-77978000D01*
X39116000Y-74422000D02*
X49784000Y-74422000D01*
D12*
X46176840Y-78584960D02*
X48036840Y-78584960D01*
X46176840Y-79524960D02*
X46176840Y-78584960D01*
X48036840Y-79524960D02*
X46176840Y-79524960D01*
X48036840Y-78584960D02*
X48036840Y-79524960D01*
X73205240Y-75575360D02*
X73205240Y-78775360D01*
D11*
X72722740Y-77429360D02*
X72087740Y-77429360D01*
X72087740Y-77429360D02*
X72405240Y-77048360D01*
X72722740Y-76921360D02*
X72087740Y-76921360D01*
D12*
X73205240Y-78775360D02*
X71605240Y-78775360D01*
D11*
X72405240Y-77048360D02*
X72722740Y-77429360D01*
D12*
X71605240Y-75575360D02*
X73205240Y-75575360D01*
X71605240Y-78775360D02*
X71605240Y-75575360D01*
X82080000Y-102905200D02*
X83020000Y-102905200D01*
X83020000Y-104765200D02*
X82080000Y-104765200D01*
X82080000Y-104765200D02*
X82080000Y-102905200D01*
X83020000Y-102905200D02*
X83020000Y-104765200D01*
X83741360Y-90541200D02*
X82801360Y-90541200D01*
X82801360Y-90541200D02*
X82801360Y-88681200D01*
X82801360Y-88681200D02*
X83741360Y-88681200D01*
X83741360Y-88681200D02*
X83741360Y-90541200D01*
X63500100Y-90782500D02*
X62560100Y-90782500D01*
X62560100Y-90782500D02*
X62560100Y-88922500D01*
X63500100Y-88922500D02*
X63500100Y-90782500D01*
X62560100Y-88922500D02*
X63500100Y-88922500D01*
X80480000Y-104765200D02*
X79540000Y-104765200D01*
X79540000Y-104765200D02*
X79540000Y-102905200D01*
X80480000Y-102905200D02*
X80480000Y-104765200D01*
X79540000Y-102905200D02*
X80480000Y-102905200D01*
X73264120Y-85519160D02*
X73264120Y-86459160D01*
X73264120Y-86459160D02*
X71404120Y-86459160D01*
X71404120Y-86459160D02*
X71404120Y-85519160D01*
X71404120Y-85519160D02*
X73264120Y-85519160D01*
X62560100Y-91940020D02*
X63500100Y-91940020D01*
X63500100Y-93800020D02*
X62560100Y-93800020D01*
X62560100Y-93800020D02*
X62560100Y-91940020D01*
X63500100Y-91940020D02*
X63500100Y-93800020D01*
X77000000Y-102905200D02*
X77940000Y-102905200D01*
X77940000Y-102905200D02*
X77940000Y-104765200D01*
X77940000Y-104765200D02*
X77000000Y-104765200D01*
X77000000Y-104765200D02*
X77000000Y-102905200D01*
X73159720Y-102397920D02*
X72219720Y-102397920D01*
X73159720Y-100537920D02*
X73159720Y-102397920D01*
X72219720Y-100537920D02*
X73159720Y-100537920D01*
X72219720Y-102397920D02*
X72219720Y-100537920D01*
X75400000Y-104765200D02*
X74460000Y-104765200D01*
X74460000Y-102905200D02*
X75400000Y-102905200D01*
X75400000Y-102905200D02*
X75400000Y-104765200D01*
X74460000Y-104765200D02*
X74460000Y-102905200D01*
X68120160Y-94335240D02*
X69060160Y-94335240D01*
X68120160Y-96195240D02*
X68120160Y-94335240D01*
X69060160Y-96195240D02*
X68120160Y-96195240D01*
X69060160Y-94335240D02*
X69060160Y-96195240D01*
X68440200Y-88335760D02*
X69380200Y-88335760D01*
X68440200Y-90195760D02*
X68440200Y-88335760D01*
X69380200Y-90195760D02*
X68440200Y-90195760D01*
X69380200Y-88335760D02*
X69380200Y-90195760D01*
X81229560Y-101023520D02*
X79369560Y-101023520D01*
X79369560Y-100083520D02*
X81229560Y-100083520D01*
X79369560Y-101023520D02*
X79369560Y-100083520D01*
X81229560Y-100083520D02*
X81229560Y-101023520D01*
X61236760Y-79253440D02*
X61236760Y-77393440D01*
X62176760Y-77393440D02*
X62176760Y-79253440D01*
X62176760Y-79253440D02*
X61236760Y-79253440D01*
X61236760Y-77393440D02*
X62176760Y-77393440D01*
X62318800Y-79250900D02*
X62318800Y-77390900D01*
X62318800Y-77390900D02*
X63258800Y-77390900D01*
X63258800Y-77390900D02*
X63258800Y-79250900D01*
X63258800Y-79250900D02*
X62318800Y-79250900D01*
D11*
X60523120Y-100759260D02*
X60142120Y-100441760D01*
D12*
X61869120Y-99641760D02*
X61869120Y-101241760D01*
X58669120Y-99641760D02*
X61869120Y-99641760D01*
D11*
X60015120Y-100124260D02*
X60015120Y-100759260D01*
D12*
X58669120Y-101241760D02*
X58669120Y-99641760D01*
X61869120Y-101241760D02*
X58669120Y-101241760D01*
D11*
X60523120Y-100124260D02*
X60523120Y-100759260D01*
X60142120Y-100441760D02*
X60523120Y-100124260D01*
D12*
X61869120Y-101348640D02*
X61869120Y-102948640D01*
D11*
X60015120Y-101831140D02*
X60015120Y-102466140D01*
D12*
X61869120Y-102948640D02*
X58669120Y-102948640D01*
D11*
X60523120Y-102466140D02*
X60142120Y-102148640D01*
X60523120Y-101831140D02*
X60523120Y-102466140D01*
X60142120Y-102148640D02*
X60523120Y-101831140D01*
D12*
X58669120Y-102948640D02*
X58669120Y-101348640D01*
X58669120Y-101348640D02*
X61869120Y-101348640D01*
D11*
X60523120Y-103538020D02*
X60523120Y-104173020D01*
X60015120Y-103538020D02*
X60015120Y-104173020D01*
D12*
X58669120Y-103055520D02*
X61869120Y-103055520D01*
X61869120Y-103055520D02*
X61869120Y-104655520D01*
D11*
X60523120Y-104173020D02*
X60142120Y-103855520D01*
D12*
X58669120Y-104655520D02*
X58669120Y-103055520D01*
D11*
X60142120Y-103855520D02*
X60523120Y-103538020D01*
D12*
X61869120Y-104655520D02*
X58669120Y-104655520D01*
D11*
X39370000Y-104902000D02*
X59690000Y-104902000D01*
X59690000Y-108458000D02*
X39370000Y-108458000D01*
X97028000Y-74930000D02*
X97028000Y-95250000D01*
X93472000Y-95250000D02*
X93472000Y-74930000D01*
X85344000Y-108458000D02*
X72136000Y-108458000D01*
X72136000Y-104902000D02*
X85344000Y-104902000D01*
X72644000Y-108458000D02*
X59436000Y-108458000D01*
X59436000Y-104902000D02*
X72644000Y-104902000D01*
X93472000Y-108204000D02*
X93472000Y-94996000D01*
X97028000Y-94996000D02*
X97028000Y-108204000D01*
X78168500Y-82588100D02*
X88836500Y-82588100D01*
X88836500Y-82588100D02*
X88836500Y-86144100D01*
X88836500Y-86144100D02*
X78168500Y-86144100D01*
X78168500Y-86144100D02*
X78168500Y-82588100D01*
X73660000Y-74422000D02*
X81280000Y-74422000D01*
X81280000Y-77978000D02*
X73660000Y-77978000D01*
X92710000Y-108458000D02*
X85090000Y-108458000D01*
X85090000Y-104902000D02*
X92710000Y-104902000D01*
X82550000Y-74422000D02*
X90170000Y-74422000D01*
X90170000Y-77978000D02*
X82550000Y-77978000D01*
D14*
X74091800Y-104724200D02*
X73202800Y-104724200D01*
X74091800Y-102946200D02*
X74091800Y-104724200D01*
X73202800Y-104724200D02*
X73202800Y-102946200D01*
X73202800Y-102946200D02*
X74091800Y-102946200D01*
X75755500Y-102946200D02*
X76644500Y-102946200D01*
X76644500Y-102946200D02*
X76644500Y-104724200D01*
X76644500Y-104724200D02*
X75755500Y-104724200D01*
X75755500Y-104724200D02*
X75755500Y-102946200D01*
X79184500Y-104724200D02*
X78295500Y-104724200D01*
X78295500Y-104724200D02*
X78295500Y-102946200D01*
X78295500Y-102946200D02*
X79184500Y-102946200D01*
X79184500Y-102946200D02*
X79184500Y-104724200D01*
X81724500Y-102946200D02*
X81724500Y-104724200D01*
X80835500Y-102946200D02*
X81724500Y-102946200D01*
X80835500Y-104724200D02*
X80835500Y-102946200D01*
X81724500Y-104724200D02*
X80835500Y-104724200D01*
X73520300Y-84851240D02*
X74409300Y-84851240D01*
X74409300Y-84851240D02*
X74409300Y-86629240D01*
X74409300Y-86629240D02*
X73520300Y-86629240D01*
X73520300Y-86629240D02*
X73520300Y-84851240D01*
X72849740Y-79212440D02*
X72849740Y-80990440D01*
X71960740Y-79212440D02*
X72849740Y-79212440D01*
X71960740Y-80990440D02*
X71960740Y-79212440D01*
X72849740Y-80990440D02*
X71960740Y-80990440D01*
X62611000Y-100883720D02*
X62611000Y-99994720D01*
X64389000Y-100883720D02*
X62611000Y-100883720D01*
X64389000Y-99994720D02*
X64389000Y-100883720D01*
X62611000Y-99994720D02*
X64389000Y-99994720D01*
X62611000Y-102593140D02*
X62611000Y-101704140D01*
X64389000Y-101704140D02*
X64389000Y-102593140D01*
X64389000Y-102593140D02*
X62611000Y-102593140D01*
X62611000Y-101704140D02*
X64389000Y-101704140D01*
X64389000Y-103413560D02*
X64389000Y-104302560D01*
X62611000Y-104302560D02*
X62611000Y-103413560D01*
X62611000Y-103413560D02*
X64389000Y-103413560D01*
X64389000Y-104302560D02*
X62611000Y-104302560D01*
X65951100Y-84531200D02*
X65951100Y-83642200D01*
X65951100Y-83642200D02*
X67729100Y-83642200D01*
X67729100Y-83642200D02*
X67729100Y-84531200D01*
X67729100Y-84531200D02*
X65951100Y-84531200D01*
D13*
X47717520Y-99785040D02*
X47717520Y-98285040D01*
X40717520Y-98285040D02*
X40717520Y-99785040D01*
X46467520Y-95785040D02*
X41967520Y-95785040D01*
X41967520Y-102285040D02*
X46467520Y-102285040D01*
X56068720Y-95785040D02*
X51568720Y-95785040D01*
X51568720Y-102285040D02*
X56068720Y-102285040D01*
X50318720Y-98285040D02*
X50318720Y-99785040D01*
X57318720Y-99785040D02*
X57318720Y-98285040D01*
D10*
X70771000Y-89325000D02*
X69746000Y-89325000D01*
X81121000Y-98675000D02*
X81121000Y-97600000D01*
X70771000Y-88325000D02*
X70771000Y-89325000D01*
X70771000Y-98675000D02*
X70771000Y-97600000D01*
X81121000Y-98675000D02*
X80046000Y-98675000D01*
X81121000Y-88325000D02*
X80046000Y-88325000D01*
X81121000Y-88325000D02*
X81121000Y-89400000D01*
X70771000Y-98675000D02*
X71846000Y-98675000D01*
X70771000Y-88325000D02*
X71846000Y-88325000D01*
D11*
X66817040Y-93856180D02*
X63617040Y-93856180D01*
X66817040Y-88856180D02*
X66817040Y-93856180D01*
X63617040Y-93856180D02*
X63617040Y-88856180D01*
X63617040Y-88856180D02*
X66817040Y-88856180D01*
M02*
