G04 #@! TF.GenerationSoftware,KiCad,Pcbnew,(5.99.0-6506-gfdf6547f5f)*
G04 #@! TF.CreationDate,2020-10-25T23:45:09+03:00*
G04 #@! TF.ProjectId,DevBoard,44657642-6f61-4726-942e-6b696361645f,rev?*
G04 #@! TF.SameCoordinates,Original*
G04 #@! TF.FileFunction,Legend,Bot*
G04 #@! TF.FilePolarity,Positive*
%FSLAX46Y46*%
G04 Gerber Fmt 4.6, Leading zero omitted, Abs format (unit mm)*
G04 Created by KiCad (PCBNEW (5.99.0-6506-gfdf6547f5f)) date 2020-10-25 23:45:09*
%MOMM*%
%LPD*%
G01*
G04 APERTURE LIST*
%ADD10C,0.050000*%
%ADD11C,0.070000*%
G04 APERTURE END LIST*
D10*
X43639840Y-96336760D02*
X42699840Y-96336760D01*
X42699840Y-96336760D02*
X42699840Y-98196760D01*
X42699840Y-98196760D02*
X43639840Y-98196760D01*
X43639840Y-98196760D02*
X43639840Y-96336760D01*
X53291840Y-98201840D02*
X53291840Y-96341840D01*
X53291840Y-96341840D02*
X52351840Y-96341840D01*
X52351840Y-98201840D02*
X53291840Y-98201840D01*
X52351840Y-96341840D02*
X52351840Y-98201840D01*
X48605080Y-104716680D02*
X50465080Y-104716680D01*
X50465080Y-104716680D02*
X50465080Y-103776680D01*
X50465080Y-103776680D02*
X48605080Y-103776680D01*
X48605080Y-103776680D02*
X48605080Y-104716680D01*
D11*
X43868340Y-96377760D02*
X43868340Y-98155760D01*
X44757340Y-98155760D02*
X44757340Y-96377760D01*
X44757340Y-96377760D02*
X43868340Y-96377760D01*
X43868340Y-98155760D02*
X44757340Y-98155760D01*
X54668420Y-98160840D02*
X54668420Y-96382840D01*
X53779420Y-98160840D02*
X54668420Y-98160840D01*
X53779420Y-96382840D02*
X53779420Y-98160840D01*
X54668420Y-96382840D02*
X53779420Y-96382840D01*
M02*
